<svg width="1em" height="1em" className='mr5' viewBox="0 0 52.92 52.92" fill="#07c160">
                <path d="m26.46 2.646c-13.15 0-23.81 10.66-23.81 23.81 0 13.15 10.66 23.81 23.81 23.81 13.15 0 23.81-10.66 23.81-23.81 0-13.15-10.66-23.81-23.81-23.81zm6.567 10.17c4.738 0 8.591 3.513 8.591 7.832 0 1.375-0.3933 2.666-1.078 3.789l-1e-3 -5.17e-4c-1.056 1.732-2.811 3.06-4.914 3.672-0.05285 0.01524-0.1053 0.03222-0.1587 0.04651-0.3248 0.0924-0.6575 0.1488-0.9881 0.1488-1.457 0-2.28-0.9841-1.838-2.198 0.3234-0.8876 1.172-1.637 2.207-1.984 1.605-0.5853 2.727-1.921 2.727-3.474 0-2.093-2.036-3.789-4.547-3.789-2.512 0-4.548 1.697-4.548 3.789v11.62c0 2.795-1.619 5.246-4.043 6.633-1.321 0.7553-2.877 1.2-4.548 1.2-4.738 0-8.591-3.513-8.591-7.832 0-1.375 0.3933-2.666 1.078-3.789 1.06-1.74 2.826-3.072 4.943-3.68 0.0018-0.0011 0.0032-0.0017 0.0052-0.0021 0.3567-0.111 0.7267-0.1726 1.091-0.1726 1.464 0 2.29 0.989 1.846 2.208-0.3005 0.8263-1.11 1.538-2.055 1.916-0.1124 0.03761-0.2226 0.08023-0.3308 0.1245-1.5 0.6195-2.534 1.905-2.534 3.394 0 2.093 2.036 3.789 4.548 3.789 2.512 0 4.547-1.697 4.547-3.789v-11.62c0-2.795 1.62-5.246 4.043-6.633 1.321-0.7557 2.876-1.2 4.547-1.2z" fill="#0bb" />
              </svg>