<svg width="1em" height="1em" viewBox="0 0 48 48"><path fill="#FF9800" d="M24 37l-5-6v-6h10v6z"></path><g fill="#FFA726"><circle cx="33" cy="19" r="2"></circle><circle cx="15" cy="19" r="2"></circle></g><path fill="#FFB74D" d="M33 13c0-7.6-18-5-18 0v7c0 5 4 9 9 9s9-4 9-9v-7z"></path><path fill="#424242" d="M24 4c-6.1 0-10 4.9-10 11v2.3l2 1.7v-5l12-4l4 4v5l2-1.7V15c0-4-1-8-6-9l-1-2h-3z"></path><g fill="#784719"><circle cx="28" cy="19" r="1"></circle><circle cx="20" cy="19" r="1"></circle></g><path fill="#fff" d="M24 43l-5-12l5 1l5-1z"></path><path fill="#D32F2F" d="M23 35l-.7 4.5l1.7 4l1.7-4L25 35l1-1l-2-2l-2 2z"></path><path fill="#546E7A" d="M29 31l-5 12l-5-12S8 33 8 44h32c0-11-11-13-11-13z"></path></svg>