<?xml version="1.0" encoding="UTF-8"?>
<svg version="1.1" viewBox="15 0 691 541" xmlns="http://www.w3.org/2000/svg">
 <g transform="translate(-8.725 -.04658)">
  <g stroke="#8db9ff" stroke-linecap="round" stroke-width="2">
   <g transform="matrix(1.063 0 0 1.063 -12.6 280.4)">
    <path d="m336.9 153.7-3.32-3.32 3.287-3.287 3.287 3.287z" fill="none" stroke-linejoin="round"/>
    <path d="m384.9 110.2-6.738 2.194 0.1563-4.421z" fill="#8db9ff" stroke-linejoin="round"/>
    <path d="m340.2 150.4h3.854c5.478 0 8.217-2.772 8.217-8.25v-23.95c0-5.478 2.739-8.217 8.217-8.217l18.73 0.1563" fill="none"/>
    <path d="m384.9 190.7-6.738-2.194 0.1563 4.421z" fill="#8db9ff" stroke-linejoin="round"/>
    <path d="m344.1 150.4c5.478 0 8.217 2.772 8.217 8.25v23.95c0 5.478 2.739 8.217 8.217 8.217l18.73-0.1563" fill="none"/>
   </g>
   <g transform="matrix(1.063 0 0 1.063 -12.6 -60.97)">
    <path d="m336.9 153.7-3.32-3.32 3.287-3.287 3.287 3.287z" fill="none" stroke-linejoin="round"/>
    <path d="m384.9 110.2-6.738 2.194 0.1563-4.421z" fill="#8db9ff" stroke-linejoin="round"/>
    <path d="m340.2 150.4h3.854c5.478 0 8.217-2.772 8.217-8.25v-23.95c0-5.478 2.739-8.217 8.217-8.217l18.73 0.1563" fill="none"/>
    <path d="m384.9 190.7-6.738-2.194 0.1563 4.421z" fill="#8db9ff" stroke-linejoin="round"/>
    <path d="m344.1 150.4c5.478 0 8.217 2.772 8.217 8.25v23.95c0 5.478 2.739 8.217 8.217 8.217l18.73-0.1563" fill="none"/>
   </g>
   <g transform="matrix(1.063 0 0 1.063 -12.6 109.7)">
    <path d="m336.9 153.7-3.32-3.32 3.287-3.287 3.287 3.287z" fill="none" stroke-linejoin="round"/>
    <path d="m384.9 110.2-6.738 2.194 0.1563-4.421z" fill="#8db9ff" stroke-linejoin="round"/>
    <path d="m340.2 150.4h3.854c5.478 0 8.217-2.772 8.217-8.25v-23.95c0-5.478 2.739-8.217 8.217-8.217l18.73 0.1563" fill="none"/>
    <path d="m384.9 190.7-6.738-2.194 0.1563 4.421z" fill="#8db9ff" stroke-linejoin="round"/>
    <path d="m344.1 150.4c5.478 0 8.217 2.772 8.217 8.25v23.95c0 5.478 2.739 8.217 8.217 8.217l18.73-0.1563" fill="none"/>
   </g>
  </g>
  <g transform="matrix(1.063 0 0 1.063 -13.7 -19.79)">
   <g stroke="#8db9ff" stroke-linecap="round" stroke-width="2">
    <path d="m172.8 271.3h38.27" fill="none"/>
    <g stroke-linejoin="round">
     <path d="m169.6 274.6-3.32-3.32 3.287-3.287 3.287 3.287z" fill="none"/>
     <path d="m217.5 271.3-6.738 2.194 0.1563-4.421z" fill="#8db9ff"/>
     <path d="m217.5 432.1-6.738-2.194 0.1563 4.421z" fill="#8db9ff"/>
    </g>
    <path d="m176.7 271.3c5.478 0 8.217 2.772 8.217 8.25v144.6c0 5.478 2.739 8.217 8.217 8.217l18.73-0.1563" fill="none"/>
    <path d="m217.5 110.4-6.738 2.194 0.1563-4.421z" fill="#8db9ff" stroke-linejoin="round"/>
    <path d="m176.7 271.3c5.478 0 8.217-2.772 8.217-8.25v-144.6c0-5.478 2.739-8.217 8.217-8.217l18.73 0.1563" fill="none"/>
   </g>
  </g>
  <g transform="translate(9.237 -3.208)">
   <g transform="matrix(1.063 0 0 1.063 -22.92 -16.04)" stroke-linecap="round" stroke-width="2">
    <path d="m155.1 254.7c7.385 0 11.08 3.692 10.98 11.08l0.1213 2.498 0.0657 2.49-0.1972 2.498 0.0164 2.49 0.0904 2.49c0 7.385-3.692 11.08-11.08 11.36l-8.275-0.7724-8.267 0.4602-8.275 8e-3 -8.267 0.1972-8.275-0.756-8.267 0.9614-8.275 0.0411-8.267 0.189-8.275-0.493-8.267 0.3205-8.275-0.4437c-7.385 0-11.08-3.692-11.13-11.08z" opacity=".25"/>
    <path d="m164.5 265.9 0.0657 2.49-0.1972 2.498 0.0164 2.49 0.0904 2.49c0 7.385-3.692 11.08-11.08 11.36l-8.275-0.7724-8.267 0.4602-8.275 8e-3 -8.267 0.1972-8.275-0.756-8.267 0.9614-8.275 0.0411-8.267 0.189-8.275-0.493-8.267 0.3205-8.275-0.4437c-7.385 0-11.08-3.692-11.13-11.08l0.2424-2.49-0.1233-2.49-0.115-2.498 0.01643-2.49 0.03287-2.49c0-7.385 3.692-11.08 11.08-11.01l8.275-0.2506 8.267 0.2383 8.275-0.1068 8.267 0.4848 8.275-1.044 8.267 0.6738 8.275 0.378 8.267-0.6245 8.275 0.5999 8.267-0.8135 8.275 0.3944c7.385 0 11.08 3.692 10.98 11.08z" fill="#fff9e7" stroke="#ffcd5a"/>
   </g>
   <text x="91.382507" y="275.36084" fill="#3b57a6" font-size="14.88px" stroke-width="1.063" text-anchor="middle">gitLab</text>
  </g>
  <g transform="translate(9.06 -3.622)">
   <path d="m321.3 254.7c7.85 0 11.78 3.925 11.67 11.78l0.1289 2.655 0.0698 2.647-0.2096 2.655 0.0174 2.647 0.0961 2.647c0 7.85-3.925 11.78-11.78 12.08l-8.796-0.8211-8.788 0.4892-8.796 9e-3 -8.788 0.2096-8.796-0.8036-8.788 1.022-8.796 0.0437-8.788 0.2009-8.796-0.5241-8.788 0.3407-8.796-0.4717c-7.85 0-11.78-3.925-11.83-11.78z" opacity=".25" stroke-linecap="round" stroke-width="2.126"/>
   <path d="m331.4 266.6 0.0698 2.647-0.2096 2.655 0.0174 2.647 0.0961 2.647c0 7.85-3.925 11.78-11.78 12.08l-8.796-0.8211-8.788 0.4892-8.796 9e-3 -8.788 0.2096-8.796-0.8036-8.788 1.022-8.796 0.0437-8.788 0.2009-8.796-0.5241-8.788 0.3407-8.796-0.4716c-7.85 0-11.78-3.925-11.83-11.78l0.2577-2.647-0.1311-2.647-0.1222-2.655 0.0174-2.647 0.035-2.647c0-7.85 3.925-11.78 11.78-11.7l8.796-0.2664 8.788 0.2533 8.796-0.1135 8.788 0.5153 8.796-1.11 8.788 0.7162 8.796 0.4018 8.788-0.6638 8.796 0.6377 8.788-0.8648 8.796 0.4192c7.85 0 11.78 3.925 11.67 11.78z" fill="#feeeff" stroke="#e14bdd" stroke-linecap="round" stroke-width="2.126"/>
   <text x="270.78003" y="275.36084" fill="#3b57a6" font-size="14.88px" stroke-width="1.063" text-anchor="middle">webhook</text>
  </g>
  <g transform="translate(9.06 37.9)">
   <path d="m321.3 385.2c7.85 0 11.78 3.925 11.67 11.78l0.1289 2.655 0.0698 2.647-0.2096 2.655 0.0174 2.647 0.0961 2.647c0 7.85-3.925 11.78-11.78 12.08l-8.796-0.8211-8.788 0.4892-8.796 9e-3 -8.788 0.2096-8.796-0.8036-8.788 1.022-8.796 0.0437-8.788 0.2009-8.796-0.5241-8.788 0.3407-8.796-0.4717c-7.85 0-11.78-3.925-11.83-11.78z" opacity=".25" stroke-linecap="round" stroke-width="2.126"/>
   <path d="m331.4 397 0.0698 2.647-0.2096 2.655 0.0174 2.647 0.0961 2.647c0 7.85-3.925 11.78-11.78 12.08l-8.796-0.8211-8.788 0.4892-8.796 8e-3 -8.788 0.2096-8.796-0.8036-8.788 1.022-8.796 0.0437-8.788 0.2009-8.796-0.5241-8.788 0.3407-8.796-0.4716c-7.85 0-11.78-3.925-11.83-11.78l0.2577-2.647-0.1311-2.647-0.1222-2.655 0.0174-2.647 0.035-2.647c0-7.85 3.925-11.78 11.78-11.7l8.796-0.2664 8.788 0.2533 8.796-0.1135 8.788 0.5153 8.796-1.11 8.788 0.7162 8.796 0.4018 8.788-0.6638 8.796 0.6377 8.788-0.8648 8.796 0.4192c7.85 0 11.78 3.925 11.67 11.78z" fill="#e7e7ff" stroke="#6c6cd9" stroke-linecap="round" stroke-width="2.126"/>
   <text x="270.78003" y="405.79593" fill="#3b57a6" font-size="14.88px" stroke-width="1.063" text-anchor="middle">repo sync</text>
  </g>
  <g transform="translate(9.06 -47.24)">
   <path d="m321.3 126.4c7.85 0 11.78 3.925 11.67 11.78l0.1289 2.655 0.0698 2.647-0.2096 2.655 0.0174 2.647 0.0961 2.647c0 7.85-3.925 11.78-11.78 12.08l-8.796-0.8211-8.788 0.4892-8.796 8e-3 -8.788 0.2096-8.796-0.8036-8.788 1.022-8.796 0.0437-8.788 0.2009-8.796-0.5241-8.788 0.3407-8.796-0.4717c-7.85 0-11.78-3.925-11.83-11.78z" opacity=".25" stroke-linecap="round" stroke-width="2.126"/>
   <path d="m331.4 138.2 0.0698 2.647-0.2096 2.655 0.0174 2.647 0.0961 2.647c0 7.85-3.925 11.78-11.78 12.08l-8.796-0.8211-8.788 0.4892-8.796 8e-3 -8.788 0.2096-8.796-0.8036-8.788 1.022-8.796 0.0437-8.788 0.2009-8.796-0.5241-8.788 0.3407-8.796-0.4716c-7.85 0-11.78-3.925-11.83-11.78l0.2577-2.647-0.1311-2.647-0.1222-2.655 0.0174-2.647 0.035-2.647c0-7.85 3.925-11.78 11.78-11.7l8.796-0.2664 8.788 0.2533 8.796-0.1135 8.788 0.5153 8.796-1.11 8.788 0.7162 8.796 0.4018 8.788-0.6638 8.796 0.6377 8.788-0.8648 8.796 0.4192c7.85 0 11.78 3.925 11.67 11.78z" fill="#f0fff5" stroke="#3ce4bb" stroke-linecap="round" stroke-width="2.126"/>
   <text x="270.78003" y="147.00377" fill="#3b57a6" font-size="14.88px" stroke-width="1.063" text-anchor="middle">pipelines build</text>
  </g>
  <g transform="translate(7.888 -41.27)">
   <path d="m500.4 83.78c7.85 0 11.78 3.925 11.67 11.78l0.1289 2.655 0.0698 2.647-0.2096 2.655 0.0174 2.647 0.0961 2.647c0 7.85-3.925 11.78-11.78 12.08l-8.796-0.8211-8.788 0.4892-8.796 8e-3 -8.788 0.2096-8.796-0.8036-8.788 1.022-8.796 0.0437-8.788 0.2009-8.796-0.5241-8.788 0.3407-8.796-0.4717c-7.85 0-11.78-3.925-11.83-11.78z" opacity=".25" stroke-linecap="round" stroke-width="2.126"/>
   <path d="m510.5 95.67 0.0698 2.647-0.2096 2.655 0.0174 2.647 0.0961 2.647c0 7.85-3.925 11.78-11.78 12.08l-8.796-0.8211-8.788 0.4892-8.796 8e-3 -8.788 0.2096-8.796-0.8036-8.788 1.022-8.796 0.0437-8.788 0.2009-8.796-0.5241-8.788 0.3407-8.796-0.4716c-7.85 0-11.78-3.925-11.83-11.78l0.2577-2.647-0.1311-2.647-0.1222-2.655 0.0174-2.647 0.035-2.647c0-7.85 3.925-11.78 11.78-11.7l8.796-0.2664 8.788 0.2533 8.796-0.1135 8.788 0.5153 8.796-1.11 8.788 0.7162 8.796 0.4018 8.788-0.6638 8.796 0.6377 8.788-0.8648 8.796 0.4192c7.85 0 11.78 3.925 11.67 11.78z" fill="#d5fff5" stroke="#69e5d6" stroke-linecap="round" stroke-width="2.126"/>
   <text x="449.86575" y="104.41775" fill="#3b57a6" font-size="14.88px" stroke-width="1.063" text-anchor="middle">gitlab page</text>
  </g>
  <g transform="translate(0 -.2478)">
   <g transform="matrix(1.063 0 0 1.063 164.1 -143.5)" stroke="#8db9ff" stroke-linecap="round" stroke-width="2">
    <path d="m341.5 270.5h38.18" fill="none"/>
    <path d="m338.3 273.8-3.32-3.32 3.287-3.287 3.287 3.287z" fill="none" stroke-linejoin="round"/>
    <path d="m386.2 270.5-6.738 2.194 0.1563-4.421z" fill="#8db9ff" stroke-linejoin="round"/>
   </g>
   <g transform="translate(7.845 -41.52)">
    <g transform="matrix(1.063 0 0 1.063 -22.92 -16.52)">
     <path d="m660.3 174.5c7.385 0 11.08 3.692 10.98 11.08l0.1213 2.498 0.0657 2.49-0.1972 2.498 0.0164 2.49 0.0904 2.49c0 7.385-3.692 11.08-11.08 11.36l-8.275-0.7724-8.267 0.4602-8.275 8e-3 -8.267 0.1972-8.275-0.756-8.267 0.9614-8.275 0.0411-8.267 0.189-8.275-0.493-8.267 0.3205-8.275-0.4437c-7.385 0-11.08-3.692-11.13-11.08z" opacity=".25" stroke-linecap="round" stroke-width="2"/>
     <path d="m669.8 185.6 0.0657 2.49-0.1972 2.498 0.0164 2.49 0.0904 2.49c0 7.385-3.692 11.08-11.08 11.36l-8.275-0.7724-8.267 0.4602-8.275 8e-3 -8.267 0.1972-8.275-0.756-8.267 0.9614-8.275 0.0411-8.267 0.189-8.275-0.493-8.267 0.3205-8.275-0.4437c-7.385 0-11.08-3.692-11.13-11.08l0.2424-2.49-0.1233-2.49-0.115-2.498 0.0164-2.49 0.0329-2.49c0-7.385 3.692-11.08 11.08-11.01l8.275-0.2506 8.267 0.2383 8.275-0.1068 8.267 0.4848 8.275-1.044 8.267 0.6738 8.275 0.378 8.267-0.6245 8.275 0.5999 8.267-0.8135 8.275 0.3944c7.385 0 11.08 3.692 10.98 11.08z" fill="#bee9fe" stroke="#32afed" stroke-linecap="round" stroke-width="2"/>
     <text x="612.73358" y="193.86458" fill="#3b57a6" font-size="14px" text-anchor="middle">telegram bot</text>
    </g>
   </g>
  </g>
  <g transform="translate(2e-6 -84.9)">
   <g transform="matrix(1.063 0 0 1.063 164.1 -143.5)" stroke="#8db9ff" stroke-linecap="round" stroke-width="2">
    <path d="m341.5 270.5h38.18" fill="none"/>
    <path d="m338.3 273.8-3.32-3.32 3.287-3.287 3.287 3.287z" fill="none" stroke-linejoin="round"/>
    <path d="m386.2 270.5-6.738 2.194 0.1563-4.421z" fill="#8db9ff" stroke-linejoin="round"/>
   </g>
   <g transform="translate(7.845 -41.52)">
    <g transform="matrix(1.063 0 0 1.063 -22.92 -16.52)">
     <path d="m660.3 174.5c7.385 0 11.08 3.692 10.98 11.08l0.1213 2.498 0.0657 2.49-0.1972 2.498 0.0164 2.49 0.0904 2.49c0 7.385-3.692 11.08-11.08 11.36l-8.275-0.7724-8.267 0.4602-8.275 8e-3 -8.267 0.1972-8.275-0.756-8.267 0.9614-8.275 0.0411-8.267 0.189-8.275-0.493-8.267 0.3205-8.275-0.4437c-7.385 0-11.08-3.692-11.13-11.08z" opacity=".25" stroke-linecap="round" stroke-width="2"/>
     <path d="m669.8 185.6 0.0657 2.49-0.1972 2.498 0.0164 2.49 0.0904 2.49c0 7.385-3.692 11.08-11.08 11.36l-8.275-0.7724-8.267 0.4602-8.275 8e-3 -8.267 0.1972-8.275-0.756-8.267 0.9614-8.275 0.0411-8.267 0.189-8.275-0.493-8.267 0.3205-8.275-0.4437c-7.385 0-11.08-3.692-11.13-11.08l0.2424-2.49-0.1233-2.49-0.115-2.498 0.0164-2.49 0.0329-2.49c0-7.385 3.692-11.08 11.08-11.01l8.275-0.2506 8.267 0.2383 8.275-0.1068 8.267 0.4848 8.275-1.044 8.267 0.6738 8.275 0.378 8.267-0.6245 8.275 0.5999 8.267-0.8135 8.275 0.3944c7.385 0 11.08 3.692 10.98 11.08z" fill="#bee9fe" stroke="#32afed" stroke-linecap="round" stroke-width="2"/>
     <text x="612.73358" y="193.86458" fill="#3b57a6" font-size="14px" text-anchor="middle">telegram bot</text>
    </g>
   </g>
  </g>
  <g transform="translate(7.888 -41.82)">
   <g transform="matrix(1.063 0 0 1.063 -22.92 -16.3)">
    <path d="m492.3 174.3c7.385 0 11.08 3.692 10.98 11.08l0.1213 2.498 0.0657 2.49-0.1972 2.498 0.0164 2.49 0.0904 2.49c0 7.385-3.692 11.08-11.08 11.36l-8.275-0.7724-8.267 0.4602-8.275 8e-3 -8.267 0.1972-8.275-0.756-8.267 0.9614-8.275 0.0411-8.267 0.189-8.275-0.493-8.267 0.3205-8.275-0.4437c-7.385 0-11.08-3.692-11.13-11.08z" opacity=".25" stroke-linecap="round" stroke-width="2"/>
    <path d="m501.8 185.4 0.0657 2.49-0.1972 2.498 0.0164 2.49 0.0904 2.49c0 7.385-3.692 11.08-11.08 11.36l-8.275-0.7724-8.267 0.4602-8.275 8e-3 -8.267 0.1972-8.275-0.756-8.267 0.9614-8.275 0.0411-8.267 0.189-8.275-0.493-8.267 0.3205-8.275-0.4437c-7.385 0-11.08-3.692-11.13-11.08l0.2424-2.49-0.1233-2.49-0.115-2.498 0.0164-2.49 0.0329-2.49c0-7.385 3.692-11.08 11.08-11.01l8.275-0.2506 8.267 0.2383 8.275-0.1068 8.267 0.4848 8.275-1.044 8.267 0.6738 8.275 0.378 8.267-0.6245 8.275 0.5999 8.267-0.8135 8.275 0.3944c7.385 0 11.08 3.692 10.98 11.08z" fill="#d0e2ff" stroke="#1d95fe" stroke-linecap="round" stroke-width="2"/>
    <text x="444.76929" y="193.70645" fill="#3b57a6" font-size="14px" text-anchor="middle">docker hub</text>
   </g>
  </g>
  <g transform="matrix(1.063 0 0 1.063 -15.04 -59.04)">
   <path d="m492.3 254.7c7.385 0 11.08 3.692 10.98 11.08l0.1213 2.498 0.0657 2.49-0.1972 2.498 0.0164 2.49 0.0904 2.49c0 7.385-3.692 11.08-11.08 11.36l-8.275-0.7724-8.267 0.4602-8.275 8e-3 -8.267 0.1972-8.275-0.756-8.267 0.9614-8.275 0.0411-8.267 0.189-8.275-0.493-8.267 0.3205-8.275-0.4437c-7.385 0-11.08-3.692-11.13-11.08z" opacity=".25" stroke-linecap="round" stroke-width="2"/>
   <path d="m501.8 265.9 0.0657 2.49-0.1972 2.498 0.0164 2.49 0.0904 2.49c0 7.385-3.692 11.08-11.08 11.36l-8.275-0.7724-8.267 0.4602-8.275 8e-3 -8.267 0.1972-8.275-0.756-8.267 0.9614-8.275 0.0411-8.267 0.189-8.275-0.493-8.267 0.3205-8.275-0.4437c-7.385 0-11.08-3.692-11.13-11.08l0.2424-2.49-0.1233-2.49-0.115-2.498 0.0164-2.49 0.0329-2.49c0-7.385 3.692-11.08 11.08-11.01l8.275-0.2506 8.267 0.2383 8.275-0.1068 8.267 0.4848 8.275-1.044 8.267 0.6738 8.275 0.378 8.267-0.6245 8.275 0.5999 8.267-0.8135 8.275 0.3944c7.385 0 11.08 3.692 10.98 11.08z" fill="#feeeff" stroke="#e14bdd" stroke-linecap="round" stroke-width="2"/>
   <text x="444.76929" y="274.12967" fill="#3b57a6" font-size="14px" text-anchor="middle">vercel</text>
  </g>
  <g transform="matrix(1.063 0 0 1.063 -15.04 25.32)">
   <path d="m492.3 334.5c7.385 0 11.08 3.692 10.98 11.08l0.1213 2.498 0.0657 2.49-0.1972 2.498 0.0164 2.49 0.0904 2.49c0 7.385-3.692 11.08-11.08 11.36l-8.275-0.7724-8.267 0.4602-8.275 8e-3 -8.267 0.1972-8.275-0.756-8.267 0.9614-8.275 0.0411-8.267 0.189-8.275-0.493-8.267 0.3205-8.275-0.4437c-7.385 0-11.08-3.692-11.13-11.08z" opacity=".25" stroke-linecap="round" stroke-width="2"/>
   <path d="m501.8 345.6 0.0657 2.49-0.1972 2.498 0.0164 2.49 0.0904 2.49c0 7.385-3.692 11.08-11.08 11.36l-8.275-0.7724-8.267 0.4602-8.275 8e-3 -8.267 0.1972-8.275-0.756-8.267 0.9614-8.275 0.0411-8.267 0.189-8.275-0.493-8.267 0.3205-8.275-0.4437c-7.385 0-11.08-3.692-11.13-11.08l0.2424-2.49-0.1233-2.49-0.115-2.498 0.0164-2.49 0.0329-2.49c0-7.385 3.692-11.08 11.08-11.01l8.275-0.2506 8.267 0.2383 8.275-0.1068 8.267 0.4848 8.275-1.044 8.267 0.6738 8.275 0.378 8.267-0.6245 8.275 0.5999 8.267-0.8135 8.275 0.3944c7.385 0 11.08 3.692 10.98 11.08z" fill="#deedff" stroke="#7ea6e0" stroke-linecap="round" stroke-width="2"/>
   <text x="444.76929" y="353.85925" fill="#3b57a6" font-size="14px" text-anchor="middle">github</text>
  </g>
  <g transform="matrix(1.063 0 0 1.063 -15.04 24.82)">
   <path d="m492.3 414.5c7.385 0 11.08 3.692 10.98 11.08l0.1213 2.498 0.0657 2.49-0.1972 2.498 0.0164 2.49 0.0904 2.49c0 7.385-3.692 11.08-11.08 11.36l-8.275-0.7724-8.267 0.4602-8.275 8e-3 -8.267 0.1972-8.275-0.756-8.267 0.9614-8.275 0.0411-8.267 0.189-8.275-0.493-8.267 0.3205-8.275-0.4437c-7.385 0-11.08-3.692-11.13-11.08z" opacity=".25" stroke-linecap="round" stroke-width="2"/>
   <path d="m501.8 425.7 0.0657 2.49-0.1972 2.498 0.0164 2.49 0.0904 2.49c0 7.385-3.692 11.08-11.08 11.36l-8.275-0.7724-8.267 0.4602-8.275 8e-3 -8.267 0.1972-8.275-0.756-8.267 0.9614-8.275 0.0411-8.267 0.189-8.275-0.493-8.267 0.3205-8.275-0.4437c-7.385 0-11.08-3.692-11.13-11.08l0.2424-2.49-0.1233-2.49-0.115-2.498 0.0164-2.49 0.0329-2.49c0-7.385 3.692-11.08 11.08-11.01l8.275-0.2506 8.267 0.2383 8.275-0.1068 8.267 0.4848 8.275-1.044 8.267 0.6738 8.275 0.378 8.267-0.6245 8.275 0.5999 8.267-0.8135 8.275 0.3944c7.385 0 11.08 3.692 10.98 11.08z" fill="#f0fff5" stroke="#3fe4bc" stroke-linecap="round" stroke-width="2"/>
   <text x="444.76929" y="433.93564" fill="#3b57a6" font-size="14px" text-anchor="middle">gitea</text>
  </g>
  <g transform="matrix(1.063 0 0 1.063 -15.04 -144.4)">
   <path d="m492.3 414.5c7.385 0 11.08 3.692 10.98 11.08l0.1213 2.498 0.0657 2.49-0.1972 2.498 0.0164 2.49 0.0904 2.49c0 7.385-3.692 11.08-11.08 11.36l-8.275-0.7724-8.267 0.4602-8.275 8e-3 -8.267 0.1972-8.275-0.756-8.267 0.9614-8.275 0.0411-8.267 0.189-8.275-0.493-8.267 0.3205-8.275-0.4437c-7.385 0-11.08-3.692-11.13-11.08z" opacity=".25" stroke-linecap="round" stroke-width="2"/>
   <path d="m501.8 425.7 0.0657 2.49-0.1972 2.498 0.0164 2.49 0.0904 2.49c0 7.385-3.692 11.08-11.08 11.36l-8.275-0.7724-8.267 0.4602-8.275 8e-3 -8.267 0.1972-8.275-0.756-8.267 0.9614-8.275 0.0411-8.267 0.189-8.275-0.493-8.267 0.3205-8.275-0.4437c-7.385 0-11.08-3.692-11.13-11.08l0.2424-2.49-0.1233-2.49-0.115-2.498 0.0164-2.49 0.0329-2.49c0-7.385 3.692-11.08 11.08-11.01l8.275-0.2506 8.267 0.2383 8.275-0.1068 8.267 0.4848 8.275-1.044 8.267 0.6738 8.275 0.378 8.267-0.6245 8.275 0.5999 8.267-0.8135 8.275 0.3944c7.385 0 11.08 3.692 10.98 11.08z" fill="#ffe9ce" stroke="#f6941f" stroke-linecap="round" stroke-width="2"/>
   <text x="444.76929" y="433.93564" fill="#3b57a6" font-size="14px" text-anchor="middle">cloudflare</text>
  </g>
 </g>
</svg>
