<?xml version="1.0" encoding="UTF-8"?>
<svg version="1.1" viewBox="15 0 691 541" xmlns="http://www.w3.org/2000/svg">
 <g transform="translate(-19.78 -10.73)">
  <g transform="matrix(1.063 0 0 1.063 -2.442 -5.487)" stroke="#8db9ff" stroke-linecap="round" stroke-width="2">
   <path d="m341.5 270.5h38.18" fill="none"/>
   <path d="m338.3 273.8-3.32-3.32 3.287-3.287 3.287 3.287z" fill="none" stroke-linejoin="round"/>
   <path d="m386.2 270.5-6.738 2.194 0.1563-4.421z" fill="#8db9ff" stroke-linejoin="round"/>
  </g>
  <g transform="matrix(1.063 0 0 1.063 176 -91.23)" stroke="#8db9ff" stroke-linecap="round" stroke-width="2">
   <path d="m341.5 270.5h38.18" fill="none"/>
   <path d="m338.3 273.8-3.32-3.32 3.287-3.287 3.287 3.287z" fill="none" stroke-linejoin="round"/>
   <path d="m386.2 270.5-6.738 2.194 0.1563-4.421z" fill="#8db9ff" stroke-linejoin="round"/>
  </g>
  <g transform="matrix(1.063 0 0 1.063 176 -176.4)" stroke="#8db9ff" stroke-linecap="round" stroke-width="2">
   <path d="m341.5 270.5h38.18" fill="none"/>
   <path d="m338.3 273.8-3.32-3.32 3.287-3.287 3.287 3.287z" fill="none" stroke-linejoin="round"/>
   <path d="m386.2 270.5-6.738 2.194 0.1563-4.421z" fill="#8db9ff" stroke-linejoin="round"/>
  </g>
  <g transform="matrix(1.063 0 0 1.063 -1.019 -7.767)" stroke="#8db9ff" stroke-linecap="round" stroke-width="2">
   <path d="m336.9 153.7-3.32-3.32 3.287-3.287 3.287 3.287z" fill="none" stroke-linejoin="round"/>
   <path d="m384.9 110.2-6.738 2.194 0.1563-4.421z" fill="#8db9ff" stroke-linejoin="round"/>
   <path d="m340.2 150.4h3.854c5.478 0 8.217-2.772 8.217-8.25v-23.95c0-5.478 2.739-8.217 8.217-8.217l18.73 0.1563" fill="none"/>
   <path d="m384.9 190.7-6.738-2.194 0.1563 4.421z" fill="#8db9ff" stroke-linejoin="round"/>
   <path d="m344.1 150.4c5.478 0 8.217 2.772 8.217 8.25v23.95c0 5.478 2.739 8.217 8.217 8.217l18.73-0.1563" fill="none"/>
  </g>
  <g transform="matrix(1.063 0 0 1.063 -1.019 249.9)" stroke="#8db9ff" stroke-linecap="round" stroke-width="2">
   <path d="m336.9 153.7-3.32-3.32 3.287-3.287 3.287 3.287z" fill="none" stroke-linejoin="round"/>
   <path d="m384.9 110.2-6.738 2.194 0.1563-4.421z" fill="#8db9ff" stroke-linejoin="round"/>
   <path d="m340.2 150.4h3.854c5.478 0 8.217-2.772 8.217-8.25v-23.95c0-5.478 2.739-8.217 8.217-8.217l18.73 0.1563" fill="none"/>
   <path d="m384.9 190.7-6.738-2.194 0.1563 4.421z" fill="#8db9ff" stroke-linejoin="round"/>
   <path d="m344.1 150.4c5.478 0 8.217 2.772 8.217 8.25v23.95c0 5.478 2.739 8.217 8.217 8.217l18.73-0.1563" fill="none"/>
  </g>
  <g transform="matrix(1.063 0 0 1.063 -3.146 -6.131)">
   <g stroke="#8db9ff" stroke-linecap="round" stroke-width="2">
    <path d="m172.8 271.3h38.27" fill="none"/>
    <g stroke-linejoin="round">
     <path d="m169.6 274.6-3.32-3.32 3.287-3.287 3.287 3.287z" fill="none"/>
     <path d="m217.5 271.3-6.738 2.194 0.1563-4.421z" fill="#8db9ff"/>
     <path d="m217.5 392.6-6.738-2.194 0.1563 4.421z" fill="#8db9ff"/>
    </g>
    <path d="m176.7 271.3c5.478 0 8.217 2.772 8.217 8.25v105.1c0 5.478 2.739 8.217 8.217 8.217l18.73-0.1563" fill="none"/>
    <path d="m217.5 149.9-6.738 2.194 0.1563-4.421z" fill="#8db9ff" stroke-linejoin="round"/>
    <path d="m176.7 271.3c5.478 0 8.217-2.772 8.217-8.25v-105.1c0-5.478 2.739-8.217 8.217-8.217l18.73 0.1563" fill="none"/>
   </g>
  </g>
  <g transform="matrix(1.063 0 0 1.063 -3.144 -5.309)">
   <g stroke-linecap="round" stroke-width="2">
    <path d="m155.1 254.7c7.385 0 11.08 3.692 10.98 11.08l0.1213 2.498 0.0657 2.49-0.1972 2.498 0.0164 2.49 0.0904 2.49c0 7.385-3.692 11.08-11.08 11.36l-8.275-0.7724-8.267 0.4602-8.275 8e-3 -8.267 0.1972-8.275-0.756-8.267 0.9614-8.275 0.0411-8.267 0.189-8.275-0.493-8.267 0.3205-8.275-0.4437c-7.385 0-11.08-3.692-11.13-11.08z" opacity=".25"/>
    <path d="m164.5 265.9 0.0657 2.49-0.1972 2.498 0.0164 2.49 0.0904 2.49c0 7.385-3.692 11.08-11.08 11.36l-8.275-0.7724-8.267 0.4602-8.275 8e-3 -8.267 0.1972-8.275-0.756-8.267 0.9614-8.275 0.0411-8.267 0.189-8.275-0.493-8.267 0.3205-8.275-0.4437c-7.385 0-11.08-3.692-11.13-11.08l0.2424-2.49-0.1233-2.49-0.115-2.498 0.01643-2.49 0.03287-2.49c0-7.385 3.692-11.08 11.08-11.01l8.275-0.2506 8.267 0.2383 8.275-0.1068 8.267 0.4848 8.275-1.044 8.267 0.6738 8.275 0.378 8.267-0.6245 8.275 0.5999 8.267-0.8135 8.275 0.3944c7.385 0 11.08 3.692 10.98 11.08z" fill="#fff9e7" stroke="#ffcd5a"/>
   </g>
   <text x="107.53199" y="274.12967" fill="#3b57a6" font-size="14px" text-anchor="middle">gitLab</text>
   <path d="m323.8 254.7c7.385 0 11.08 3.692 10.98 11.08l0.1213 2.498 0.0657 2.49-0.1972 2.498 0.0164 2.49 0.0904 2.49c0 7.385-3.692 11.08-11.08 11.36l-8.275-0.7724-8.267 0.4602-8.275 8e-3 -8.267 0.1972-8.275-0.756-8.267 0.9614-8.275 0.0411-8.267 0.189-8.275-0.493-8.267 0.3205-8.275-0.4437c-7.385 0-11.08-3.692-11.13-11.08z" opacity=".25" stroke-linecap="round" stroke-width="2"/>
   <path d="m333.3 265.9 0.0657 2.49-0.1972 2.498 0.0164 2.49 0.0904 2.49c0 7.385-3.692 11.08-11.08 11.36l-8.275-0.7724-8.267 0.4602-8.275 8e-3 -8.267 0.1972-8.275-0.756-8.267 0.9614-8.275 0.0411-8.267 0.189-8.275-0.493-8.267 0.3205-8.275-0.4437c-7.385 0-11.08-3.692-11.13-11.08l0.2424-2.49-0.1233-2.49-0.115-2.498 0.0164-2.49 0.0329-2.49c0-7.385 3.692-11.08 11.08-11.01l8.275-0.2506 8.267 0.2383 8.275-0.1068 8.267 0.4848 8.275-1.044 8.267 0.6738 8.275 0.378 8.267-0.6245 8.275 0.5999 8.267-0.8135 8.275 0.3944c7.385 0 11.08 3.692 10.98 11.08z" fill="#feeeff" stroke="#e14bdd" stroke-linecap="round" stroke-width="2"/>
   <text x="276.2973" y="274.12967" fill="#3b57a6" font-size="14px" text-anchor="middle">webhook</text>
  </g>
  <g transform="matrix(1.063 0 0 1.063 -3.144 -5.641)">
   <path d="m323.8 377.8c7.385 0 11.08 3.692 10.98 11.08l0.1213 2.498 0.0657 2.49-0.1972 2.498 0.0164 2.49 0.0904 2.49c0 7.385-3.692 11.08-11.08 11.36l-8.275-0.7724-8.267 0.4602-8.275 8e-3 -8.267 0.1972-8.275-0.756-8.267 0.9614-8.275 0.0411-8.267 0.189-8.275-0.493-8.267 0.3205-8.275-0.4437c-7.385 0-11.08-3.692-11.13-11.08z" opacity=".25" stroke-linecap="round" stroke-width="2"/>
   <path d="m333.3 388.9 0.0657 2.49-0.1972 2.498 0.0164 2.49 0.0904 2.49c0 7.385-3.692 11.08-11.08 11.36l-8.275-0.7724-8.267 0.4602-8.275 8e-3 -8.267 0.1972-8.275-0.756-8.267 0.9614-8.275 0.0411-8.267 0.189-8.275-0.493-8.267 0.3205-8.275-0.4437c-7.385 0-11.08-3.692-11.13-11.08l0.2424-2.49-0.1233-2.49-0.115-2.498 0.0164-2.49 0.0329-2.49c0-7.385 3.692-11.08 11.08-11.01l8.275-0.2506 8.267 0.2383 8.275-0.1068 8.267 0.4848 8.275-1.044 8.267 0.6738 8.275 0.378 8.267-0.6245 8.275 0.5999 8.267-0.8135 8.275 0.3944c7.385 0 11.08 3.692 10.98 11.08z" fill="#e7e7ff" stroke="#6c6cd9" stroke-linecap="round" stroke-width="2"/>
   <text x="276.2973" y="397.1467" fill="#3b57a6" font-size="14px" text-anchor="middle">repo sync</text>
   <path d="m323.8 134.3c7.385 0 11.08 3.692 10.98 11.08l0.1213 2.498 0.0657 2.49-0.1972 2.498 0.0164 2.49 0.0904 2.49c0 7.385-3.692 11.08-11.08 11.36l-8.275-0.7724-8.267 0.4602-8.275 8e-3 -8.267 0.1972-8.275-0.756-8.267 0.9614-8.275 0.0411-8.267 0.189-8.275-0.493-8.267 0.3205-8.275-0.4437c-7.385 0-11.08-3.692-11.13-11.08z" opacity=".25" stroke-linecap="round" stroke-width="2"/>
   <path d="m333.3 145.4 0.0657 2.49-0.1972 2.498 0.0164 2.49 0.0904 2.49c0 7.385-3.692 11.08-11.08 11.36l-8.275-0.7724-8.267 0.4602-8.275 8e-3 -8.267 0.1972-8.275-0.756-8.267 0.9614-8.275 0.0411-8.267 0.189-8.275-0.493-8.267 0.3205-8.275-0.4437c-7.385 0-11.08-3.692-11.13-11.08l0.2424-2.49-0.1233-2.49-0.115-2.498 0.0164-2.49 0.0329-2.49c0-7.385 3.692-11.08 11.08-11.01l8.275-0.2506 8.267 0.2383 8.275-0.1068 8.267 0.4848 8.275-1.044 8.267 0.6738 8.275 0.378 8.267-0.6245 8.275 0.5999 8.267-0.8135 8.275 0.3944c7.385 0 11.08 3.692 10.98 11.08z" fill="#f0fff5" stroke="#3ce4bb" stroke-linecap="round" stroke-width="2"/>
   <text x="276.2973" y="153.69217" fill="#3b57a6" font-size="14px" text-anchor="middle">pipelines build</text>
   <path d="m492.3 94.22c7.385 0 11.08 3.692 10.98 11.08l0.1213 2.498 0.0657 2.49-0.1972 2.498 0.0164 2.49 0.0904 2.49c0 7.385-3.692 11.08-11.08 11.36l-8.275-0.7724-8.267 0.4602-8.275 8e-3 -8.267 0.1972-8.275-0.756-8.267 0.9614-8.275 0.0411-8.267 0.189-8.275-0.493-8.267 0.3205-8.275-0.4437c-7.385 0-11.08-3.692-11.13-11.08z" opacity=".25" stroke-linecap="round" stroke-width="2"/>
   <path d="m501.8 105.4 0.0657 2.49-0.1972 2.498 0.0164 2.49 0.0904 2.49c0 7.385-3.692 11.08-11.08 11.36l-8.275-0.7724-8.267 0.4602-8.275 8e-3 -8.267 0.1972-8.275-0.756-8.267 0.9614-8.275 0.0411-8.267 0.189-8.275-0.493-8.267 0.3205-8.275-0.4437c-7.385 0-11.08-3.692-11.13-11.08l0.2424-2.49-0.1233-2.49-0.115-2.498 0.0164-2.49 0.0329-2.49c0-7.385 3.692-11.08 11.08-11.01l8.275-0.2506 8.267 0.2383 8.275-0.1068 8.267 0.4848 8.275-1.044 8.267 0.6738 8.275 0.378 8.267-0.6245 8.275 0.5999 8.267-0.8135 8.275 0.3944c7.385 0 11.08 3.692 10.98 11.08z" fill="#d5fff5" stroke="#69e5d6" stroke-linecap="round" stroke-width="2"/>
   <text x="444.76929" y="113.63005" fill="#3b57a6" font-size="14px" text-anchor="middle">gitlab page</text>
   <path d="m660.3 94.22c7.385 0 11.08 3.692 10.98 11.08l0.1213 2.498 0.0657 2.49-0.1972 2.498 0.0164 2.49 0.0904 2.49c0 7.385-3.692 11.08-11.08 11.36l-8.275-0.7724-8.267 0.4602-8.275 8e-3 -8.267 0.1972-8.275-0.756-8.267 0.9614-8.275 0.0411-8.267 0.189-8.275-0.493-8.267 0.3205-8.275-0.4437c-7.385 0-11.08-3.692-11.13-11.08z" opacity=".25" stroke-linecap="round" stroke-width="2"/>
   <path d="m669.8 105.4 0.0657 2.49-0.1972 2.498 0.0164 2.49 0.0904 2.49c0 7.385-3.692 11.08-11.08 11.36l-8.275-0.7724-8.267 0.4602-8.275 8e-3 -8.267 0.1972-8.275-0.756-8.267 0.9614-8.275 0.0411-8.267 0.189-8.275-0.493-8.267 0.3205-8.275-0.4437c-7.385 0-11.08-3.692-11.13-11.08l0.2424-2.49-0.1233-2.49-0.115-2.498 0.0164-2.49 0.0329-2.49c0-7.385 3.692-11.08 11.08-11.01l8.275-0.2506 8.267 0.2383 8.275-0.1068 8.267 0.4848 8.275-1.044 8.267 0.6738 8.275 0.378 8.267-0.6245 8.275 0.5999 8.267-0.8135 8.275 0.3944c7.385 0 11.08 3.692 10.98 11.08z" fill="#bee9fe" stroke="#32afed" stroke-linecap="round" stroke-width="2"/>
   <text x="612.73358" y="113.63004" fill="#3b57a6" font-size="14px" text-anchor="middle">telegram bot</text>
  </g>
  <g transform="matrix(1.063 0 0 1.063 -3.144 -5.788)">
   <path d="m660.3 174.5c7.385 0 11.08 3.692 10.98 11.08l0.1213 2.498 0.0657 2.49-0.1972 2.498 0.0164 2.49 0.0904 2.49c0 7.385-3.692 11.08-11.08 11.36l-8.275-0.7724-8.267 0.4602-8.275 8e-3 -8.267 0.1972-8.275-0.756-8.267 0.9614-8.275 0.0411-8.267 0.189-8.275-0.493-8.267 0.3205-8.275-0.4437c-7.385 0-11.08-3.692-11.13-11.08z" opacity=".25" stroke-linecap="round" stroke-width="2"/>
   <path d="m669.8 185.6 0.0657 2.49-0.1972 2.498 0.0164 2.49 0.0904 2.49c0 7.385-3.692 11.08-11.08 11.36l-8.275-0.7724-8.267 0.4602-8.275 8e-3 -8.267 0.1972-8.275-0.756-8.267 0.9614-8.275 0.0411-8.267 0.189-8.275-0.493-8.267 0.3205-8.275-0.4437c-7.385 0-11.08-3.692-11.13-11.08l0.2424-2.49-0.1233-2.49-0.115-2.498 0.0164-2.49 0.0329-2.49c0-7.385 3.692-11.08 11.08-11.01l8.275-0.2506 8.267 0.2383 8.275-0.1068 8.267 0.4848 8.275-1.044 8.267 0.6738 8.275 0.378 8.267-0.6245 8.275 0.5999 8.267-0.8135 8.275 0.3944c7.385 0 11.08 3.692 10.98 11.08z" fill="#bee9fe" stroke="#32afed" stroke-linecap="round" stroke-width="2"/>
   <text x="612.73358" y="193.86458" fill="#3b57a6" font-size="14px" text-anchor="middle">telegram bot</text>
  </g>
  <g transform="matrix(1.063 0 0 1.063 -3.144 -5.575)">
   <path d="m492.3 174.3c7.385 0 11.08 3.692 10.98 11.08l0.1213 2.498 0.0657 2.49-0.1972 2.498 0.0164 2.49 0.0904 2.49c0 7.385-3.692 11.08-11.08 11.36l-8.275-0.7724-8.267 0.4602-8.275 8e-3 -8.267 0.1972-8.275-0.756-8.267 0.9614-8.275 0.0411-8.267 0.189-8.275-0.493-8.267 0.3205-8.275-0.4437c-7.385 0-11.08-3.692-11.13-11.08z" opacity=".25" stroke-linecap="round" stroke-width="2"/>
   <path d="m501.8 185.4 0.0657 2.49-0.1972 2.498 0.0164 2.49 0.0904 2.49c0 7.385-3.692 11.08-11.08 11.36l-8.275-0.7724-8.267 0.4602-8.275 8e-3 -8.267 0.1972-8.275-0.756-8.267 0.9614-8.275 0.0411-8.267 0.189-8.275-0.493-8.267 0.3205-8.275-0.4437c-7.385 0-11.08-3.692-11.13-11.08l0.2424-2.49-0.1233-2.49-0.115-2.498 0.0164-2.49 0.0329-2.49c0-7.385 3.692-11.08 11.08-11.01l8.275-0.2506 8.267 0.2383 8.275-0.1068 8.267 0.4848 8.275-1.044 8.267 0.6738 8.275 0.378 8.267-0.6245 8.275 0.5999 8.267-0.8135 8.275 0.3944c7.385 0 11.08 3.692 10.98 11.08z" fill="#ffecf1" stroke="#ff8987" stroke-linecap="round" stroke-width="2"/>
   <text x="444.76929" y="193.70645" fill="#3b57a6" font-size="14px" text-anchor="middle">docker hub</text>
  </g>
  <g transform="matrix(1.063 0 0 1.063 -3.144 -5.309)">
   <path d="m492.3 254.7c7.385 0 11.08 3.692 10.98 11.08l0.1213 2.498 0.0657 2.49-0.1972 2.498 0.0164 2.49 0.0904 2.49c0 7.385-3.692 11.08-11.08 11.36l-8.275-0.7724-8.267 0.4602-8.275 8e-3 -8.267 0.1972-8.275-0.756-8.267 0.9614-8.275 0.0411-8.267 0.189-8.275-0.493-8.267 0.3205-8.275-0.4437c-7.385 0-11.08-3.692-11.13-11.08z" opacity=".25" stroke-linecap="round" stroke-width="2"/>
   <path d="m501.8 265.9 0.0657 2.49-0.1972 2.498 0.0164 2.49 0.0904 2.49c0 7.385-3.692 11.08-11.08 11.36l-8.275-0.7724-8.267 0.4602-8.275 8e-3 -8.267 0.1972-8.275-0.756-8.267 0.9614-8.275 0.0411-8.267 0.189-8.275-0.493-8.267 0.3205-8.275-0.4437c-7.385 0-11.08-3.692-11.13-11.08l0.2424-2.49-0.1233-2.49-0.115-2.498 0.0164-2.49 0.0329-2.49c0-7.385 3.692-11.08 11.08-11.01l8.275-0.2506 8.267 0.2383 8.275-0.1068 8.267 0.4848 8.275-1.044 8.267 0.6738 8.275 0.378 8.267-0.6245 8.275 0.5999 8.267-0.8135 8.275 0.3944c7.385 0 11.08 3.692 10.98 11.08z" fill="#feeeff" stroke="#e14bdd" stroke-linecap="round" stroke-width="2"/>
   <text x="444.76929" y="274.12967" fill="#3b57a6" font-size="14px" text-anchor="middle">vercel site</text>
  </g>
  <g transform="matrix(1.063 0 0 1.063 -3.144 -5.668)">
   <path d="m492.3 334.5c7.385 0 11.08 3.692 10.98 11.08l0.1213 2.498 0.0657 2.49-0.1972 2.498 0.0164 2.49 0.0904 2.49c0 7.385-3.692 11.08-11.08 11.36l-8.275-0.7724-8.267 0.4602-8.275 8e-3 -8.267 0.1972-8.275-0.756-8.267 0.9614-8.275 0.0411-8.267 0.189-8.275-0.493-8.267 0.3205-8.275-0.4437c-7.385 0-11.08-3.692-11.13-11.08z" opacity=".25" stroke-linecap="round" stroke-width="2"/>
   <path d="m501.8 345.6 0.0657 2.49-0.1972 2.498 0.0164 2.49 0.0904 2.49c0 7.385-3.692 11.08-11.08 11.36l-8.275-0.7724-8.267 0.4602-8.275 8e-3 -8.267 0.1972-8.275-0.756-8.267 0.9614-8.275 0.0411-8.267 0.189-8.275-0.493-8.267 0.3205-8.275-0.4437c-7.385 0-11.08-3.692-11.13-11.08l0.2424-2.49-0.1233-2.49-0.115-2.498 0.0164-2.49 0.0329-2.49c0-7.385 3.692-11.08 11.08-11.01l8.275-0.2506 8.267 0.2383 8.275-0.1068 8.267 0.4848 8.275-1.044 8.267 0.6738 8.275 0.378 8.267-0.6245 8.275 0.5999 8.267-0.8135 8.275 0.3944c7.385 0 11.08 3.692 10.98 11.08z" fill="#deedff" stroke="#7ea6e0" stroke-linecap="round" stroke-width="2"/>
   <text x="444.76929" y="353.85925" fill="#3b57a6" font-size="14px" text-anchor="middle">github</text>
  </g>
  <g transform="matrix(1.063 0 0 1.063 -3.144 -5.641)">
   <path d="m492.3 414.5c7.385 0 11.08 3.692 10.98 11.08l0.1213 2.498 0.0657 2.49-0.1972 2.498 0.0164 2.49 0.0904 2.49c0 7.385-3.692 11.08-11.08 11.36l-8.275-0.7724-8.267 0.4602-8.275 8e-3 -8.267 0.1972-8.275-0.756-8.267 0.9614-8.275 0.0411-8.267 0.189-8.275-0.493-8.267 0.3205-8.275-0.4437c-7.385 0-11.08-3.692-11.13-11.08z" opacity=".25" stroke-linecap="round" stroke-width="2"/>
   <path d="m501.8 425.7 0.0657 2.49-0.1972 2.498 0.0164 2.49 0.0904 2.49c0 7.385-3.692 11.08-11.08 11.36l-8.275-0.7724-8.267 0.4602-8.275 8e-3 -8.267 0.1972-8.275-0.756-8.267 0.9614-8.275 0.0411-8.267 0.189-8.275-0.493-8.267 0.3205-8.275-0.4437c-7.385 0-11.08-3.692-11.13-11.08l0.2424-2.49-0.1233-2.49-0.115-2.498 0.0164-2.49 0.0329-2.49c0-7.385 3.692-11.08 11.08-11.01l8.275-0.2506 8.267 0.2383 8.275-0.1068 8.267 0.4848 8.275-1.044 8.267 0.6738 8.275 0.378 8.267-0.6245 8.275 0.5999 8.267-0.8135 8.275 0.3944c7.385 0 11.08 3.692 10.98 11.08z" fill="#f0fff5" stroke="#3fe4bc" stroke-linecap="round" stroke-width="2"/>
   <text x="444.76929" y="433.93564" fill="#3b57a6" font-size="14px" text-anchor="middle">gitea</text>
  </g>
 </g>
</svg>
