<?xml version="1.0" encoding="UTF-8"?>
<svg version="1.1" viewBox="15 0 691 541" xmlns="http://www.w3.org/2000/svg">
 <g fill="none" stroke-linecap="round" stroke-width="2">
  <path d="m342.1 273.8 3.854-0.1972h16.43v-0.1726l3.772 0.0822 3.772 0.0493 3.764 0.0411 3.772-0.0329 3.764 0.0329" opacity=".25"/>
  <path d="m340.5 271.4 3.854-0.1972h16.43v-0.1726l3.772 0.0822 3.772 0.0493 3.764 0.0411 3.772-0.0329 3.764 0.0329" stroke="#8db9ff"/>
  <path d="m334.6 271.2 0.0493 0.0493 0.5095-0.8053 0.6245-0.6902 0.8628-0.452 0.7231-0.5916 0.5177-0.7971 3.287 3.287-0.0411-0.0411-0.5177 0.7971-0.8875 0.4273-0.493 0.8217-0.682 0.6327-0.6656 0.6492 0.0329 0.0329z" stroke="#8db9ff"/>
 </g>
 <path d="m386.2 271.2-0.0329-0.0986-1.257 0.6081-1.348 0.3369-1.249 0.6327-1.315 0.4355-1.372 0.2794h-0.1644l0.1726-0.8792-0.0986-0.8793 0.2136-0.871-0.3205-0.8793 0.1972-0.8792-8e-3 -0.0329 1.265 0.2958 1.405 0.6985 1.241 0.2219 1.422 0.756z" fill="#8db9ff" stroke="#8db9ff" stroke-linecap="round" stroke-width="2"/>
 <g fill="none" stroke-linecap="round" stroke-width="2">
  <path d="m510.9 113 3.854-0.1972h16.43v-0.1726l3.772 0.0822 3.772 0.0493 3.764 0.0411 3.772-0.0329 3.764 0.0329" opacity=".25"/>
  <path d="m509.3 110.5 3.854-0.1972h16.43v-0.1726l3.772 0.0822 3.772 0.0493 3.764 0.0411 3.772-0.0329 3.764 0.0329" stroke="#8db9ff"/>
  <path d="m503.4 110.3 0.0493 0.0493 0.5095-0.8053 0.6245-0.6902 0.8628-0.452 0.7231-0.5916 0.5177-0.7971 3.287 3.287-0.0411-0.0411-0.5177 0.7971-0.8875 0.4273-0.493 0.8217-0.682 0.6327-0.6656 0.6492 0.0329 0.0329z" stroke="#8db9ff"/>
 </g>
 <path d="m555 110.3-0.0329-0.0986-1.257 0.6081-1.348 0.3369-1.249 0.6327-1.315 0.4355-1.372 0.2794h-0.1644l0.1726-0.8792-0.0986-0.8792 0.2136-0.871-0.3205-0.8792 0.1972-0.8793-8e-3 -0.0329 1.265 0.2958 1.405 0.6985 1.241 0.2219 1.422 0.756z" fill="#8db9ff" stroke="#8db9ff" stroke-linecap="round" stroke-width="2"/>
 <g fill="none" stroke-linecap="round" stroke-width="2">
  <path d="m510.9 193.2 3.854-0.1972h16.43v-0.1726l3.772 0.0822 3.772 0.0493 3.764 0.0411 3.772-0.0329 3.764 0.0329" opacity=".25"/>
  <path d="m509.3 190.8 3.854-0.1972h16.43v-0.1726l3.772 0.0822 3.772 0.0493 3.764 0.0411 3.772-0.0329 3.764 0.0329" stroke="#8db9ff"/>
  <path d="m503.4 190.6 0.0493 0.0493 0.5095-0.8053 0.6245-0.6902 0.8628-0.452 0.7231-0.5916 0.5177-0.7971 3.287 3.287-0.0411-0.0411-0.5177 0.7971-0.8875 0.4273-0.493 0.8217-0.682 0.6327-0.6656 0.6492 0.0329 0.0329z" stroke="#8db9ff"/>
 </g>
 <g stroke-linecap="round" stroke-width="2">
  <path d="m555 190.6-0.0329-0.0986-1.257 0.6081-1.348 0.3369-1.249 0.6327-1.315 0.4355-1.372 0.2794h-0.1644l0.1726-0.8792-0.0986-0.8793 0.2136-0.871-0.3205-0.8793 0.1972-0.8792-8e-3 -0.0329 1.265 0.2958 1.405 0.6985 1.241 0.2219 1.422 0.756z" fill="#8db9ff" stroke="#8db9ff"/>
  <path d="m342.1 153 3.854-0.0657c5.478 0 8.217-2.739 8.217-8.217h0.0411l-0.1397-4.791 0.2219-4.791-0.3205-4.782 0.0657-4.791 0.1315-4.791c0-5.478 2.739-8.217 8.217-8.217v0.1479l3.772-0.1315 3.772 0.074 3.764-8e-3 3.772 0.074 3.764-0.1561" fill="none" opacity=".25"/>
  <path d="m340.4 150.5 3.854-0.0657c5.478 0 8.217-2.739 8.217-8.217h0.0411l-0.1397-4.791 0.2219-4.791-0.3205-4.782 0.0657-4.791 0.1315-4.791c0-5.478 2.739-8.217 8.217-8.217v0.1479l3.772-0.1315 3.772 0.0739 3.764-8e-3 3.772 0.074 3.764-0.1561" fill="none" stroke="#8db9ff"/>
  <path d="m386.1 110 8e-3 0.0246-1.381 0.2219-1.2 0.7889-1.364 0.2958-1.348 0.3369-1.29 0.5259h0.0904l-0.2136-0.8793 0.2712-0.8792 0.0164-0.871-0.0904-0.8792-0.074-0.8792 0.0575 0.1726 1.249 0.2465 1.29 0.3451 1.323 0.4684 1.339 0.5095z" fill="#8db9ff" stroke="#8db9ff"/>
 </g>
 <g fill="none" stroke-linecap="round" stroke-width="2">
  <path d="m347.7 153c4.283 0.5608 6.425 3.263 6.425 8.107h0.1726l-0.0493 4.791-0.263 4.782 0.3287 4.791-0.2136 4.791 0.0247 4.791c0 5.478 2.739 8.217 8.217 8.217v0.1561l3.772 0.0164 3.772-0.0411 3.764-0.1561 3.772 0.0986 3.764-0.074" opacity=".25"/>
  <path d="m340.4 150.3 3.854 0.1644c5.478 0 8.217 2.739 8.217 8.217h0.1726l-0.0493 4.791-0.263 4.782 0.3287 4.791-0.2136 4.791 0.0247 4.791c0 5.478 2.739 8.217 8.217 8.217v0.1561l3.772 0.0164 3.772-0.0411 3.764-0.1561 3.772 0.0986 3.764-0.074" stroke="#8db9ff"/>
  <path d="m340.2 150.4-0.7724 0.5423-0.5588 0.7642-0.5834 0.7313-0.7149 0.5999-0.6574 0.6574 0.1315 0.1315-3.418-3.418 0.0822 0.0822 0.6492-0.6656 0.5752-0.7478 0.6985-0.6081 0.5259-0.7971 0.756-0.5506 3.287 3.287" stroke="#8db9ff"/>
 </g>
 <g stroke-linecap="round" stroke-width="2">
  <path d="m386.1 190.8 0.0329 0.0904-1.315 0.4273-1.282 0.5341-1.43 0.0986-1.249 0.641-1.331 0.3944h-0.0411l0.0657-0.871-0.0904-0.8793 0.2301-0.8792-0.3123-0.871 0.1479-0.8792 0.0575 0.1726 1.241 0.2054 1.315 0.4355 1.323 0.4684 1.356 0.5424z" fill="#8db9ff" stroke="#8db9ff"/>
  <path d="m342.1 395.2 3.854-0.0657c5.478 0 8.217-2.739 8.217-8.217h0.0411l-0.1397-4.791 0.2219-4.791-0.3205-4.782 0.0657-4.791 0.1315-4.791c0-5.478 2.739-8.217 8.217-8.217v0.1479l3.772-0.1315 3.772 0.074 3.764-8e-3 3.772 0.074 3.764-0.1561" fill="none" opacity=".25"/>
  <path d="m340.4 392.8 3.854-0.0657c5.478 0 8.217-2.739 8.217-8.217h0.0411l-0.1397-4.791 0.2219-4.791-0.3205-4.782 0.0657-4.791 0.1315-4.791c0-5.478 2.739-8.217 8.217-8.217v0.1479l3.772-0.1315 3.772 0.074 3.764-8e-3 3.772 0.074 3.764-0.1561" fill="none" stroke="#8db9ff"/>
  <path d="m386.1 352.3 8e-3 0.0247-1.381 0.2219-1.2 0.7889-1.364 0.2958-1.348 0.3369-1.29 0.5259h0.0904l-0.2136-0.8793 0.2712-0.8792 0.0164-0.871-0.0904-0.8792-0.074-0.8792 0.0575 0.1726 1.249 0.2465 1.29 0.3451 1.323 0.4684 1.339 0.5095z" fill="#8db9ff" stroke="#8db9ff"/>
 </g>
 <g fill="none" stroke-linecap="round" stroke-width="2">
  <path d="m347.7 395.3c4.283 0.5608 6.425 3.263 6.425 8.107h0.1726l-0.0493 4.791-0.263 4.782 0.3287 4.791-0.2136 4.791 0.0247 4.791c0 5.478 2.739 8.217 8.217 8.217v0.1561l3.772 0.0164 3.772-0.0411 3.764-0.1561 3.772 0.0986 3.764-0.074" opacity=".25"/>
  <path d="m340.4 392.5 3.854 0.1644c5.478 0 8.217 2.739 8.217 8.217h0.1726l-0.0493 4.791-0.263 4.782 0.3287 4.791-0.2136 4.791 0.0247 4.791c0 5.478 2.739 8.217 8.217 8.217v0.1561l3.772 0.0164 3.772-0.0411 3.764-0.1561 3.772 0.0986 3.764-0.074" stroke="#8db9ff"/>
  <path d="m340.2 392.7-0.7724 0.5423-0.5588 0.7642-0.5834 0.7314-0.7149 0.5999-0.6574 0.6574 0.1315 0.1315-3.418-3.418 0.0822 0.0822 0.6492-0.6656 0.5752-0.7478 0.6985-0.6081 0.5259-0.7971 0.756-0.5506 3.287 3.287" stroke="#8db9ff"/>
 </g>
 <g stroke-linecap="round" stroke-width="2">
  <path d="m386.1 433.1 0.0329 0.0904-1.315 0.4273-1.282 0.5341-1.43 0.0986-1.249 0.641-1.331 0.3944h-0.0411l0.0657-0.871-0.0904-0.8793 0.2301-0.8792-0.3123-0.871 0.1479-0.8792 0.0575 0.1726 1.241 0.2054 1.315 0.4355 1.323 0.4684 1.356 0.5423z" fill="#8db9ff" stroke="#8db9ff"/>
  <path d="m166.2 268.3 0.0657 2.49-0.1972 2.498 0.0164 2.49 0.0904 2.49c0 7.385-3.692 11.08-11.08 11.36l-8.275-0.7724-8.267 0.4602-8.275 8e-3 -8.267 0.1972-8.275-0.756-8.267 0.9614-8.275 0.0411-8.267 0.189-8.275-0.493-8.267 0.3205-8.275-0.4437c-7.385 0-11.08-3.692-11.13-11.08l0.2424-2.49-0.1233-2.49-0.115-2.498 0.01644-2.49 0.03287-2.49c0-7.385 3.692-11.08 11.08-11.01l8.275-0.2506 8.267 0.2383 8.275-0.1068 8.267 0.4848 8.275-1.044 8.267 0.6738 8.275 0.378 8.267-0.6245 8.275 0.5999 8.267-0.8135 8.275 0.3944c7.385 0 11.08 3.692 10.98 11.08z" opacity=".25"/>
  <path d="m164.5 265.9 0.0657 2.49-0.1972 2.498 0.0164 2.49 0.0904 2.49c0 7.385-3.692 11.08-11.08 11.36l-8.275-0.7724-8.267 0.4602-8.275 8e-3 -8.267 0.1972-8.275-0.756-8.267 0.9614-8.275 0.0411-8.267 0.189-8.275-0.493-8.267 0.3205-8.275-0.4437c-7.385 0-11.08-3.692-11.13-11.08l0.2424-2.49-0.1233-2.49-0.115-2.498 0.01643-2.49 0.03287-2.49c0-7.385 3.692-11.08 11.08-11.01l8.275-0.2506 8.267 0.2383 8.275-0.1068 8.267 0.4848 8.275-1.044 8.267 0.6738 8.275 0.378 8.267-0.6245 8.275 0.5999 8.267-0.8135 8.275 0.3944c7.385 0 11.08 3.692 10.98 11.08z" fill="#fff9e7" stroke="#ffcd5a"/>
 </g>
 <text x="107.53199" y="274.12967" fill="#3b57a6" font-size="9px" text-anchor="middle">gitLab</text>
 <path d="m334.9 268.3 0.0657 2.49-0.1972 2.498 0.0164 2.49 0.0904 2.49c0 7.385-3.692 11.08-11.08 11.36l-8.275-0.7724-8.267 0.4602-8.275 8e-3 -8.267 0.1972-8.275-0.756-8.267 0.9614-8.275 0.0411-8.267 0.189-8.275-0.493-8.267 0.3205-8.275-0.4437c-7.385 0-11.08-3.692-11.13-11.08l0.2424-2.49-0.1233-2.49-0.115-2.498 0.0164-2.49 0.0329-2.49c0-7.385 3.692-11.08 11.08-11.01l8.275-0.2506 8.267 0.2383 8.275-0.1068 8.267 0.4848 8.275-1.044 8.267 0.6738 8.275 0.378 8.267-0.6245 8.275 0.5999 8.267-0.8135 8.275 0.3944c7.385 0 11.08 3.692 10.98 11.08z" opacity=".25" stroke-linecap="round" stroke-width="2"/>
 <path d="m333.3 265.9 0.0657 2.49-0.1972 2.498 0.0164 2.49 0.0904 2.49c0 7.385-3.692 11.08-11.08 11.36l-8.275-0.7724-8.267 0.4602-8.275 8e-3 -8.267 0.1972-8.275-0.756-8.267 0.9614-8.275 0.0411-8.267 0.189-8.275-0.493-8.267 0.3205-8.275-0.4437c-7.385 0-11.08-3.692-11.13-11.08l0.2424-2.49-0.1233-2.49-0.115-2.498 0.0164-2.49 0.0329-2.49c0-7.385 3.692-11.08 11.08-11.01l8.275-0.2506 8.267 0.2383 8.275-0.1068 8.267 0.4848 8.275-1.044 8.267 0.6738 8.275 0.378 8.267-0.6245 8.275 0.5999 8.267-0.8135 8.275 0.3944c7.385 0 11.08 3.692 10.98 11.08z" fill="#feeeff" stroke="#e14bdd" stroke-linecap="round" stroke-width="2"/>
 <text x="276.2973" y="274.12967" fill="#3b57a6" font-size="9px" text-anchor="middle">webhook</text>
 <path d="m334.9 391.4 0.0657 2.49-0.1972 2.498 0.0164 2.49 0.0904 2.49c0 7.385-3.692 11.08-11.08 11.36l-8.275-0.7724-8.267 0.4602-8.275 8e-3 -8.267 0.1972-8.275-0.756-8.267 0.9614-8.275 0.0411-8.267 0.189-8.275-0.493-8.267 0.3205-8.275-0.4437c-7.385 0-11.08-3.692-11.13-11.08l0.2424-2.49-0.1233-2.49-0.115-2.498 0.0164-2.49 0.0329-2.49c0-7.385 3.692-11.08 11.08-11.01l8.275-0.2506 8.267 0.2383 8.275-0.1068 8.267 0.4848 8.275-1.044 8.267 0.6738 8.275 0.378 8.267-0.6245 8.275 0.5999 8.267-0.8135 8.275 0.3944c7.385 0 11.08 3.692 10.98 11.08z" opacity=".25" stroke-linecap="round" stroke-width="2"/>
 <path d="m333.3 388.9 0.0657 2.49-0.1972 2.498 0.0164 2.49 0.0904 2.49c0 7.385-3.692 11.08-11.08 11.36l-8.275-0.7724-8.267 0.4602-8.275 8e-3 -8.267 0.1972-8.275-0.756-8.267 0.9614-8.275 0.0411-8.267 0.189-8.275-0.493-8.267 0.3205-8.275-0.4437c-7.385 0-11.08-3.692-11.13-11.08l0.2424-2.49-0.1233-2.49-0.115-2.498 0.0164-2.49 0.0329-2.49c0-7.385 3.692-11.08 11.08-11.01l8.275-0.2506 8.267 0.2383 8.275-0.1068 8.267 0.4848 8.275-1.044 8.267 0.6738 8.275 0.378 8.267-0.6245 8.275 0.5999 8.267-0.8135 8.275 0.3944c7.385 0 11.08 3.692 10.98 11.08z" fill="#e7e7ff" stroke="#6c6cd9" stroke-linecap="round" stroke-width="2"/>
 <text x="276.2973" y="397.1467" fill="#3b57a6" font-size="9px" text-anchor="middle">repo sync</text>
 <path d="m334.9 147.9 0.0657 2.49-0.1972 2.498 0.0164 2.49 0.0904 2.49c0 7.385-3.692 11.08-11.08 11.36l-8.275-0.7724-8.267 0.4602-8.275 8e-3 -8.267 0.1972-8.275-0.756-8.267 0.9614-8.275 0.0411-8.267 0.189-8.275-0.493-8.267 0.3205-8.275-0.4437c-7.385 0-11.08-3.692-11.13-11.08l0.2424-2.49-0.1233-2.49-0.115-2.498 0.0164-2.49 0.0329-2.49c0-7.385 3.692-11.08 11.08-11.01l8.275-0.2506 8.267 0.2383 8.275-0.1068 8.267 0.4848 8.275-1.044 8.267 0.6738 8.275 0.378 8.267-0.6245 8.275 0.5999 8.267-0.8135 8.275 0.3944c7.385 0 11.08 3.692 10.98 11.08z" opacity=".25" stroke-linecap="round" stroke-width="2"/>
 <path d="m333.3 145.4 0.0657 2.49-0.1972 2.498 0.0164 2.49 0.0904 2.49c0 7.385-3.692 11.08-11.08 11.36l-8.275-0.7724-8.267 0.4602-8.275 8e-3 -8.267 0.1972-8.275-0.756-8.267 0.9614-8.275 0.0411-8.267 0.189-8.275-0.493-8.267 0.3205-8.275-0.4437c-7.385 0-11.08-3.692-11.13-11.08l0.2424-2.49-0.1233-2.49-0.115-2.498 0.0164-2.49 0.0329-2.49c0-7.385 3.692-11.08 11.08-11.01l8.275-0.2506 8.267 0.2383 8.275-0.1068 8.267 0.4848 8.275-1.044 8.267 0.6738 8.275 0.378 8.267-0.6245 8.275 0.5999 8.267-0.8135 8.275 0.3944c7.385 0 11.08 3.692 10.98 11.08z" fill="#f0fff5" stroke="#3ce4bb" stroke-linecap="round" stroke-width="2"/>
 <text x="276.2973" y="153.69217" fill="#3b57a6" font-size="9px" text-anchor="middle">pipelines build</text>
 <g stroke-linecap="round" stroke-width="2">
  <path d="m174.6 273.9 3.903 0.115c5.478 0 8.217-2.739 8.217-8.217h0.1972l-0.6738-8.053 0.2712-8.053 0.6327-8.053-0.6245-8.053-0.1726-8.053-0.0575-8.061 0.9286-8.053-0.2794-8.053-0.567-8.053-0.0246-8.053 0.5588-8.053 0.3205-8.053-0.5095-8.053c0-5.478 2.739-8.217 8.217-8.217v0.1068l3.714-0.0739 3.722 0.1233 3.722-0.0822 3.722-0.0247 3.722-0.0493" fill="none" opacity=".25"/>
  <path d="m172.9 271.4 3.903 0.115c5.478 0 8.217-2.739 8.217-8.217h0.1972l-0.6738-8.053 0.2712-8.053 0.6327-8.053-0.6245-8.053-0.1726-8.053-0.0575-8.061 0.9286-8.053-0.2794-8.053-0.567-8.053-0.0247-8.053 0.5588-8.053 0.3205-8.053-0.5095-8.053c0-5.478 2.739-8.217 8.217-8.217v0.1068l3.714-0.074 3.722 0.1233 3.722-0.0822 3.722-0.0247 3.722-0.0493" fill="none" stroke="#8db9ff"/>
  <path d="m218.4 150.4-0.0247-0.0739-1.315 0.4355-1.29 0.5259-1.348 0.3287-2.597 0.9696h-0.0246l-0.0411-0.871 0.0739-0.8792-0.1068-0.8793 0.1068-0.871-8e-3 -0.8792 0.0329 0.115 1.339 0.5012 1.249 0.2465 1.348 0.5341 1.307 0.4026z" fill="#8db9ff" stroke="#8db9ff"/>
  <path d="m182.9 274h12.02l3.714-0.0329 3.722 0.2219 3.722-0.2876 3.722-0.0247 3.722 0.1233" fill="none" opacity=".25"/>
 </g>
 <g stroke="#8db9ff" stroke-linecap="round" stroke-width="2">
  <path d="m172.9 271.4 3.903 0.1972h16.43l3.714-0.0329 3.722 0.2219 3.722-0.2876 3.722-0.0247 3.722 0.1233" fill="none"/>
  <path d="m218.4 271.6 0.0329 0.0904-1.315 0.452-1.29 0.5013-1.315 0.452-1.372 0.2547-1.315 0.4437h0.1315l0.0247-0.8792-0.2958-0.8792 0.2547-0.871-0.074-0.8792-0.0411-0.8793-0.0493-0.1315 1.323 0.452 1.298 0.3862 1.364 0.5916 1.315 0.4273z" fill="#8db9ff" pointer-events="all"/>
  <path d="m218.4 392.7 0.0575 0.1808-1.356 0.3205-1.298 0.4766-1.405 0.1726-1.315 0.4273-1.257 0.6163h-0.1808l0.0739-0.8792 0.0247-0.871 0.1068-0.8792-0.1808-0.8793 0.1561-0.871 0.0164 0.0411 1.348 0.5588 1.241 0.2054 1.315 0.4437 1.381 0.6327z" fill="#8db9ff" pointer-events="all"/>
 </g>
 <g fill="none" stroke-linecap="round" stroke-width="2">
  <path d="m181.8 274.4c3.276 0.9604 4.914 3.559 4.914 7.795h-0.074l0.2465 8.053-0.493 8.053 0.7149 8.053-0.0575 8.053 0.263 8.053-0.115 8.061-0.6903 8.053 0.3616 8.053-0.2547 8.053-8e-3 8.053 0.3369 8.053-0.2301 16.11c0 5.478 2.739 8.217 8.217 8.217v0.115l3.714-8e-3 3.722-0.1561 3.722 0.2383 3.722-0.1479 3.722-0.0411" opacity=".25"/>
  <path d="m172.9 271.3 3.903 0.2054c5.478 0 8.217 2.739 8.217 8.217h-0.0739l0.2465 8.053-0.493 8.053 0.7149 8.053-0.0575 8.053 0.263 8.053-0.115 8.061-0.6902 8.053 0.3616 8.053-0.2547 8.053-8e-3 8.053 0.3369 8.053-0.2301 16.11c0 5.478 2.739 8.217 8.217 8.217v0.115l3.714-8e-3 3.722-0.1561 3.722 0.2383 3.722-0.1479 3.722-0.0411" stroke="#8db9ff"/>
  <path d="m166.3 271.3-0.1315-0.1315 0.7889-0.5259 0.6656-0.6574 0.7642-0.5424 0.6492-0.6738 0.5506-0.756-0.1315-0.1315 0.8464 0.8382 0.5341 0.5423 0.6903 0.6903 0.6081 0.5999 0.7396 0.7478-0.1068-0.1068-0.4602 0.8546-0.8628 0.4437-0.4766 0.8464-0.6327 0.682-0.7478 0.567 0.0575 0.0575-0.7478-0.756-0.7231-0.7149-0.6903-0.6985-0.493-0.4848z" stroke="#8db9ff"/>
 </g>
 <path d="m503.4 107.8 0.0657 2.49-0.1972 2.498 0.0164 2.49 0.0904 2.49c0 7.385-3.692 11.08-11.08 11.36l-8.275-0.7724-8.267 0.4602-8.275 8e-3 -8.267 0.1972-8.275-0.756-8.267 0.9614-8.275 0.0411-8.267 0.189-8.275-0.493-8.267 0.3205-8.275-0.4437c-7.385 0-11.08-3.692-11.13-11.08l0.2424-2.49-0.1233-2.49-0.115-2.498 0.0164-2.49 0.0329-2.49c0-7.385 3.692-11.08 11.08-11.01l8.275-0.2506 8.267 0.2383 8.275-0.1068 8.267 0.4848 8.275-1.044 8.267 0.6738 8.275 0.378 8.267-0.6245 8.275 0.5999 8.267-0.8135 8.275 0.3944c7.385 0 11.08 3.692 10.98 11.08z" opacity=".25" stroke-linecap="round" stroke-width="2"/>
 <path d="m501.8 105.4 0.0657 2.49-0.1972 2.498 0.0164 2.49 0.0904 2.49c0 7.385-3.692 11.08-11.08 11.36l-8.275-0.7724-8.267 0.4602-8.275 8e-3 -8.267 0.1972-8.275-0.756-8.267 0.9614-8.275 0.0411-8.267 0.189-8.275-0.493-8.267 0.3205-8.275-0.4437c-7.385 0-11.08-3.692-11.13-11.08l0.2424-2.49-0.1233-2.49-0.115-2.498 0.0164-2.49 0.0329-2.49c0-7.385 3.692-11.08 11.08-11.01l8.275-0.2506 8.267 0.2383 8.275-0.1068 8.267 0.4848 8.275-1.044 8.267 0.6738 8.275 0.378 8.267-0.6245 8.275 0.5999 8.267-0.8135 8.275 0.3944c7.385 0 11.08 3.692 10.98 11.08z" fill="#d5fff5" stroke="#69e5d6" stroke-linecap="round" stroke-width="2"/>
 <text x="444.76929" y="113.63005" fill="#3b57a6" font-size="9px" text-anchor="middle">gitlab page</text>
 <path d="m669.6 107.8 0.0657 2.49-0.1972 2.498 0.0164 2.49 0.0904 2.49c0 7.385-3.692 11.08-11.08 11.36l-8.275-0.7724-8.267 0.4602-8.275 8e-3 -8.267 0.1972-8.275-0.756-8.267 0.9614-8.275 0.0411-8.267 0.189-8.275-0.493-8.267 0.3205-8.275-0.4437c-7.385 0-11.08-3.692-11.13-11.08l0.2424-2.49-0.1233-2.49-0.115-2.498 0.0164-2.49 0.0329-2.49c0-7.385 3.692-11.08 11.08-11.01l8.275-0.2506 8.267 0.2383 8.275-0.1068 8.267 0.4848 8.275-1.044 8.267 0.6738 8.275 0.378 8.267-0.6245 8.275 0.5999 8.267-0.8135 8.275 0.3944c7.385 0 11.08 3.692 10.98 11.08z" opacity=".25" stroke-linecap="round" stroke-width="2"/>
 <path d="m668 105.4 0.0657 2.49-0.1972 2.498 0.0164 2.49 0.0904 2.49c0 7.385-3.692 11.08-11.08 11.36l-8.275-0.7724-8.267 0.4602-8.275 8e-3 -8.267 0.1972-8.275-0.756-8.267 0.9614-8.275 0.0411-8.267 0.189-8.275-0.493-8.267 0.3205-8.275-0.4437c-7.385 0-11.08-3.692-11.13-11.08l0.2424-2.49-0.1233-2.49-0.115-2.498 0.0164-2.49 0.0329-2.49c0-7.385 3.692-11.08 11.08-11.01l8.275-0.2506 8.267 0.2383 8.275-0.1068 8.267 0.4848 8.275-1.044 8.267 0.6738 8.275 0.378 8.267-0.6245 8.275 0.5999 8.267-0.8135 8.275 0.3944c7.385 0 11.08 3.692 10.98 11.08z" fill="#bee9fe" stroke="#32afed" stroke-linecap="round" stroke-width="2"/>
 <text x="610.96582" y="113.63004" fill="#3b57a6" font-size="9px" text-anchor="middle">telegram bot</text>
 <path d="m669.6 188.1 0.0657 2.49-0.1972 2.498 0.0164 2.49 0.0904 2.49c0 7.385-3.692 11.08-11.08 11.36l-8.275-0.7724-8.267 0.4602-8.275 8e-3 -8.267 0.1972-8.275-0.756-8.267 0.9614-8.275 0.0411-8.267 0.189-8.275-0.493-8.267 0.3205-8.275-0.4437c-7.385 0-11.08-3.692-11.13-11.08l0.2424-2.49-0.1233-2.49-0.115-2.498 0.0164-2.49 0.0329-2.49c0-7.385 3.692-11.08 11.08-11.01l8.275-0.2506 8.267 0.2383 8.275-0.1068 8.267 0.4848 8.275-1.044 8.267 0.6738 8.275 0.378 8.267-0.6245 8.275 0.5999 8.267-0.8135 8.275 0.3944c7.385 0 11.08 3.692 10.98 11.08z" opacity=".25" stroke-linecap="round" stroke-width="2"/>
 <path d="m668 185.6 0.0657 2.49-0.1972 2.498 0.0164 2.49 0.0904 2.49c0 7.385-3.692 11.08-11.08 11.36l-8.275-0.7724-8.267 0.4602-8.275 8e-3 -8.267 0.1972-8.275-0.756-8.267 0.9614-8.275 0.0411-8.267 0.189-8.275-0.493-8.267 0.3205-8.275-0.4437c-7.385 0-11.08-3.692-11.13-11.08l0.2424-2.49-0.1233-2.49-0.115-2.498 0.0164-2.49 0.0329-2.49c0-7.385 3.692-11.08 11.08-11.01l8.275-0.2506 8.267 0.2383 8.275-0.1068 8.267 0.4848 8.275-1.044 8.267 0.6738 8.275 0.378 8.267-0.6245 8.275 0.5999 8.267-0.8135 8.275 0.3944c7.385 0 11.08 3.692 10.98 11.08z" fill="#bee9fe" stroke="#32afed" stroke-linecap="round" stroke-width="2"/>
 <text x="610.96582" y="193.86458" fill="#3b57a6" font-size="9px" text-anchor="middle">telegram bot</text>
 <path d="m503.4 187.9 0.0657 2.49-0.1972 2.498 0.0164 2.49 0.0904 2.49c0 7.385-3.692 11.08-11.08 11.36l-8.275-0.7724-8.267 0.4602-8.275 8e-3 -8.267 0.1972-8.275-0.756-8.267 0.9614-8.275 0.0411-8.267 0.189-8.275-0.493-8.267 0.3205-8.275-0.4437c-7.385 0-11.08-3.692-11.13-11.08l0.2424-2.49-0.1233-2.49-0.115-2.498 0.0164-2.49 0.0329-2.49c0-7.385 3.692-11.08 11.08-11.01l8.275-0.2506 8.267 0.2383 8.275-0.1068 8.267 0.4848 8.275-1.044 8.267 0.6738 8.275 0.378 8.267-0.6245 8.275 0.5999 8.267-0.8135 8.275 0.3944c7.385 0 11.08 3.692 10.98 11.08z" opacity=".25" stroke-linecap="round" stroke-width="2"/>
 <path d="m501.8 185.4 0.0657 2.49-0.1972 2.498 0.0164 2.49 0.0904 2.49c0 7.385-3.692 11.08-11.08 11.36l-8.275-0.7724-8.267 0.4602-8.275 8e-3 -8.267 0.1972-8.275-0.756-8.267 0.9614-8.275 0.0411-8.267 0.189-8.275-0.493-8.267 0.3205-8.275-0.4437c-7.385 0-11.08-3.692-11.13-11.08l0.2424-2.49-0.1233-2.49-0.115-2.498 0.0164-2.49 0.0329-2.49c0-7.385 3.692-11.08 11.08-11.01l8.275-0.2506 8.267 0.2383 8.275-0.1068 8.267 0.4848 8.275-1.044 8.267 0.6738 8.275 0.378 8.267-0.6245 8.275 0.5999 8.267-0.8135 8.275 0.3944c7.385 0 11.08 3.692 10.98 11.08z" fill="#ffecf1" stroke="#ff8987" stroke-linecap="round" stroke-width="2"/>
 <text x="444.76929" y="193.70645" fill="#3b57a6" font-size="9px" text-anchor="middle">docker hub</text>
 <path d="m503.4 268.3 0.0657 2.49-0.1972 2.498 0.0164 2.49 0.0904 2.49c0 7.385-3.692 11.08-11.08 11.36l-8.275-0.7724-8.267 0.4602-8.275 8e-3 -8.267 0.1972-8.275-0.756-8.267 0.9614-8.275 0.0411-8.267 0.189-8.275-0.493-8.267 0.3205-8.275-0.4437c-7.385 0-11.08-3.692-11.13-11.08l0.2424-2.49-0.1233-2.49-0.115-2.498 0.0164-2.49 0.0329-2.49c0-7.385 3.692-11.08 11.08-11.01l8.275-0.2506 8.267 0.2383 8.275-0.1068 8.267 0.4848 8.275-1.044 8.267 0.6738 8.275 0.378 8.267-0.6245 8.275 0.5999 8.267-0.8135 8.275 0.3944c7.385 0 11.08 3.692 10.98 11.08z" opacity=".25" stroke-linecap="round" stroke-width="2"/>
 <path d="m501.8 265.9 0.0657 2.49-0.1972 2.498 0.0164 2.49 0.0904 2.49c0 7.385-3.692 11.08-11.08 11.36l-8.275-0.7724-8.267 0.4602-8.275 8e-3 -8.267 0.1972-8.275-0.756-8.267 0.9614-8.275 0.0411-8.267 0.189-8.275-0.493-8.267 0.3205-8.275-0.4437c-7.385 0-11.08-3.692-11.13-11.08l0.2424-2.49-0.1233-2.49-0.115-2.498 0.0164-2.49 0.0329-2.49c0-7.385 3.692-11.08 11.08-11.01l8.275-0.2506 8.267 0.2383 8.275-0.1068 8.267 0.4848 8.275-1.044 8.267 0.6738 8.275 0.378 8.267-0.6245 8.275 0.5999 8.267-0.8135 8.275 0.3944c7.385 0 11.08 3.692 10.98 11.08z" fill="#feeeff" stroke="#e14bdd" stroke-linecap="round" stroke-width="2"/>
 <text x="444.76929" y="274.12967" fill="#3b57a6" font-size="9px" text-anchor="middle">vercel site</text>
 <path d="m503.4 348.1 0.0657 2.49-0.1972 2.498 0.0164 2.49 0.0904 2.49c0 7.385-3.692 11.08-11.08 11.36l-8.275-0.7724-8.267 0.4602-8.275 8e-3 -8.267 0.1972-8.275-0.756-8.267 0.9614-8.275 0.0411-8.267 0.189-8.275-0.493-8.267 0.3205-8.275-0.4437c-7.385 0-11.08-3.692-11.13-11.08l0.2424-2.49-0.1233-2.49-0.115-2.498 0.0164-2.49 0.0329-2.49c0-7.385 3.692-11.08 11.08-11.01l8.275-0.2506 8.267 0.2383 8.275-0.1068 8.267 0.4848 8.275-1.044 8.267 0.6738 8.275 0.378 8.267-0.6245 8.275 0.5999 8.267-0.8135 8.275 0.3944c7.385 0 11.08 3.692 10.98 11.08z" opacity=".25" stroke-linecap="round" stroke-width="2"/>
 <path d="m501.8 345.6 0.0657 2.49-0.1972 2.498 0.0164 2.49 0.0904 2.49c0 7.385-3.692 11.08-11.08 11.36l-8.275-0.7724-8.267 0.4602-8.275 8e-3 -8.267 0.1972-8.275-0.756-8.267 0.9614-8.275 0.0411-8.267 0.189-8.275-0.493-8.267 0.3205-8.275-0.4437c-7.385 0-11.08-3.692-11.13-11.08l0.2424-2.49-0.1233-2.49-0.115-2.498 0.0164-2.49 0.0329-2.49c0-7.385 3.692-11.08 11.08-11.01l8.275-0.2506 8.267 0.2383 8.275-0.1068 8.267 0.4848 8.275-1.044 8.267 0.6738 8.275 0.378 8.267-0.6245 8.275 0.5999 8.267-0.8135 8.275 0.3944c7.385 0 11.08 3.692 10.98 11.08z" fill="#deedff" stroke="#7ea6e0" stroke-linecap="round" stroke-width="2"/>
 <text x="444.76929" y="353.85925" fill="#3b57a6" font-size="9px" text-anchor="middle">github</text>
 <path d="m503.4 428.1 0.0657 2.49-0.1972 2.498 0.0164 2.49 0.0904 2.49c0 7.385-3.692 11.08-11.08 11.36l-8.275-0.7724-8.267 0.4602-8.275 8e-3 -8.267 0.1972-8.275-0.756-8.267 0.9614-8.275 0.0411-8.267 0.189-8.275-0.493-8.267 0.3205-8.275-0.4437c-7.385 0-11.08-3.692-11.13-11.08l0.2424-2.49-0.1233-2.49-0.115-2.498 0.0164-2.49 0.0329-2.49c0-7.385 3.692-11.08 11.08-11.01l8.275-0.2506 8.267 0.2383 8.275-0.1068 8.267 0.4848 8.275-1.044 8.267 0.6738 8.275 0.378 8.267-0.6245 8.275 0.5999 8.267-0.8135 8.275 0.3944c7.385 0 11.08 3.692 10.98 11.08z" opacity=".25" stroke-linecap="round" stroke-width="2"/>
 <path d="m501.8 425.7 0.0657 2.49-0.1972 2.498 0.0164 2.49 0.0904 2.49c0 7.385-3.692 11.08-11.08 11.36l-8.275-0.7724-8.267 0.4602-8.275 8e-3 -8.267 0.1972-8.275-0.756-8.267 0.9614-8.275 0.0411-8.267 0.189-8.275-0.493-8.267 0.3205-8.275-0.4437c-7.385 0-11.08-3.692-11.13-11.08l0.2424-2.49-0.1233-2.49-0.115-2.498 0.0164-2.49 0.0329-2.49c0-7.385 3.692-11.08 11.08-11.01l8.275-0.2506 8.267 0.2383 8.275-0.1068 8.267 0.4848 8.275-1.044 8.267 0.6738 8.275 0.378 8.267-0.6245 8.275 0.5999 8.267-0.8135 8.275 0.3944c7.385 0 11.08 3.692 10.98 11.08z" fill="#f0fff5" stroke="#3fe4bc" stroke-linecap="round" stroke-width="2"/>
 <text x="444.76929" y="433.93564" fill="#3b57a6" font-size="9px" text-anchor="middle">gitea</text>
</svg>
