<?xml version="1.0" encoding="UTF-8"?>
<svg width="800" height="800" version="1" viewBox="0 0 600 600" xmlns="http://www.w3.org/2000/svg">
 <path d="m300 15c-157.4-8e-6 -285 127.6-285 285-6e-6 157.4 127.6 285 285 285 157.4 1e-5 285-127.6 285-285 1e-5 -157.4-127.6-285-285-285zm0 35.63c137.7 2.71e-4 249.4 111.6 249.4 249.4-2.7e-4 137.7-111.6 249.4-249.4 249.4-137.7-2.7e-4 -249.4-111.6-249.4-249.4 2.68e-4 -137.7 111.6-249.4 249.4-249.4zm-0.1642 30.37c-19.7 3e-6 -35.27 1.806-53.02 6.243-61.82 15.49-114.5 57.61-142.8 114.2-15.87 31.81-23.16 62.87-23.16 98.52-1e-6 19.7 1.804 35.27 6.241 53.02 15.49 61.82 57.61 114.5 114.2 142.8 31.81 15.87 62.87 23.16 98.52 23.16 19.7 0 35.27-1.806 53.02-6.243 61.82-15.49 114.5-57.61 142.8-114.2 14.14-28.35 21.66-57.23 23.31-89.5 0.9025-18.05-1.732-43.24-6.394-62.05-15.49-61.82-57.6-114.5-114.2-142.8-31.81-15.87-62.88-23.16-98.52-23.16zm-102.9 60.38c6.215-4.031 12.69-7.723 19.42-11.04 1.729-0.8537 3.462-1.667 5.199-2.462 13.81-6.163 29.08-11.06 43.52-13.82 3.194-0.6074 6.421-1.125 9.669-1.559 0.2681 0.0775 0.4244 0.2028 0.4244 0.3771-1e-5 0.3653-7.596 20.67-16.87 45-9.278 24.4-16.88 44.57-16.95 44.86-0.073 0.2922 14.69 12.27 32.73 26.67 18.12 14.32 32.88 26.45 32.8 26.88-0.0401 0.2407-4.578 6.598-11.33 15.93l-39.53-29.07-40.4 23.89c-37.61 22.32-43.21 25.73-43.41 25.14-0.0548-0.1642 0.3141-0.6415 0.5218-1.105 1.534-3.653 48.22-130 48.22-130.6zm261.5 55.8c12.88 19.94 22.2 42.18 26.55 64.46 2.557 12.93 2.629 13.51 1.972 13.51-0.5844 0-88.98-33.39-89.93-33.97-0.2192-0.1461-12.27 14.69-26.67 32.88-14.47 18.26-26.45 33.17-26.66 33.24-0.12 0-6.698-4.772-16.04-11.59l29.2-39.71-23.89-40.4c-22.32-37.61-25.73-43.21-25.14-43.41 0.1641-0.0548 0.6415 0.3141 1.105 0.5218 3.653 1.534 130 48.22 130.6 48.22zm-317 205.6c-0.2192 0.0731-2.193-3.142-4.531-7.087-12.97-22.29-21.12-45.92-24.39-70.53 0.0789-0.2037 0.193-0.3201 0.3437-0.3201 0.3653 2e-5 20.67 7.596 45 16.87 24.4 9.278 44.57 16.88 44.86 16.95 0.2922 0.073 12.27-14.69 26.67-32.73 14.32-18.12 26.45-32.88 26.88-32.8 0.2398 0.04 6.545 4.54 15.82 11.25-17.49 23.83-28.36 39.26-28.15 39.95 0.1461 0.6575 11.18 19.58 24.55 42.01 13.3 22.43 24.11 40.91 24.04 40.99-0.1461 0.0731-29.66-10.81-65.61-24.18-35.94-13.37-65.83-24.33-66.26-24.33zm261.3 55.7c-19.91 12.85-42.12 22.15-64.37 26.49-12.93 2.557-13.51 2.629-13.51 1.972 0-0.5845 33.39-88.98 33.97-89.93 0.1461-0.2192-14.69-12.27-32.88-26.67-18.26-14.47-33.17-26.45-33.24-26.66 0-0.1196 4.728-6.64 11.5-15.93 23.93 17.56 39.44 28.49 40.13 28.29 0.6575-0.1461 19.58-11.18 42.01-24.55 22.43-13.3 40.91-24.11 40.99-24.04 0.0731 0.1461-10.81 29.66-24.18 65.61-13.37 35.94-24.33 65.83-24.33 66.26z" fill="#008080"/>
</svg>
