<?xml version="1.0" encoding="UTF-8"?>
<svg width="550" height="550" version="1" viewBox="0 0 412.5 412.5" xmlns="http://www.w3.org/2000/svg" xmlns:cc="http://creativecommons.org/ns#" xmlns:dc="http://purl.org/dc/elements/1.1/" xmlns:rdf="http://www.w3.org/1999/02/22-rdf-syntax-ns#">
 <metadata>
  <rdf:RDF>
   <cc:Work rdf:about="">
    <dc:format>image/svg+xml</dc:format>
    <dc:type rdf:resource="http://purl.org/dc/dcmitype/StillImage"/>
    <dc:title/>
   </cc:Work>
  </rdf:RDF>
 </metadata>
 <defs>
  <linearGradient id="linearGradient888" x1="220.4" x2="380.2" y1="228.1" y2="375.2" gradientUnits="userSpaceOnUse">
   <stop stop-color="#bebebe" offset="0"/>
   <stop stop-color="#dedede" stop-opacity="0" offset="1"/>
  </linearGradient>
  <linearGradient id="linearGradient905" x1="128.2" x2="243.1" y1="359" y2="251.1" gradientUnits="userSpaceOnUse">
   <stop stop-color="#e8e8e8" offset="0"/>
   <stop stop-color="#fff" stop-opacity="0" offset="1"/>
  </linearGradient>
  <linearGradient id="linearGradient939" x1="319" x2="440.2" y1="377.9" y2="252.7" gradientUnits="userSpaceOnUse">
   <stop stop-color="#d7d7d7" offset="0"/>
   <stop stop-color="#fdfdfd" stop-opacity="0" offset="1"/>
  </linearGradient>
  <linearGradient id="linearGradient980" x1="686.5" x2="834" y1="138.1" y2="485.9" gradientTransform="matrix(.8989 0 0 .9879 99.58 1.923)" gradientUnits="userSpaceOnUse">
   <stop stop-color="#00b4a1" offset="0"/>
   <stop stop-color="#008080" offset="1"/>
  </linearGradient>
 </defs>
 <g transform="translate(-569.5 -102.5)">
  <rect x="588.2" y="158.8" width="375" height="300" ry="37.5" fill="url(#linearGradient980)" stroke-width=".6746"/>
  <g transform="translate(536.2 8.99)" stroke-width="1.211">
   <path d="m427 223.7-69.67 86.36-114.5-83.79-167.8 112.6 98.97 37.44 69.68-86.37 114.5 83.79 68.79-46.57z" fill="#fff"/>
   <path d="m357.3 310.1-114.5-83.79 0.8697 63.66 114.5 83.79z" fill="url(#linearGradient888)"/>
   <path d="m242.8 226.3-167.8 112.6 98.97 37.44 69.68-86.37z" fill="url(#linearGradient905)"/>
   <path d="m427 223.3-69.67 86.36 0.875 63.66 68.79-46.13z" fill="url(#linearGradient939)"/>
  </g>
 </g>
</svg>
