<?xml version="1.0" encoding="UTF-8"?>
<svg width="550" height="550" version="1" viewBox="0 0 412.5 412.5" xmlns="http://www.w3.org/2000/svg" xmlns:cc="http://creativecommons.org/ns#" xmlns:dc="http://purl.org/dc/elements/1.1/" xmlns:rdf="http://www.w3.org/1999/02/22-rdf-syntax-ns#" xmlns:xlink="http://www.w3.org/1999/xlink">
 <metadata>
  <rdf:RDF>
   <cc:Work rdf:about="">
    <dc:format>image/svg+xml</dc:format>
    <dc:type rdf:resource="http://purl.org/dc/dcmitype/StillImage"/>
    <dc:title/>
   </cc:Work>
  </rdf:RDF>
 </metadata>
 <defs>
  <linearGradient id="linearGradient888" x1="230.5" x2="372.7" y1="227.4" y2="393.3" gradientTransform="matrix(.9588 0 0 .9588 -15.66 -81.22)" gradientUnits="userSpaceOnUse">
   <stop stop-color="#d1d1d1" offset="0"/>
   <stop stop-color="#dedede" stop-opacity="0" offset="1"/>
  </linearGradient>
  <linearGradient id="linearGradient905" x1="131.7" x2="229.5" y1="399.2" y2="199.3" gradientTransform="matrix(.9588 0 0 .9588 -15.66 -81.22)" gradientUnits="userSpaceOnUse">
   <stop stop-color="#e8e8e8" offset="0"/>
   <stop stop-color="#fff" stop-opacity="0" offset="1"/>
  </linearGradient>
  <linearGradient id="linearGradient980" x1="686.5" x2="834" y1="138.1" y2="485.9" gradientTransform="matrix(.8989 0 0 .9879 -469.9 -138.1)" gradientUnits="userSpaceOnUse">
   <stop stop-color="#00b4a1" offset="0"/>
   <stop stop-color="#008080" offset="1"/>
  </linearGradient>
  <linearGradient id="linearGradient917" x1="355.5" x2="470.8" y1="365.5" y2="187.4" gradientTransform="translate(-47.42 -62.38)" gradientUnits="userSpaceOnUse">
   <stop stop-color="#d7d7d7" offset="0"/>
   <stop stop-color="#fdfdfd" stop-opacity="0" offset="1"/>
  </linearGradient>
 </defs>
 <rect x="18.75" y="18.75" width="375" height="375" ry="187.5" fill="url(#linearGradient980)" stroke-width=".6746"/>
 <path d="m393.8 133.3-66.8 82.8-109.8-80.34-160.9 108 94.89 35.9 66.81-82.81 109.8 80.34 65.96-44.65z" fill="none" stroke-width="1.161"/>
 <path d="m217.2 135.7-160.9 108 94.89 35.9 66.81-82.81 109.8 80.34 63.98-43.32c1.231-8.43 1.901-17.05 1.98-25.81l1e-3 -3.404c-0.1779-20.64-3.651-40.47-9.935-58.98l-56.84 70.46z" fill="#fff" stroke-width=".6746"/>
 <g transform="translate(.02817 -.03901)">
  <path d="m326.9 216.1-109.8-80.34 0.8339 61.04 109.8 80.34z" fill="url(#linearGradient888)" stroke-width="1.161"/>
  <path d="m217.1 135.8-160.9 108 94.89 35.9 66.81-82.81z" fill="url(#linearGradient905)" stroke-width="1.161"/>
  <path d="m383.7 145.8-56.75 70.35 0.8379 61.04 63.95-42.89c1.304-8.918 1.993-18.04 2.005-27.33v-0.5112c-0.0281-21.25-3.561-41.65-10.05-60.66z" fill="url(#linearGradient917)" stroke-width=".6746"/>
 </g>
</svg>
