<?xml version="1.0" encoding="UTF-8"?>
<svg width="800" height="800" version="1" viewBox="0 0 600 600" xmlns="http://www.w3.org/2000/svg" xmlns:cc="http://creativecommons.org/ns#" xmlns:dc="http://purl.org/dc/elements/1.1/" xmlns:rdf="http://www.w3.org/1999/02/22-rdf-syntax-ns#">
 <circle cx="300" cy="300" r="281.25" fill="#008080" />
 <path d="m174.85 95.637a240 240 0 0 0-114.85 204.55 240 240 0 0 0 3.4875 40.748l104.01 39.345c0.30087 0.20056 16.849-20.158 36.606-45.13 19.858-25.072 36.303-45.532 36.605-45.631 0.30088 0 27.478 19.858 60.473 44.028l59.875 44.027 55.459-32.794c51.496-30.554 59.274-35.293 59.583-34.519 0.0709 0.22764-0.43304 0.87857-0.7172 1.5125-2.106 5.0145-66.189 178.52-66.189 179.32l16.594 13.27a240 240 0 0 0 114.21-204.18 240 240 0 0 0-3.6078-41.303l-103.03-38.972c-0.30088-0.20056-16.849 20.158-36.606 45.13-19.858 25.072-36.306 45.532-36.608 45.631-0.30088 0-27.478-19.858-60.473-44.028l-59.873-44.025-55.458 32.794c-51.493 30.552-59.273 35.289-59.583 34.516 2.6e-4 8.5e-4 -2.7e-4 4e-3 0 5e-3l-3e-3 -0.01c7.1e-4 2e-3 2e-3 3e-3 3e-3 5e-3 -0.0708-0.22764 0.43149-0.8786 0.71564-1.5125 2.106-5.0145 66.191-178.52 66.191-179.32z" fill="#fff" stroke-width="1.2725"/>
</svg>
