<?xml version="1.0" encoding="UTF-8"?>
<!-- Created with Inkscape (http://www.inkscape.org/) -->
<svg width="700" height="700" version="1.1" viewBox="0 0 185.21 185.21" xmlns="http://www.w3.org/2000/svg">
 <g transform="matrix(.99998 0 0 .99998 -228.72 -25.086)">
  <path d="m271.16 39.582c2.5603-3.268 7.7475-7.2183 14.375-7.2207l71.576 2e-3c6.628 1e-3 11.815 3.9514 14.373 7.2168 2.2068 2.8173 4.3476 8.1458 4.3476 12.404 1.5e-4 4.2584-2.0399 8.678-4.3438 12.404-0.88565 1.4325-3.5195 3.625-3.5195 3.625v14.988l31.561 91.889c5.1223 14.92-6.191 30.773-21.961 30.775h-112.49c-15.769-2e-3 -27.084-15.858-21.961-30.779l31.559-91.887v-14.988c-1.1805-1.1926-2.4294-2.1772-3.5176-3.625-2.1516-2.8625-4.3438-8.1428-4.3438-12.403 8.7e-4 -4.2588 2.137-9.5843 4.3438-12.401z" color="#000000" fill="#15b5a0" style="-inkscape-stroke:none"/>
  <path d="m306.5 95.445 46.125 33.754 21.676-26.869s1.2645-1.6773 1.4648-2.8168c0.19989-1.137-0.41023-3.1603-0.41023-3.1603l-4.7365-13.793v-13.365c0.25245-0.22373 0.27631-0.22946 0.59766-0.53321 0.83472-0.789 1.783-1.6801 2.5254-2.8809 2.4286-3.9281 4.7404-8.6935 4.7402-13.797 0-5.1453-2.219-10.597-4.9121-14.035-2.9899-3.817-8.7761-8.229-16.455-8.2305l-71.576-2e-3c-7.6784 2e-3 -13.467 4.4154-16.459 8.2344-2.6939 3.4388-4.9052 8.888-4.9062 14.031v2e-3c0 5.1682 2.3031 10.57 4.875 13.992 1.0556 1.4044 2.0604 2.2345 2.9863 3.1016v13.48l-13.952 40.626s-0.38444 1.4458 2e-3 2.2904c0.37929 0.82907 1.631 1.3642 1.631 1.3642z" color="#000000" fill="#c5ede8" style="-inkscape-stroke:none"/>
 </g>
</svg>
