<?xml version="1.0" encoding="UTF-8"?>
<svg width="800" height="800" version="1.1" viewBox="0 0 211.67 211.67" xmlns="http://www.w3.org/2000/svg" xmlns:cc="http://creativecommons.org/ns#" xmlns:dc="http://purl.org/dc/elements/1.1/" xmlns:rdf="http://www.w3.org/1999/02/22-rdf-syntax-ns#">
 <g>
  <circle cx="105.83" cy="105.83" r="100" fill="#15b5a0"/>
  <path d="m79.334 45.833h52.999c3.47 7.24e-4 5.9081 1.8874 7.3678 3.7505 1.5436 1.9701 2.3311 3.8412 2.3316 6.6151v8.79e-4c3.1e-4 2.7749-0.78709 4.6464-2.3307 6.6172-0.60744 0.77555-1.4468 1.5861-2.4519 2.2505-0.64876 0.4289-1.039 1.1547-1.0391 1.9324v12.475c-9e-5 0.2561 0.0423 0.51043 0.12539 0.75267l23.469 68.327c9e-4 3e-3 2e-3 7e-3 3e-3 0.0108 2.818 8.2075-3.6491 17.266-12.327 17.267h-83.296c-8.6777-9e-4 -15.145-9.0596-12.327-17.267 0.0011-3e-3 0.0021-7e-3 0.0032-0.0108l0.0032-9e-3 23.465-68.319c0.08314-0.24212 0.12558-0.49635 0.12558-0.75235v-12.475c1.88e-4 -0.77767-0.39001-1.5035-1.0387-1.9324-1.0052-0.66442-1.8446-1.4753-2.4522-2.2511-1.5434-1.9708-2.3307-3.8426-2.3304-6.6169v-8.76e-4c5.44e-4 -2.7735 0.78758-4.6446 2.331-6.6148 1.4595-1.8631 3.8982-3.75 7.3681-3.7508zm0.0011 6.3706c-1.8391 3.06e-4 -3.3297 2.1574-3.33 3.9965-1.7e-4 1.8394 1.4905 3.9973 3.33 3.9977h2.4917v20.728l-4.0955 11.924 9.9921-6.7052 33.633 24.612 13.137-16.285-4.6531-13.547v-20.728h2.4914c1.8394-3.06e-4 3.3305-2.1582 3.3303-3.9977-3e-4 -1.8391-1.4912-3.9962-3.3303-3.9965zm8.6382 52.643-20.468 25.37-2.3083-0.87329-7.3124 21.29c-1.4852 4.3258 1.729 8.8278 6.3027 8.8282h83.294c4.5736-4.6e-4 7.7876-4.5024 6.3024-8.8282l-11.972-34.854-20.206 13.679z" fill="#fff"/>
 </g>
</svg>
