<?xml version="1.0" encoding="UTF-8"?>
<!-- Created with Inkscape (http://www.inkscape.org/) -->
<svg width="800" height="800" version="1.1" viewBox="0 0 211.67 211.67" xmlns="http://www.w3.org/2000/svg">
 <g transform="translate(-3.6529 -4.4946)">
  <path d="m59.325 36.19c2.5602-3.2679 7.7473-7.2182 14.375-7.2206l71.575 2e-3c6.6279 1e-3 11.815 3.9513 14.373 7.2167 2.2068 2.8172 4.3475 8.1456 4.3475 12.404 1.5e-4 4.2583-2.0399 8.6778-4.3437 12.404-0.88563 1.4325-3.5194 3.6249-3.5194 3.6249v14.988l31.56 91.887c5.1222 14.92-6.1909 30.772-21.961 30.774h-112.49c-15.769-2e-3 -27.083-15.858-21.961-30.778l31.558-91.885v-14.988c-1.1805-1.1926-2.4294-2.1772-3.5175-3.6249-2.1516-2.8624-4.3437-8.1426-4.3437-12.403 8.7e-4 -4.2587 2.137-9.5841 4.3437-12.401z" color="#000000" fill="#15b5a0" stroke-width=".99998" style="-inkscape-stroke:none"/>
  <path d="m94.666 92.052 46.123 33.753 21.675-26.868s1.2644-1.6772 1.4647-2.8167c0.19988-1.137-0.41022-3.1602-0.41022-3.1602l-4.7363-13.792v-13.364c0.25243-0.22373 0.27629-0.22946 0.59764-0.53319 0.83468-0.78896 1.7829-1.68 2.5253-2.8808 2.4285-3.9279 4.7402-8.6931 4.74-13.796 0-5.1451-2.2189-10.597-4.9119-14.034-2.9898-3.8168-8.7758-8.2287-16.454-8.2302l-71.573-2e-3c-7.6781 2e-3 -13.466 4.4152-16.458 8.2341-2.6938 3.4387-4.905 8.8876-4.906 14.03v2e-3c0 5.168 2.303 10.57 4.8748 13.991 1.0556 1.4043 2.0603 2.2344 2.9862 3.1015v13.479l-13.951 40.624s-0.38443 1.4458 2e-3 2.2903c0.37927 0.82902 1.6309 1.3641 1.6309 1.3641z" fill="#d4aa00" stroke="#15b5a0" stroke-linecap="round" stroke-linejoin="round" stroke-width="15.875"/>
  <path d="m94.664 92.052 46.124 33.753 21.676-26.868s1.2645-1.6773 1.4648-2.8167c0.19989-1.137-0.41022-3.1602-0.41022-3.1602l-4.7364-13.793v-13.365c0.25244-0.22372 0.2763-0.22946 0.59765-0.5332 0.8347-0.78898 1.783-1.6801 2.5254-2.8808 2.4286-3.928 4.7403-8.6933 4.7401-13.797 0-5.1452-2.219-10.597-4.912-14.035-2.9898-3.8169-8.7759-8.2288-16.455-8.2303l-71.575-2e-3c-7.6782 2e-3 -13.467 4.4153-16.459 8.2342-2.6938 3.4387-4.9051 8.8878-4.9061 14.031v2e-3c0 5.1681 2.3031 10.57 4.8749 13.992 1.0556 1.4044 2.0604 2.2345 2.9862 3.1015v13.48l-13.952 40.625s-0.38443 1.4458 2e-3 2.2904c0.37928 0.82905 1.631 1.3642 1.631 1.3642z" color="#000000" fill="#c5ede8" stroke-width=".99998" style="-inkscape-stroke:none"/>
 </g>
</svg>
