<?xml version="1.0" encoding="UTF-8"?>
<!-- Created with Inkscape (http://www.inkscape.org/) -->
<svg width="1100" height="1100" version="1.1" viewBox="0 0 291.04 291.04" xmlns="http://www.w3.org/2000/svg">
 <circle cx="145.52" cy="145.52" r="132.29" fill="#15b5a0"/>
 <g fill="#fff" opacity=".95">
  <path d="m193.95 122.98-10.649 3.6574 23.448 68.266c3.1343 9.1311-3.7173 18.731-13.365 18.733h-95.736c-9.6463-2e-3 -16.501-9.6045-13.366-18.736l17.202-50.085-10.649-3.6574-17.202 50.085c-5.5845 16.265 6.8199 33.651 24.013 33.653h95.738c17.194-3e-3 29.596-17.385 24.013-33.649z" />
  <path d="m175.98 66.147-60.918-0.0018c-6.4467-1.86e-4 -11.411 2.9073-13.186 4.5329-1.3245 1.2131-2.4576 2.4777-3.4779 3.7702-2.9287 3.7101-4.8934 8.5189-4.8946 14.025 0 5.5573 2.1005 10.313 4.8261 13.939 0.65812 0.87558 1.2935 1.5542 1.8644 2.1186v9.4l-14.724 42.87 47.437-31.339 39.256 28.726 22.804-28.269-1.0102-2.9422-3.1073-9.0469v-9.3414c0.65695-0.61817 1.3587-1.3125 2.1537-2.5986 2.226-3.6002 4.5385-8.0946 4.5383-13.517-9e-5 -5.5109-1.9845-10.309-4.8979-14.028-3.0962-3.9524-8.7859-8.2998-16.663-8.3z" />
 </g>
</svg>
