<?xml version="1.0" encoding="UTF-8"?>
<svg width="800" height="800" version="1.1" viewBox="0 0 211.67 211.67" xmlns="http://www.w3.org/2000/svg">
 <path d="m70.043 13.229c-8.8811 0.0022-15.569 5.0447-19.061 9.502-3.1001 3.9574-5.6094 10.136-5.6106 16.071v0.0019c0 5.9368 2.5089 12.115 5.6088 16.073v0.0019c0.67024 0.85578 1.4445 1.6617 2.2527 2.454v11.494l-31.235 90.946h-0.0014c-6.4226 18.707 7.8169 38.665 27.591 38.667h112.49c19.774-3e-3 34.013-19.955 27.591-38.661l-31.239-90.951v-11.493c0.80838-0.79214 1.5818-1.5991 2.2527-2.4558 3.0999-3.9577 5.6108-10.137 5.6106-16.074 0-5.9389-2.5145-12.119-5.6142-16.075h2e-3c-3.4911-4.4556-10.18-9.4984-19.061-9.5002h-1e-3l-71.58-0.0018zm0.0032 11.576 71.577 0.0014c4.6862 9.72e-4 7.9788 2.5487 9.9501 5.0648 2.0846 2.6606 3.149 5.1878 3.149 8.9345 4.7e-4 3.7481-1.063 6.2757-3.1476 8.9373-0.82035 1.0474-1.9543 2.1423-3.3117 3.0395-0.87614 0.57923-1.4034 1.5588-1.4036 2.6091v16.848c-1.2e-4 0.34586 0.0573 0.6898 0.16956 1.0169l6.8125 19.833-17.187 21.304-45.585-33.358-37.82 25.378 11.389-33.159c0.11224-0.32698 0.16957-0.67077 0.16957-1.0165v-16.847c2.31e-4 -1.0502-0.52704-2.0312-1.4031-2.6104-1.3575-0.8973-2.4907-1.9923-3.3113-3.04-2.0844-2.6616-3.1476-5.1891-3.1476-8.9364 6.95e-4 -3.7462 1.0637-6.2733 3.148-8.9341 1.9711-2.5161 5.2649-5.0641 9.951-5.0653z" fill="#15b5a0"/>
</svg>
