<?xml version="1.0" encoding="UTF-8" standalone="no"?>
<!-- Generator: Adobe Illustrator 26.2.1, SVG Export Plug-In . SVG Version: 6.00 Build 0)  -->

<svg
   version="1.1"
   id="Ebene_1"
   x="0px"
   y="0px"
   viewBox="0 0 94.488194 94.488186"
   xml:space="preserve"
   width="25mm"
   height="25mm"
   xmlns="http://www.w3.org/2000/svg"
   xmlns:svg="http://www.w3.org/2000/svg"><defs
   id="defs72" />
<style
   type="text/css"
   id="style2">
	.st0{fill:#E72867;}
	.st1{fill:url(#SVGID_1_);}
	.st2{fill:url(#SVGID_00000042002519959715446530000013571061353068907151_);}
	.st3{fill:url(#SVGID_00000003076496707283582930000009842191214126054529_);}
</style>

<g
   id="g63"
   transform="translate(-161.75591,-85.755906)">
	<g
   id="g45">
		<linearGradient
   id="SVGID_1_"
   gradientUnits="userSpaceOnUse"
   x1="247.8161"
   y1="171.6021"
   x2="178.978"
   y2="135.3428">
			<stop
   offset="0"
   style="stop-color:#4E1948"
   id="stop38" />
			<stop
   offset="1"
   style="stop-color:#1C1537"
   id="stop40" />
		</linearGradient>
		<path
   class="st1"
   d="m 224.3,168.8 v 0 l -15.3,-33.3 -11.6,25.1 33.7,15.2 v 0 c -3.1,-1.4 -5.5,-3.9 -6.8,-7 z"
   id="path43"
   style="fill:url(#SVGID_1_)" />
	</g>
	<g
   id="g54">
		
			<linearGradient
   id="SVGID_00000055690275018614119310000002540014740479319683_"
   gradientUnits="userSpaceOnUse"
   x1="204.0954"
   y1="89.959801"
   x2="241.99049"
   y2="175.0192">
			<stop
   offset="0"
   style="stop-color:#A81255"
   id="stop47" />
			<stop
   offset="1"
   style="stop-color:#4E1948"
   id="stop49" />
		</linearGradient>
		<path
   style="fill:url(#SVGID_00000055690275018614119310000002540014740479319683_)"
   d="m 249.6,157.4 v 0 L 221.8,97.1 c -0.1,-0.2 -0.2,-0.4 -0.3,-0.6 L 221.3,96 v 0 c 0,-0.1 -0.1,-0.2 -0.2,-0.3 1.1,2 1.7,4.2 1.7,6.6 0,2 -0.5,4 -1.3,5.7 v 0 l -12.5,27.5 15.3,33.3 v 0 c 2.1,4.9 7,8.4 12.7,8.4 7.7,0 13.9,-6.2 13.9,-13.9 0,-2.1 -0.5,-4.1 -1.3,-5.9 z"
   id="path52" />
	</g>
	
		<linearGradient
   id="SVGID_00000122714243180735780660000013281474422875765666_"
   gradientUnits="userSpaceOnUse"
   x1="175.955"
   y1="176.4012"
   x2="213.0322"
   y2="91.341698">
		<stop
   offset="0"
   style="stop-color:#E72867"
   id="stop56" />
		<stop
   offset="1"
   style="stop-color:#A81255"
   id="stop58" />
	</linearGradient>
	<path
   style="fill:url(#SVGID_00000122714243180735780660000013281474422875765666_)"
   d="m 209,88.6 c -5.4,0 -10,3.1 -12.3,7.6 v 0 l -0.2,0.5 c -0.1,0.2 -0.2,0.4 -0.3,0.6 l -27.8,60.3 v 0 c -0.8,1.8 -1.3,3.8 -1.3,5.9 0,7.7 6.2,13.9 13.9,13.9 5.7,0 10.6,-3.4 12.7,-8.4 v 0 l 28,-60.6 v 0 c 0.8,-1.7 1.3,-3.7 1.3,-5.7 -0.2,-7.9 -6.4,-14.1 -14,-14.1 z"
   id="path61" />
</g>

</svg>
