<svg width="240" height="240" fill="none" xmlns="http://www.w3.org/2000/svg"><path d="M100.046 49.093H56.082C47.244 49.093 40 56.223 40 64.968c0 8.7 6.697 15.83 15.535 15.83h44.829l-.318-31.705z" fill="#073042"/><path d="M200 190.171H56.082C47.244 190.171 40 183.04 40 174.34V64.92s-.046 15.875 17.13 15.875h119.362S200 78.82 200 96.042v94.129z" fill="#4285F4"/><path d="M132.848 134.117c3.417-2.601 5.65-6.681 5.65-11.3 0-7.714-6.242-13.992-13.987-14.261.183 0 .319-.045.501-.045.866 0 1.732.09 2.552.224v-9.058c0-1.525-1.23-2.736-2.779-2.736s-2.779 1.211-2.779 2.736v8.969c-7.062.986-12.483 6.906-12.483 14.126 0 4.798 2.414 9.058 6.15 11.614l-26.515 55.742h17.312l12.255-25.785c2.278-4.754 9.112-4.754 11.39-.045l12.62 25.83h17.494l-27.381-56.011zm-8.838-2.511c-4.92 0-8.929-3.946-8.929-8.789 0-4.844 4.009-8.79 8.929-8.79s8.93 3.946 8.93 8.79c0 4.843-4.01 8.789-8.93 8.789z" fill="#4285F4"/><path d="M119.225 114.027c4.92 0 8.929 3.946 8.929 8.79 0 4.843-4.009 8.789-8.929 8.789-4.921 0-8.93-3.946-8.93-8.789 0-4.889 4.009-8.79 8.93-8.79zm3.553-5.292v-9.058c0-1.525-1.23-2.736-2.779-2.736s-2.779 1.211-2.779 2.736v8.969c-7.061.986-12.528 6.951-12.528 14.171 0 4.798 2.414 9.058 6.15 11.614l-33.485 70.227c-2.415 5.112 1.367 11.032 7.153 11.032a7.945 7.945 0 007.152-4.485l22.278-46.862c2.278-4.754 9.112-4.754 11.39-.045l22.779 46.593a7.857 7.857 0 007.061 4.395c5.786 0 9.613-5.964 7.062-11.077l-34.169-70.092c3.417-2.601 5.649-6.681 5.649-11.3 0-6.682-4.647-12.243-10.934-13.813" fill="#073042"/><path d="M152.119 56.899H90.524v11.076h61.595V56.9z" fill="#fff"/><path d="M143.144 66.672c-2.323 0-4.191-1.838-4.191-4.125s1.868-4.126 4.191-4.126c2.324 0 4.192 1.839 4.192 4.126 0 2.287-1.868 4.125-4.192 4.125zm-46.287 0c-2.323 0-4.191-1.838-4.191-4.125s1.868-4.126 4.191-4.126c2.324 0 4.192 1.839 4.192 4.126 0 2.287-1.868 4.125-4.192 4.125zm47.791-24.799l8.382-14.26c.502-.808.183-1.884-.637-2.332-.82-.493-1.914-.18-2.369.628l-8.474 14.44c-6.515-2.96-13.759-4.575-21.549-4.575-7.745 0-15.034 1.615-21.55 4.53l-8.427-14.44c-.502-.807-1.55-1.121-2.37-.628-.82.493-1.138 1.525-.637 2.332l8.383 14.26c-14.397 7.714-24.237 22.064-25.695 38.97h100.592c-1.458-16.906-11.253-31.256-25.649-38.925z" fill="#3DDC84"/><path d="M185.511 111.158h-6.652a.81.81 0 00-.82.807l-.182 102.694a.81.81 0 00.82.807l6.788.045c7.973 0 14.488-6.413 14.488-14.26V96.897c.045 7.848-6.469 14.261-14.442 14.261z" fill="#073042"/></svg>