<?xml version="1.0" encoding="UTF-8" standalone="no"?>
<svg
   width="240"
   height="240"
   fill="none"
   version="1.1"
   id="svg16"
   xmlns="http://www.w3.org/2000/svg"
   xmlns:svg="http://www.w3.org/2000/svg">
  <defs
     id="defs20" />
  <g
     id="g844"
     transform="matrix(1.1822507,0,0,1.1822507,-21.870083,-22.278115)">
    <path
       d="M 100.046,49.093 H 56.082 C 47.244,49.093 40,56.223 40,64.968 c 0,8.7 6.697,15.83 15.535,15.83 h 44.829 z"
       fill="#073042"
       id="path2" />
    <path
       d="M 200,190.171 H 56.082 C 47.244,190.171 40,183.04 40,174.34 V 64.92 c 0,0 -0.046,15.875 17.13,15.875 h 119.362 c 0,0 23.508,-1.975 23.508,15.247 z"
       fill="#4285f4"
       id="path4" />
    <path
       d="m 132.848,134.117 c 3.417,-2.601 5.65,-6.681 5.65,-11.3 0,-7.714 -6.242,-13.992 -13.987,-14.261 0.183,0 0.319,-0.045 0.501,-0.045 0.866,0 1.732,0.09 2.552,0.224 v -9.058 c 0,-1.525 -1.23,-2.736 -2.779,-2.736 -1.549,0 -2.779,1.211 -2.779,2.736 v 8.969 c -7.062,0.986 -12.483,6.906 -12.483,14.126 0,4.798 2.414,9.058 6.15,11.614 l -26.515,55.742 h 17.312 l 12.255,-25.785 c 2.278,-4.754 9.112,-4.754 11.39,-0.045 l 12.62,25.83 h 17.494 z m -8.838,-2.511 c -4.92,0 -8.929,-3.946 -8.929,-8.789 0,-4.844 4.009,-8.79 8.929,-8.79 4.92,0 8.93,3.946 8.93,8.79 0,4.843 -4.01,8.789 -8.93,8.789 z"
       fill="#4285f4"
       id="path6" />
    <path
       d="m 119.225,114.027 c 4.92,0 8.929,3.946 8.929,8.79 0,4.843 -4.009,8.789 -8.929,8.789 -4.921,0 -8.93,-3.946 -8.93,-8.789 0,-4.889 4.009,-8.79 8.93,-8.79 z m 3.553,-5.292 v -9.058 c 0,-1.525 -1.23,-2.736 -2.779,-2.736 -1.549,0 -2.779,1.211 -2.779,2.736 v 8.969 c -7.061,0.986 -12.528,6.951 -12.528,14.171 0,4.798 2.414,9.058 6.15,11.614 l -33.485,70.227 c -2.415,5.112 1.367,11.032 7.153,11.032 a 7.945,7.945 0 0 0 7.152,-4.485 l 22.278,-46.862 c 2.278,-4.754 9.112,-4.754 11.39,-0.045 l 22.779,46.593 a 7.857,7.857 0 0 0 7.061,4.395 c 5.786,0 9.613,-5.964 7.062,-11.077 l -34.169,-70.092 c 3.417,-2.601 5.649,-6.681 5.649,-11.3 0,-6.682 -4.647,-12.243 -10.934,-13.813"
       fill="#073042"
       id="path8" />
    <path
       d="M 152.119,56.899 H 90.524 v 11.076 h 61.595 V 56.9 Z"
       fill="#ffffff"
       id="path10" />
    <path
       d="m 143.144,66.672 c -2.323,0 -4.191,-1.838 -4.191,-4.125 0,-2.287 1.868,-4.126 4.191,-4.126 2.324,0 4.192,1.839 4.192,4.126 0,2.287 -1.868,4.125 -4.192,4.125 z m -46.287,0 c -2.323,0 -4.191,-1.838 -4.191,-4.125 0,-2.287 1.868,-4.126 4.191,-4.126 2.324,0 4.192,1.839 4.192,4.126 0,2.287 -1.868,4.125 -4.192,4.125 z m 47.791,-24.799 8.382,-14.26 c 0.502,-0.808 0.183,-1.884 -0.637,-2.332 -0.82,-0.493 -1.914,-0.18 -2.369,0.628 l -8.474,14.44 c -6.515,-2.96 -13.759,-4.575 -21.549,-4.575 -7.745,0 -15.034,1.615 -21.55,4.53 l -8.427,-14.44 c -0.502,-0.807 -1.55,-1.121 -2.37,-0.628 -0.82,0.493 -1.138,1.525 -0.637,2.332 L 95.4,41.828 C 81.003,49.542 71.163,63.892 69.705,80.798 H 170.297 C 168.839,63.892 159.044,49.542 144.648,41.873 Z"
       fill="#3ddc84"
       id="path12" />
    <path
       d="m 185.511,111.158 h -6.652 a 0.81,0.81 0 0 0 -0.82,0.807 l -0.182,102.694 a 0.81,0.81 0 0 0 0.82,0.807 l 6.788,0.045 c 7.973,0 14.488,-6.413 14.488,-14.26 V 96.897 c 0.045,7.848 -6.469,14.261 -14.442,14.261 z"
       fill="#073042"
       id="path14" />
  </g>
</svg>
