<?xml version="1.0" encoding="UTF-8" standalone="no"?>
<svg
   width="1024px"
   height="1024px"
   viewBox="0 0 1024 1024"
   version="1.1"
   id="svg30"
   xmlns:xlink="http://www.w3.org/1999/xlink"
   xmlns="http://www.w3.org/2000/svg"
   xmlns:svg="http://www.w3.org/2000/svg"
   xmlns:rdf="http://www.w3.org/1999/02/22-rdf-syntax-ns#"
   xmlns:cc="http://creativecommons.org/ns#"
   xmlns:dc="http://purl.org/dc/elements/1.1/">
  <!-- Generator: Sketch 51.2 (57519) - http://www.bohemiancoding.com/sketch -->
  <title
     id="title2">codium_blue_light</title>
  <desc
     id="desc4">Created with Sketch.</desc>
  <defs
     id="defs21">
    <circle
       id="path-1"
       cx="512"
       cy="512"
       r="465" />
    <filter
       x="-0.012903226"
       y="-0.012903226"
       width="1.0258065"
       height="1.0311828"
       filterUnits="objectBoundingBox"
       id="filter-2">
      <feMorphology
         radius="0.5"
         operator="dilate"
         in="SourceAlpha"
         result="shadowSpreadOuter1"
         id="feMorphology7" />
      <feOffset
         dx="0"
         dy="5"
         in="shadowSpreadOuter1"
         result="shadowOffsetOuter1"
         id="feOffset9" />
      <feGaussianBlur
         stdDeviation="5"
         in="shadowOffsetOuter1"
         result="shadowBlurOuter1"
         id="feGaussianBlur11" />
      <feColorMatrix
         values="0 0 0 0 0   0 0 0 0 0   0 0 0 0 0  0 0 0 0.35 0"
         type="matrix"
         in="shadowBlurOuter1"
         id="feColorMatrix13" />
    </filter>
    <linearGradient
       x1="218.1865"
       y1="188.49929"
       x2="815.12002"
       y2="779.58052"
       id="linearGradient-3"
       gradientTransform="scale(0.97164582,1.0291816)"
       gradientUnits="userSpaceOnUse">
      <stop
         stop-color="#56CCF2"
         offset="0%"
         id="stop16" />
      <stop
         stop-color="#2F80ED"
         offset="100%"
         id="stop18" />
    </linearGradient>
  </defs>
  <g
     id="codium_blue_light"
     stroke="none"
     stroke-width="1"
     fill="none"
     fill-rule="evenodd"
     transform="matrix(1.067779,0,0,1.067779,-34.702895,-37.372281)">
    <g
       id="Oval">
      <use
         fill="#000000"
         fill-opacity="1"
         filter="url(#filter-2)"
         xlink:href="#path-1"
         id="use23"
         x="0"
         y="0"
         width="100%"
         height="100%" />
      <use
         fill="#ffffff"
         fill-rule="evenodd"
         xlink:href="#path-1"
         id="use25"
         x="0"
         y="0"
         width="100%"
         height="100%" />
    </g>
    <path
       d="m 599.25183,204.98959 c 4.17409,-6.58275 11.6464,-10.96213 19.48822,-10.9895 10.9895,-0.0274 21.44526,6.14481 27.80905,14.93094 5.99427,8.40293 7.84182,19.02292 7.8555,29.16391 -0.0958,14.26035 -3.38033,28.27435 -7.2944,41.91885 -9.78517,32.20211 -23.07384,63.21357 -32.99586,95.37462 -10.93476,36.49937 -16.17633,77.17283 -1.49173,113.41217 7.6776,-21.43157 15.27308,-42.9042 22.9233,-64.36315 2.176,-5.66582 5.03628,-12.11172 11.11267,-14.43826 8.45767,-3.01082 17.07957,5.81636 16.83323,13.98664 -2.31286,11.90643 -6.80172,23.25175 -10.33259,34.82973 -28.61649,86.02738 -60.66806,170.86413 -91.52898,256.11143 41.04297,-37.52578 82.20912,-74.91471 123.30683,-112.37207 11.82432,-10.77053 24.64768,-22.49905 28.27435,-38.77117 3.61299,-15.97104 -3.10662,-31.81891 -10.72947,-45.53184 -8.79981,-16.36792 -20.03565,-31.92839 -24.16869,-50.34914 -2.0802,-9.53883 -1.45066,-20.51465 4.98154,-28.3291 4.63941,-5.88479 13.08339,-8.92298 20.21357,-6.04901 7.03437,2.68236 11.27689,9.44303 14.60248,15.8205 11.16741,22.40325 18.13336,46.8867 20.52833,71.80809 7.62285,-15.38256 15.34151,-30.71038 22.97804,-46.07925 4.61204,-9.05984 8.69033,-18.77658 16.17633,-25.93413 4.51623,-4.46149 11.09898,-7.26703 17.47645,-5.81636 7.99236,1.76544 13.60344,9.03247 15.75207,16.58689 2.43603,8.01974 -0.13685,16.36792 -2.72343,23.99078 -7.70496,21.3084 -19.80299,40.59135 -31.46308,59.88798 -16.25844,25.55092 -33.5296,50.486 -52.37461,74.20306 10.77053,-7.1986 22.11585,-14.76671 35.30872,-16.27212 12.48123,-1.66964 26.27627,5.63845 30.4093,17.81859 2.76448,8.29345 -1.71069,17.68174 -9.22406,21.73266 -11.01687,6.14481 -24.0592,6.0627 -36.30777,6.61012 -44.43699,1.21802 -87.75177,23.10121 -115.32816,57.93095 -21.76002,27.78167 -32.87269,62.29663 -54.96118,89.84565 -13.93189,16.79218 -33.60963,37.87081 -55.26226,33.21484 -28.83546,-6.2005 -28.83546,-51.26608 -36.02037,-73.60091 -3.70879,-11.2632 -10.66105,-21.55474 -20.30936,-28.57543 -8.4303,-6.22693 -18.53024,-9.79886 -28.73966,-11.75589 -23.42967,-4.50255 -47.59836,-2.12126 -70.97328,-6.95226 -11.70115,-2.38129 -23.22439,-7.07543 -32.16105,-15.16359 -8.51241,-7.47232 -14.3972,-17.47645 -18.4755,-27.9459 -8.81349,-22.80013 -10.6063,-47.54361 -18.43444,-70.63114 -11.33164,-33.24221 -33.74857,-62.62509 -62.95354,-82.14069 -6.1585,-4.16041 -12.85073,-8.21133 -16.83323,-14.69828 -3.24348,-5.06366 -2.95608,-12.26226 1.28644,-16.68269 7.15755,-7.78708 20.09039,-8.4303 28.35647,-1.98441 16.94271,12.01592 19.39243,35.36347 35.18555,48.43318 0.0274,-21.56844 -0.0821,-43.12318 -0.12317,-64.67793 0.0548,-6.22692 -0.64322,-12.93285 2.47709,-18.59866 2.83291,-5.36474 10.67473,-6.81541 15.23202,-2.79186 6.1585,5.15946 8.03342,13.57607 8.90929,21.19893 3.06557,29.71133 6.02165,59.43635 9.1009,89.16137 15.47836,-13.90452 22.59484,-36.472 17.58593,-56.71293 -1.51909,-6.45958 -3.98249,-13.11076 -2.58657,-19.81668 1.1359,-5.62476 7.1028,-9.57989 12.72757,-8.58084 6.32272,0.86219 10.83895,6.28167 13.20655,11.85169 3.77722,9.22406 3.7909,19.50191 3.02451,29.30077 -2.24443,22.32113 -11.68746,42.93158 -18.20178,64.17155 -6.3501,18.74921 -10.71579,39.57862 -4.35201,58.94368 5.66582,18.10599 20.03565,32.42107 36.89625,40.53661 20.81573,10.22311 44.25908,13.39815 67.19607,14.3014 -13.94558,-24.40134 -29.10917,-50.22598 -28.84915,-79.25304 0.27371,-29.23234 18.85869,-53.85265 23.88129,-82.05857 8.55347,-46.80459 -12.56334,-97.67379 -51.88193,-124.52485 -17.46276,-12.00223 -38.42903,-17.33959 -56.37079,-28.46595 -16.23107,-9.93571 -30.80618,-27.61744 -28.26067,-47.74889 12.33068,-4.77626 26.09835,-1.72438 37.2247,4.68046 21.74635,11.60535 35.58244,33.61171 57.43827,45.03915 7.67759,4.18778 16.47741,6.2543 25.22247,5.72056 4.7352,-11.34532 0,-24.0592 -7.63653,-32.90007 -14.36984,-17.31222 -38.62064,-21.51369 -53.64737,-38.05952 -7.52706,-8.63558 -11.72852,-20.97995 -8.56716,-32.27053 2.57289,-8.92298 11.81063,-14.99937 21.00733,-14.32878 13.61712,0.84851 25.34564,9.37461 34.65182,18.7629 30.80618,30.79249 48.52897,72.67028 55.48123,115.23235 8.21133,50.19861 1.83386,101.40995 -8.27976,150.84217 -1.88861,10.07256 -5.41948,20.40516 -2.80554,30.683 1.12222,4.76258 4.55729,9.67569 9.82623,10.09994 7.25334,0.46531 13.24761,-4.47517 18.53023,-8.79981 16.51847,-13.49395 29.64291,-31.65468 35.06239,-52.45672 4.22884,-15.16359 4.35201,-31.03884 4.05092,-46.65405 0.0821,-7.81445 -0.49268,-16.43635 4.1741,-23.19701 3.33927,-5.22788 9.5662,-9.33355 15.97104,-7.81445 5.0226,0.95799 8.58084,5.30999 10.11362,9.97676 2.4634,7.6776 2.09389,15.97104 0.60217,23.81287 -4.72152,21.62317 -8.99141,43.53374 -17.54488,64.06207 -6.03533,14.73934 -14.19192,28.75335 -25.23616,40.30395 -12.18014,12.90548 -27.22057,23.25176 -37.03311,38.29218 -6.69223,10.27785 -11.01687,23.04647 -8.11553,35.32241 2.12126,9.79886 9.57989,17.79122 18.5713,21.86952 13.09707,5.98058 28.99968,5.6795 41.7683,-1.05379 10.12731,-5.47422 17.32591,-14.94463 23.06016,-24.67505 10.09994,-17.50383 16.21738,-36.93731 21.29472,-56.39817 7.81445,-31.42203 12.41279,-63.63782 14.21929,-95.9631 2.06652,-34.52865 -4.20147,-70.23425 -21.60949,-100.39721 -9.25143,-16.14895 -22.33482,-29.90293 -37.62158,-40.42712 -13.76767,-10.2368 -28.90389,-19.10504 -40.0713,-32.36634 -10.44208,-12.28962 -17.68174,-28.87651 -13.87715,-45.18969 7.14385,-4.48886 16.16263,-5.26894 24.07288,-2.4634 14.93094,5.07734 26.6184,17.06588 34.15914,30.62827 10.2368,15.98472 18.77658,35.00764 36.81414,43.68428 -14.67091,-28.86283 -29.80713,-57.47932 -44.65596,-86.24635 -4.831,-9.71675 -9.59357,-20.33674 -8.3345,-31.4494 0.91693,-8.47136 8.78612,-15.42362 17.28485,-15.38257 7.54074,0.0274 14.61617,4.2699 19.10504,10.18206 5.13208,6.65117 7.58179,14.84882 9.89465,22.81381 11.838,41.19352 23.66232,82.37334 35.54138,123.55317 14.93094,-28.43857 21.23998,-61.39339 16.99746,-93.3081 -1.86124,-16.91534 -6.82909,-33.25589 -10.77053,-49.76067 -2.68237,-10.7979 -1.87492,-22.90961 4.28358,-32.42107 z"
       id="Shape"
       fill="url(#linearGradient-3)"
       fill-rule="nonzero"
       style="fill:url(#linearGradient-3)" />
  </g>
  <metadata
     id="metadata849">
    <rdf:RDF>
      <cc:Work
         rdf:about="">
        <dc:title>codium_blue_light</dc:title>
      </cc:Work>
    </rdf:RDF>
  </metadata>
</svg>
