<?xml version="1.0" encoding="UTF-8" standalone="no"?>
<svg
   id="Layer_1"
   data-name="Layer 1"
   viewBox="0 0 90 90.000003"
   version="1.1"
   width="90"
   height="90"
   xmlns="http://www.w3.org/2000/svg"
   xmlns:svg="http://www.w3.org/2000/svg"
   xmlns:rdf="http://www.w3.org/1999/02/22-rdf-syntax-ns#"
   xmlns:cc="http://creativecommons.org/ns#"
   xmlns:dc="http://purl.org/dc/elements/1.1/">
  <defs
     id="defs9">
    <style
       id="style2">.Graphic-Style-2{fill:url(#linear-gradient);}</style>
    <linearGradient
       id="linear-gradient"
       x1="1.5"
       y1="29.09"
       x2="88.300003"
       y2="38.209999"
       gradientUnits="userSpaceOnUse"
       gradientTransform="translate(-0.01703767,11.944815)">
      <stop
         offset="0"
         stop-color="#06a0ce"
         id="stop4" />
      <stop
         offset="1"
         stop-color="#51cbbf"
         id="stop6" />
    </linearGradient>
  </defs>
  <title
     id="title11">gradle-elephant-icon-gradient-primary</title>
  <path
     class="Graphic-Style-2"
     d="m 85.092962,16.124815 a 14.27,14.27 0 0 0 -19.83,-0.34 1.38,1.38 0 0 0 0,2 l 1.72,1.76 a 1.36,1.36 0 0 0 1.78,0.12 8.18,8.18 0 0 1 10.72,12.34 c -11.33,11.32 -26.45,-20.42 -60.77,-4.06 a 4.65,4.65 0 0 0 -2,6.54 l 5.89,10.17 a 4.64,4.64 0 0 0 6.3,1.73 l 0.14,-0.08 -0.11,0.08 2.58,-1.44 a 60.29,60.29 0 0 0 8.22,-6.13 1.44,1.44 0 0 1 1.87,-0.06 v 0 a 1.34,1.34 0 0 1 0.06,2 61.61,61.61 0 0 1 -8.68,6.53 h -0.09 l -2.61,1.46 a 7.34,7.34 0 0 1 -3.61,0.94 7.45,7.45 0 0 1 -6.47,-3.71 l -5.57,-9.61 c -10.6499997,7.58 -17.1899997,22.14 -13.64999967,40.58 a 1.36,1.36 0 0 0 1.32999997,1.11 h 6.28 a 1.36,1.36 0 0 0 1.39,-1.24 9.29,9.29 0 0 1 18.4199997,0 1.35,1.35 0 0 0 1.34,1.19 h 6.14 a 1.36,1.36 0 0 0 1.34,-1.19 9.29,9.29 0 0 1 18.42,0 1.36,1.36 0 0 0 1.34,1.19 h 6.1 a 1.36,1.36 0 0 0 1.36,-1.34 c 0.14,-8.6 2.46,-18.48 9.07,-23.43 22.9,-17.13 16.88,-31.81 11.58,-37.11 z m -23.35,25.87 -4.37,-2.19 v 0 a 2.74,2.74 0 1 1 4.37,2.2 z"
     id="path13"
     style="fill:url(#linear-gradient)" />
  <metadata
     id="metadata833">
    <rdf:RDF>
      <cc:Work
         rdf:about="">
        <dc:title>gradle-elephant-icon-gradient-primary</dc:title>
      </cc:Work>
    </rdf:RDF>
  </metadata>
</svg>
