<?xml version="1.0" encoding="UTF-8" standalone="no"?>
<!-- Created with Inkscape (http://www.inkscape.org/) -->

<svg
   width="6mm"
   height="6mm"
   viewBox="0 0 5.9999999 6.0000002"
   version="1.1"
   id="svg1293"
   xmlns="http://www.w3.org/2000/svg"
   xmlns:svg="http://www.w3.org/2000/svg">
  <defs
     id="defs1290">
    <linearGradient
       id="paint0_linear_8323_10753"
       x1="34.513199"
       y1="15.5354"
       x2="27.1574"
       y2="30.4484"
       gradientUnits="userSpaceOnUse"
       gradientTransform="matrix(0.26458333,0,0,0.26458333,-6.1361506,-4.2535472)">
      <stop
         stop-color="#3F873F"
         id="stop24" />
      <stop
         offset="0.3296"
         stop-color="#3F8B3D"
         id="stop26" />
      <stop
         offset="0.6367"
         stop-color="#3E9638"
         id="stop28" />
      <stop
         offset="0.9341"
         stop-color="#3DA92E"
         id="stop30" />
      <stop
         offset="1"
         stop-color="#3DAE2B"
         id="stop32" />
    </linearGradient>
    <linearGradient
       id="paint1_linear_8323_10753"
       x1="30.008801"
       y1="23.3589"
       x2="50.532799"
       y2="8.2884102"
       gradientUnits="userSpaceOnUse"
       gradientTransform="matrix(0.26458333,0,0,0.26458333,-6.1361506,-4.2535472)">
      <stop
         offset="0.1376"
         stop-color="#3F873F"
         id="stop35" />
      <stop
         offset="0.4016"
         stop-color="#52A044"
         id="stop37" />
      <stop
         offset="0.7129"
         stop-color="#64B749"
         id="stop39" />
      <stop
         offset="0.9081"
         stop-color="#6ABF4B"
         id="stop41" />
    </linearGradient>
    <linearGradient
       id="paint2_linear_8323_10753"
       x1="21.9168"
       y1="22.260799"
       x2="40.554901"
       y2="22.260799"
       gradientUnits="userSpaceOnUse"
       gradientTransform="matrix(0.26458333,0,0,0.26458333,-6.1361506,-4.2535472)">
      <stop
         offset="0.0919165"
         stop-color="#6ABF4B"
         id="stop44" />
      <stop
         offset="0.2871"
         stop-color="#64B749"
         id="stop46" />
      <stop
         offset="0.5984"
         stop-color="#52A044"
         id="stop48" />
      <stop
         offset="0.8624"
         stop-color="#3F873F"
         id="stop50" />
    </linearGradient>
  </defs>
  <g
     id="layer1">
    <g
       id="g1971"
       transform="translate(0.24079992,-1.2871439)">
      <path
         d="m 2.7592398,7.059319 c -0.075935,0 -0.1468173,-0.020373 -0.2126192,-0.056039 L 1.8733619,6.600902 C 1.7721323,6.5448632 1.8227471,6.5244903 1.8531212,6.5143038 1.989805,6.4684515 2.0150991,6.4582651 2.1568364,6.3767734 c 0.015187,-0.010186 0.035454,-0.00508 0.050641,0.00511 L 2.723812,6.6925801 c 0.020241,0.010186 0.045535,0.010186 0.060722,0 L 4.8043631,5.5159516 c 0.020108,-0.010187 0.030427,-0.030559 0.030427,-0.056012 V 3.1117887 c 0,-0.025453 -0.010319,-0.045826 -0.030427,-0.056012 L 2.7845339,1.8842543 c -0.020241,-0.010187 -0.045561,-0.010187 -0.060722,0 L 0.70403583,3.0557764 c -0.0202671,0.010186 -0.0303742,0.035639 -0.0303742,0.056012 V 5.459939 c 0,0.020373 0.0101071,0.045826 0.0303742,0.056012 L 1.2557979,5.8368647 C 1.5544596,5.9896615 1.7417581,5.8113853 1.7417581,5.6331091 V 3.3155443 c 0,-0.030559 0.025294,-0.061119 0.060748,-0.061119 h 0.258154 c 0.030374,0 0.060748,0.025453 0.060748,0.061119 v 2.3175648 c 0,0.4024047 -0.2176727,0.6366933 -0.5973233,0.6366933 -0.1164167,0 -0.2075392,0 -0.4657196,-0.1273175 L 0.52684437,5.8368647 C 0.39524062,5.760453 0.31425166,5.6178426 0.31425166,5.4650193 V 3.1168951 c 0,-0.1528233 0.080989,-0.2954337 0.21259271,-0.3718454 L 2.5466206,1.5684476 c 0.1265502,-0.071305 0.2986617,-0.071305 0.4252119,0 l 2.0198556,1.1766021 c 0.1314979,0.076412 0.2124604,0.2190221 0.2124604,0.3718454 v 2.3481242 c 0,0.1528233 -0.080963,0.2954337 -0.2124604,0.3718454 L 2.9718325,7.0134667 C 2.9110841,7.0389461 2.8351752,7.059319 2.7592398,7.059319 Z"
         fill="#5fa04e"
         id="path2"
         style="stroke-width:0.264583" />
      <path
         d="m 3.3869902,5.4446199 c -0.8859838,0 -1.0682023,-0.4074848 -1.0682023,-0.7538508 0,-0.030559 0.025294,-0.061119 0.060722,-0.061119 h 0.2632339 c 0.030374,0 0.055695,0.020373 0.055695,0.050932 0.040481,0.2699544 0.1569244,0.4024048 0.6935787,0.4024048 0.4251855,0 0.6074834,-0.096785 0.6074834,-0.3259931 0,-0.132424 -0.0508,-0.2292086 -0.7138723,-0.2954338 -0.5517621,-0.056039 -0.895985,-0.1782762 -0.895985,-0.6214268 0,-0.4125648 0.3442229,-0.6570663 0.9213056,-0.6570663 0.6480704,0 0.9668933,0.2241286 1.0073746,0.713105 0,0.015293 -0.00503,0.030559 -0.015081,0.045852 -0.010319,0.010186 -0.0254,0.020373 -0.040746,0.020373 H 3.9942089 c -0.025135,0 -0.050535,-0.020373 -0.055562,-0.045852 C 3.8777929,3.6364041 3.7208948,3.544726 3.3058959,3.544726 c -0.4657196,0 -0.5214144,0.1629833 -0.5214144,0.2852208 0,0.1477169 0.065802,0.1935692 0.6935258,0.2750608 0.6225646,0.081492 0.9162521,0.1986492 0.9162521,0.6366934 0,0.4482306 -0.3696229,0.7029185 -1.0072692,0.7029189 z"
         fill="#5fa04e"
         id="path4"
         style="stroke-width:0.264583" />
    </g>
  </g>
</svg>
