<?xml version="1.0" encoding="UTF-8"?>
<svg width="800" height="800" version="1" viewBox="0 0 600 600" xmlns="http://www.w3.org/2000/svg">
 <g transform="matrix(1.0278 0 0 1.0278 -8.3333 -8.3333)">
  <circle cx="300" cy="300" r="269.02" fill="#fff"/>
  <path d="m30 300a270 270 0 0 1 270-270 270 270 0 0 1 270 270 270 270 0 0 1-270 270 270 270 0 0 1-270-270zm33.573 0c0 21.256 1.9462 38.05 6.7329 57.197 16.713 66.689 62.147 123.48 123.24 154.06 34.318 17.118 67.824 24.99 106.28 24.99 21.256 0 38.05-1.9475 57.197-6.7342 66.689-16.713 123.48-62.146 154.07-123.24 15.252-30.586 23.365-61.739 25.15-96.543 0.97354-19.471-1.8676-46.651-6.8977-66.933-16.713-66.689-62.143-123.48-123.23-154.06-34.318-17.118-67.827-24.99-106.28-24.99-21.256 2e-6 -38.049 1.9475-57.196 6.7342-66.689 16.713-123.48 62.146-154.06 123.24-17.118 34.318-24.99 67.824-24.99 106.28zm34.077 28.292c-0.03312-0.91959 0.14504-1.495 0.49966-1.495 0.39406 1e-5 22.303 8.1948 48.547 18.204 26.323 10.009 48.076 18.206 48.392 18.284 0.31524 0.0788 13.239-15.84 28.765-35.307 15.447-19.545 28.53-35.466 29.003-35.387 0.47285 0.0788 21.753 15.449 47.288 34.127 28.372 20.885 46.892 33.967 47.68 33.73 0.70932-0.15762 21.122-12.057 45.317-26.479 24.195-14.344 44.135-26.01 44.214-25.931 0.0788 0.15762-11.664 31.998-26.086 70.774-14.423 38.775-26.245 71.01-26.245 71.483-0.0788 0.55169 5.7533 5.3588 12.925 10.639 7.0931 5.3592 12.924 9.8516 12.924 10.088 0.0788 0.23643-3.3893 2.3652-7.6452 4.8872-31.993 18.619-66.548 28.025-102.76 28.089-2.414 5e-3 -4.8358-0.0333-7.2642-0.11207-16.629-0.55169-26.479-1.8916-42.242-5.7533-58.321-14.344-107.34-53.827-133.98-107.89-9.1422-18.521-15.053-37.2-19.23-60.923-0.05913-0.37436-0.09443-0.71915-0.10547-1.0257zm64.484-36.715c-0.0592-0.17708 0.33882-0.69183 0.56293-1.1918 1.655-3.9406 52.015-140.29 52.015-140.92 0-0.39405-3.6246-3.4676-8.038-6.7777-4.4923-3.3889-10.324-7.8811-13.082-10.009l-4.9663-3.9419 6.5417-3.9393c18.994-11.507 44.055-20.964 67.147-25.377 35.229-6.699 73.926-3.5463 107.34 8.6695 18.757 6.8566 42.715 20.412 58.635 33.258 35.702 28.688 62.578 72.901 71.247 117.27 2.7584 13.95 2.8371 14.578 2.1278 14.578-0.63049 0-95.992-36.016-97.017-36.646-0.23644-0.15762-13.241 15.841-28.767 35.465-15.605 19.703-28.53 35.781-28.767 35.859-0.23645 0-21.594-15.605-47.523-34.599l-47.051-34.598-43.582 25.771c-40.576 24.075-46.614 27.754-46.826 27.121z" fill="#008080" />
 </g>
</svg>
