<?xml version="1.0" encoding="UTF-8"?>
<svg width="550" height="550" version="1" viewBox="0 0 412.5 412.5" xmlns="http://www.w3.org/2000/svg">
 <defs>
  <linearGradient id="d" x1="230.5" x2="372.7" y1="227.4" y2="393.3" gradientUnits="userSpaceOnUse">
   <stop stop-color="#d1d1d1" offset="0"/>
   <stop stop-color="#dedede" stop-opacity="0" offset="1"/>
  </linearGradient>
  <linearGradient id="c" x1="131.7" x2="229.5" y1="399.2" y2="199.3" gradientUnits="userSpaceOnUse">
   <stop stop-color="#e8e8e8" offset="0"/>
   <stop stop-color="#fff" stop-opacity="0" offset="1"/>
  </linearGradient>
  <linearGradient id="b" x1="332.1" x2="443.7" y1="395" y2="226" gradientUnits="userSpaceOnUse">
   <stop stop-color="#d7d7d7" offset="0"/>
   <stop stop-color="#fdfdfd" stop-opacity="0" offset="1"/>
  </linearGradient>
  <linearGradient id="a" x1="687.2" x2="869.7" y1="151.2" y2="543.4" gradientTransform="matrix(.8989 0 0 .9879 -469.9 -138.1)" gradientUnits="userSpaceOnUse">
   <stop stop-color="#1dd7be" offset="0"/>
   <stop stop-color="#0c8d7d" offset="1"/>
  </linearGradient>
 </defs>
 <circle cx="206.2" cy="206.2" r="202.5" fill="#fff" stroke-width=".7788"/>
 <rect x="18.75" y="18.75" width="375" height="375" ry="187.5" fill="url(#a)" stroke-width=".6746"/>
 <g transform="matrix(.9588 0 0 .9588 -15.66 -81.22)" stroke-width="1.211">
  <path d="m427 223.7-69.67 86.36-114.5-83.79-167.8 112.6 98.97 37.44 69.68-86.37 114.5 83.79 68.79-46.57z" fill="#fff"/>
  <path d="m357.3 310.1-114.5-83.79 0.8697 63.66 114.5 83.79z" fill="url(#d)"/>
  <path d="m242.8 226.3-167.8 112.6 98.97 37.44 69.68-86.37z" fill="url(#c)"/>
  <path d="m427 223.3-69.67 86.36 0.875 63.66 68.79-46.13z" fill="url(#b)"/>
 </g>
</svg>
