<svg version="1" xmlns="http://www.w3.org/2000/svg" width="933.333" height="933.333" viewBox="0 0 700.000000 700.000000"><path d="M338 58.6c-42.9 2.2-81.3 12.2-119 31-75.3 37.7-131.3 107.7-151.9 189.9-5.9 23.6-8.3 44.3-8.3 70.5 0 47.4 9.7 88.7 30.8 131 37.7 75.3 107.7 131.3 189.9 151.9 23.6 5.9 44.3 8.3 70.5 8.3 47.4 0 88.7-9.7 131-30.8 75.3-37.7 131.3-107.7 151.9-189.9 5.9-23.6 8.3-44.3 8.3-70.5 0-47.4-9.7-88.7-30.8-131-37.7-75.3-107.7-131.3-189.9-151.9-25-6.2-58.5-9.7-82.5-8.5zm64.5 38c56.3 11 112.4 45.1 148.8 90.4 16.3 20.2 33.5 50.6 42.2 74.4 15.5 42.4 19.5 91.5 11 136.2-5.6 29.3-17.6 61.1-32.2 85.2l-5 8.3-5-6.3c-2.7-3.5-8.4-10.9-12.7-16.6-4.2-5.6-8.1-10.2-8.6-10.2-.8 0-173.8 63.9-178.8 66-2.9 1.3-6.2 7.2 32.9-58.7l32.7-55.3-43.9-59.7c-24.1-32.9-43.9-60-43.9-60.3.1-.3 20.5-16.7 45.5-36.5 24.9-19.7 45.2-36.2 45-36.5-.8-1.3-46.5-122.3-46.5-123.1 0-.9.8-.8 18.5 2.7zm-95.6 135c-18.3 30.7-33.4 56.6-33.6 57.5-.3 1 16.3 24.5 42.8 60.5 23.7 32.4 43.2 59.4 43.3 60 .1.6-20.1 17.2-44.9 36.8-24.7 19.7-44.9 36.1-44.8 36.5.1.4 10.5 28 23.2 61.4 12.7 33.3 23.1 61.1 23.1 61.6 0 .6-1.3.8-3.2.5-30.1-5.3-53.8-12.8-77.3-24.4-68.6-33.8-118.7-96-136.9-170-4.9-20-6.6-32.5-7.3-53.6-1.6-49.3 10.3-96.3 35.5-139.6 3.2-5.4 5.9-9.8 6.2-9.7.3 0 6 7.4 12.8 16.4 6.7 9.1 12.8 16.5 13.5 16.4.6 0 41.5-15 90.7-33.3 49.2-18.3 89.6-33.2 89.8-33.1.1.1-14.7 25.4-32.9 56.1z"/></svg>