<?xml version="1.0" standalone="no"?>
<!DOCTYPE svg PUBLIC "-//W3C//DTD SVG 20010904//EN"
 "http://www.w3.org/TR/2001/REC-SVG-20010904/DTD/svg10.dtd">
<svg version="1.0" xmlns="http://www.w3.org/2000/svg"
 width="700.000000pt" height="700.000000pt" viewBox="0 0 700.000000 700.000000"
 preserveAspectRatio="xMidYMid meet">
<metadata>
Created by potrace 1.11, written by Peter Selinger 2001-2013
</metadata>
<g transform="translate(0.000000,700.000000) scale(0.100000,-0.100000)"
fill="#000000" stroke="none">
<path d="M3330 6734 c-701 -47 -1318 -282 -1850 -704 -136 -108 -405 -376
-510 -510 -342 -432 -570 -941 -660 -1470 -33 -200 -44 -329 -44 -550 0 -382
52 -699 173 -1053 354 -1034 1231 -1834 2291 -2092 263 -63 479 -88 770 -88
236 0 337 8 550 43 640 108 1228 408 1704 870 551 534 880 1213 967 1995 16
142 16 508 0 650 -72 642 -298 1198 -691 1696 -105 132 -374 401 -509 508
-481 381 -1033 612 -1639 686 -122 15 -449 26 -552 19z m578 -428 c319 -49
637 -152 907 -295 752 -397 1295 -1120 1459 -1941 117 -584 56 -1168 -179
-1706 -144 -329 -331 -602 -594 -865 -374 -374 -804 -619 -1316 -749 -252 -64
-350 -75 -680 -75 -303 0 -369 6 -590 50 -300 60 -670 211 -935 380 -713 455
-1196 1218 -1296 2045 -18 156 -18 531 1 694 72 613 356 1202 793 1644 465
469 1074 764 1717 832 126 13 594 4 713 -14z"/>
<path d="M3314 5939 c-261 -19 -552 -92 -808 -205 -120 -52 -328 -166 -329
-180 -1 -5 67 -62 151 -127 l151 -117 -33 -93 c-66 -180 -400 -1085 -497
-1346 -54 -145 -98 -266 -96 -267 3 -3 105 57 821 479 136 81 252 147 256 147
5 0 147 -102 317 -227 439 -323 811 -593 817 -593 3 0 159 192 346 426 188
234 347 424 353 421 7 -2 138 -52 292 -110 778 -296 860 -326 863 -312 2 8 -9
74 -23 147 -76 376 -262 767 -510 1073 -94 116 -286 302 -397 385 -180 135
-440 280 -640 356 -194 74 -436 125 -683 143 -154 12 -187 12 -351 0z"/>
<path d="M2791 3418 c-77 -95 -220 -272 -318 -394 -98 -121 -190 -235 -205
-252 l-26 -31 -419 158 c-696 264 -738 279 -745 273 -4 -4 5 -63 19 -132 137
-679 523 -1243 1103 -1614 114 -72 361 -190 495 -236 377 -129 719 -164 1120
-114 296 37 579 128 850 275 126 68 160 92 152 106 -3 5 -67 55 -140 111 -74
56 -140 108 -146 116 -8 10 -1 43 33 137 33 94 455 1236 563 1527 9 23 14 44
12 46 -2 3 -236 -133 -519 -300 -283 -167 -525 -307 -537 -310 -26 -7 -41 4
-623 426 -239 174 -456 331 -482 348 l-47 32 -140 -172z"/>
</g>
</svg>
