<?xml version="1.0" standalone="no"?>
<!DOCTYPE svg PUBLIC "-//W3C//DTD SVG 20010904//EN"
 "http://www.w3.org/TR/2001/REC-SVG-20010904/DTD/svg10.dtd">
<svg version="1.0" xmlns="http://www.w3.org/2000/svg"
 width="700.000000pt" height="700.000000pt" viewBox="0 0 700.000000 700.000000"
 preserveAspectRatio="xMidYMid meet">
<metadata>
Created by potrace 1.14, written by Peter Selinger 2001-2017
</metadata>
<g transform="translate(0.000000,700.000000) scale(0.100000,-0.100000)"
fill="#000000" stroke="none">
<path d="M3437 6683 c-1 -1 -58 -4 -127 -7 -69 -4 -136 -8 -150 -11 -14 -2
-47 -7 -75 -10 -45 -5 -76 -10 -140 -21 -897 -160 -1669 -682 -2153 -1458
-103 -164 -218 -401 -279 -571 -46 -130 -106 -330 -119 -400 -3 -16 -9 -49
-14 -72 -13 -56 -40 -236 -45 -301 -3 -28 -7 -78 -10 -110 -11 -122 -5 -448
10 -562 3 -19 7 -55 10 -80 29 -241 101 -516 202 -768 414 -1037 1347 -1780
2458 -1956 236 -38 636 -48 815 -21 19 2 58 7 85 10 233 25 598 119 780 200
17 7 68 30 115 50 420 180 849 506 1155 879 22 27 45 54 50 60 13 14 143 199
176 251 170 265 301 561 388 875 22 82 60 251 66 299 2 17 6 40 10 52 9 28 8
27 -206 -118 -96 -66 -286 -195 -424 -288 -137 -93 -296 -200 -351 -238 l-101
-69 -159 115 c-88 64 -163 120 -169 124 -5 5 -59 44 -120 88 -60 44 -148 108
-195 143 -47 34 -96 70 -109 80 -120 87 -500 365 -516 376 -36 27 -189 139
-280 206 -247 182 -313 228 -321 222 -7 -6 -69 -80 -122 -147 -4 -5 -48 -60
-97 -121 -50 -60 -103 -127 -120 -148 -16 -22 -34 -44 -40 -50 -5 -6 -37 -45
-70 -86 -33 -41 -68 -84 -77 -95 -9 -11 -107 -132 -218 -270 -110 -137 -206
-257 -213 -265 -7 -8 -48 -59 -91 -113 -43 -53 -82 -97 -87 -97 -5 0 -43 14
-85 30 -42 17 -183 71 -313 119 -130 49 -333 126 -451 171 -118 45 -336 127
-483 182 -213 80 -265 104 -255 113 7 7 240 164 518 350 278 186 606 407 730
490 124 83 446 299 715 480 270 181 548 368 620 416 l130 88 30 -23 c60 -46
697 -511 719 -526 12 -8 96 -69 187 -136 609 -448 920 -674 926 -674 5 1 27
24 49 53 66 84 393 490 412 512 9 11 33 40 52 65 34 44 65 81 85 104 6 6 73
90 150 186 76 96 142 177 145 180 3 3 21 24 39 48 l33 43 -22 62 c-41 113
-120 290 -177 397 -51 95 -178 308 -192 320 -3 3 -21 28 -40 55 -114 166 -370
440 -541 581 -263 217 -535 380 -847 508 -71 30 -286 102 -323 110 -14 3 -41
10 -60 16 -127 38 -400 83 -585 96 -93 6 -285 11 -288 7z"/>
</g>
</svg>
