<?xml version="1.0" standalone="no"?>
<!DOCTYPE svg PUBLIC "-//W3C//DTD SVG 20010904//EN"
 "http://www.w3.org/TR/2001/REC-SVG-20010904/DTD/svg10.dtd">
<svg version="1.0" xmlns="http://www.w3.org/2000/svg"
 width="700.000000pt" height="700.000000pt" viewBox="0 0 700.000000 700.000000"
 preserveAspectRatio="xMidYMid meet">
<metadata>
Created by potrace 1.14, written by Peter Selinger 2001-2017
</metadata>
<g transform="translate(0.000000,700.000000) scale(0.100000,-0.100000)"
fill="#000000" stroke="none">
<path d="M2201 6553 c-255 -42 -484 -211 -598 -438 -130 -259 -134 -516 -12
-773 37 -78 56 -106 121 -184 l48 -56 0 -190 0 -189 -46 -134 c-25 -74 -77
-224 -114 -334 -38 -110 -89 -258 -114 -330 -97 -280 -249 -724 -271 -790 -13
-38 -65 -189 -115 -335 -121 -350 -190 -551 -255 -740 -29 -85 -67 -195 -84
-245 -97 -273 -109 -452 -46 -670 112 -385 448 -667 834 -701 97 -9 3801 -9
3902 -1 482 42 873 476 872 967 -1 121 -18 209 -69 360 -20 58 -77 222 -126
365 -49 143 -105 307 -124 365 -19 58 -39 114 -44 125 -4 11 -24 67 -43 125
-20 58 -77 224 -127 370 -50 146 -100 290 -110 320 -10 30 -68 199 -128 375
-61 176 -156 452 -211 614 l-101 294 0 189 0 188 58 69 c144 171 225 444 193
651 -30 198 -120 380 -249 506 -116 113 -273 197 -422 224 -93 18 -2518 20
-2619 3z m2589 -389 c116 -34 219 -123 275 -238 41 -84 53 -139 49 -231 -6
-139 -70 -262 -181 -350 -28 -22 -57 -53 -64 -69 -13 -30 -20 -549 -8 -616 5
-28 98 -301 212 -628 l15 -42 -36 -48 c-20 -26 -39 -49 -42 -52 -5 -4 -107
-130 -227 -280 -163 -203 -256 -316 -263 -318 -5 -2 -136 90 -292 204 -604
442 -676 495 -781 571 -59 43 -113 83 -120 88 -7 6 -79 60 -161 119 l-150 109
-34 -19 c-18 -10 -294 -194 -614 -409 -319 -214 -586 -393 -593 -398 -8 -4 13
70 46 165 33 95 71 205 84 243 13 39 69 203 125 365 56 162 105 309 109 325
12 53 5 591 -8 622 -6 15 -29 40 -51 56 -49 35 -121 119 -150 176 -47 94 -59
256 -25 354 48 141 182 272 310 303 38 9 347 13 1286 13 1089 1 1243 -1 1289
-15z"/>
</g>
</svg>
