<?xml version="1.0" encoding="UTF-8"?>
<svg version="1.1" viewBox="15 0 691 541" xmlns="http://www.w3.org/2000/svg">
 <path d="m284.66 103.55v0.22l9.62-0.61 9.62-0.35 9.62 1.23 9.61 0.01 19.24-0.08 9.62-0.86 9.62 0.05 9.62-0.33 9.61 0.26 9.62 0.65 9.62-0.03 9.62-0.16q6.32 0 6.32 6.32h-0.03l0.09 5.89-0.26 5.9 0.23 5.9-0.14 5.89 0.11 5.9q0 6.32-6.32 6.32v-0.61l-9.62 0.75-9.62-0.64-9.62 0.7-9.61-0.39-9.62-0.48-9.62 0.41-9.62 0.95-9.62-0.35-9.62-0.69-9.61 0.4-9.62-0.5-9.62 0.81-9.62-0.36q-6.32 0-6.32-6.32h0.17l0.06-5.9-0.27-5.89-0.02-5.9 0.06-5.9v-5.89q0-6.32 6.32-6.32z" opacity=".25" stroke="#000" stroke-linecap="round" stroke-linejoin="round" stroke-miterlimit="10" stroke-width="2"/>
 <path d="m282.66 100.55v0.22l9.62-0.61 9.62-0.35 9.62 1.23 9.61 0.01 19.24-0.08 9.62-0.86 9.62 0.05 9.62-0.33 9.61 0.26 9.62 0.65 9.62-0.03 9.62-0.16q6.32 0 6.32 6.32h-0.03l0.09 5.89-0.26 5.9 0.23 5.9-0.14 5.89 0.11 5.9q0 6.32-6.32 6.32v-0.61l-9.62 0.75-9.62-0.64-9.62 0.7-9.61-0.39-9.62-0.48-9.62 0.41-9.62 0.95-9.62-0.35-9.62-0.69-9.61 0.4-9.62-0.5-9.62 0.81-9.62-0.36q-6.32 0-6.32-6.32h0.17l0.06-5.9-0.27-5.89-0.02-5.9 0.06-5.9v-5.89q0-6.32 6.32-6.32z" fill="#f0fff5" pointer-events="all" stroke="#3ce4bb" stroke-linecap="round" stroke-linejoin="round" stroke-miterlimit="10" stroke-width="2"/>
 <text x="344.685" y="127.10999" fill="#3b57a6" text-anchor="middle">pipelines build</text>
 <g fill="none" stroke-linecap="round" stroke-linejoin="round" stroke-miterlimit="10" stroke-width="2">
  <path d="m201.71 272.02v0.11l4.75-0.06 4.75-0.21 4.76 0.06 4.75-0.04 4.75 0.14q10 0 10-10h0.24l-0.82-9.8 0.33-9.8 0.77-9.8-0.76-9.8-0.21-9.8-0.07-9.81 1.13-9.8-0.34-9.8-0.69-9.8-0.03-9.8 0.68-9.8 0.39-9.8-0.62-9.8q0-10 10-10v0.13l4.52-0.09 4.53 0.15 4.53-0.1 4.53-0.03 4.53-0.06" opacity=".25" stroke="#000"/>
  <path d="m199.71 269.02v0.11l4.75-0.06 4.75-0.21 4.76 0.06 4.75-0.04 4.75 0.14q10 0 10-10h0.24l-0.82-9.8 0.33-9.8 0.77-9.8-0.76-9.8-0.21-9.8-0.07-9.81 1.13-9.8-0.34-9.8-0.69-9.8-0.03-9.8 0.68-9.8 0.39-9.8-0.62-9.8q0-10 10-10v0.13l4.52-0.09 4.53 0.15 4.53-0.1 4.53-0.03 4.53-0.06" pointer-events="stroke" stroke="#8db9ff"/>
  <path d="m191.71 269.02-0.02-0.02 0.99-0.61 0.69-0.92 0.65-0.95 0.77-0.82 0.92-0.68-0.08-0.09 0.95 0.95 0.75 0.76 2.38 2.38-0.12-0.12-0.57 1.02-0.95 0.66-0.72 0.87-0.83 0.78-0.81 0.79-0.12-0.12-0.72-0.73-0.65-0.64-1.07-1.08-0.46-0.46z" pointer-events="all" stroke="#8db9ff"/>
 </g>
 <g stroke-linecap="round" stroke-linejoin="round" stroke-miterlimit="10" stroke-width="2">
  <path d="m274.11 121.61-0.03-0.09-1.6 0.53-1.57 0.64-1.64 0.4-3.16 1.18h-0.03l-0.05-1.06 0.09-1.07-0.13-1.07 0.13-1.06-0.01-1.07 0.04 0.14 1.63 0.61 1.52 0.3 1.64 0.65 1.59 0.49z" fill="#8db9ff" pointer-events="all" stroke="#8db9ff"/>
  <path d="m284.66 250.96v0.14l9.62-0.2 9.62-0.17 9.62 0.28 9.61-0.22 9.62-0.03 9.62-0.41 9.62 0.72 9.62 0.63 9.62-0.72 9.61 0.52 9.62-0.86 9.62 0.27 9.62 0.05q6.32 0 6.32 6.32h-0.23l0.23 5.9 0.05 5.89-0.28 5.9 0.37 5.89-0.14 5.9q0 6.32-6.32 6.32v0.11l-9.62-0.17-9.62 0.7-9.62-0.75-9.61-0.16-9.62 0.97-9.62-1.35-9.62-0.03-9.62 1.09-9.62-0.79-9.61 0.42-9.62 0.42-9.62-0.63-9.62 0.17q-6.32 0-6.32-6.32h0.09l-0.21-5.9 0.17-5.89-0.06-5.9-0.14-5.89 0.15-5.9q0-6.32 6.32-6.32z" opacity=".25" stroke="#000"/>
  <path d="m282.66 247.96v0.14l9.62-0.2 9.62-0.17 9.62 0.28 9.61-0.22 9.62-0.03 9.62-0.41 9.62 0.72 9.62 0.63 9.62-0.72 9.61 0.52 9.62-0.86 9.62 0.27 9.62 0.05q6.32 0 6.32 6.32h-0.23l0.23 5.9 0.05 5.89-0.28 5.9 0.37 5.89-0.14 5.9q0 6.32-6.32 6.32v0.11l-9.62-0.17-9.62 0.7-9.62-0.75-9.61-0.16-9.62 0.97-9.62-1.35-9.62-0.03-9.62 1.09-9.62-0.79-9.61 0.42-9.62 0.42-9.62-0.63-9.62 0.17q-6.32 0-6.32-6.32h0.09l-0.21-5.9 0.17-5.89-0.06-5.9-0.14-5.89 0.15-5.9q0-6.32 6.32-6.32z" fill="#f0f0f0" pointer-events="all" stroke="#9e9e9e"/>
 </g>
 <text x="344.685" y="274.51999" fill="#3b57a6" text-anchor="middle">webhook</text>
 <g fill="none" stroke-linecap="round" stroke-linejoin="round" stroke-miterlimit="10" stroke-width="2">
  <path d="m230.84 272.02h14.63l4.52-0.04 4.53 0.27 4.53-0.35 4.53-0.03 4.53 0.15" opacity=".25" stroke="#000"/>
  <path d="m199.71 269.02v0.01l4.75 0.01 4.75-0.07 4.76 0.15 4.75-0.34 4.75 0.24q10 0 20 0l4.52-0.04 4.53 0.27 4.53-0.35 4.53-0.03 4.53 0.15" pointer-events="stroke" stroke="#8db9ff"/>
  <path d="m191.71 269.02 0.08 0.07 0.59-1.01 0.77-0.82 0.84-0.77 0.91-0.69 0.81-0.78 0.16 0.16 0.81 0.8 0.59 0.6 2.5 2.5-0.99 0.6-0.54 1.07-0.91 0.69-0.82 0.77-0.8 0.81-0.13-0.14-0.71-0.7z" pointer-events="all" stroke="#8db9ff"/>
 </g>
 <g stroke-linecap="round" stroke-linejoin="round" stroke-miterlimit="10" stroke-width="2">
  <path d="m274.11 269.02 0.04 0.11-1.6 0.55-1.57 0.61-1.6 0.55-1.67 0.31-1.6 0.54h0.16l0.03-1.07-0.36-1.07 0.31-1.06-0.09-1.07-0.05-1.07-0.06-0.16 1.61 0.55 1.58 0.47 1.66 0.72 1.6 0.52z" fill="#8db9ff" pointer-events="all" stroke="#8db9ff"/>
  <path d="m284.66 398.37v-0.05l9.62-0.27 9.62 0.27 9.62 0.36 9.61-0.32 9.62-0.54 9.62 0.22 9.62-0.2 9.62 0.4h9.62l9.61 0.57 9.62-0.12 9.62-0.13 9.62-0.19q6.32 0 6.32 6.32h0.05l-0.2 5.9 0.38 5.89-0.46 5.9 0.46 5.9-0.23 5.89q0 6.32-6.32 6.32v-0.22l-9.62 0.45-9.62-0.1-9.62-0.52-9.61 0.28-9.62 0.07-9.62-0.56-9.62-0.1-9.62 1.19-9.62-0.15-9.61-0.65-9.62 1.02-9.62-0.29-9.62-0.42q-6.32 0-6.32-6.32h-0.01l-0.23-5.89 0.44-5.9-0.21-5.9 0.06-5.89-0.05-5.9q0-6.32 6.32-6.32z" opacity=".25" stroke="#000"/>
  <path d="m282.66 395.37v-0.05l9.62-0.27 9.62 0.27 9.62 0.36 9.61-0.32 9.62-0.54 9.62 0.22 9.62-0.2 9.62 0.4h9.62l9.61 0.57 9.62-0.12 9.62-0.13 9.62-0.19q6.32 0 6.32 6.32h0.05l-0.2 5.9 0.38 5.89-0.46 5.9 0.46 5.9-0.23 5.89q0 6.32-6.32 6.32v-0.22l-9.62 0.45-9.62-0.1-9.62-0.52-9.61 0.28-9.62 0.07-9.62-0.56-9.62-0.1-9.62 1.19-9.62-0.15-9.61-0.65-9.62 1.02-9.62-0.29-9.62-0.42q-6.32 0-6.32-6.32h-0.01l-0.23-5.89 0.44-5.9-0.21-5.9 0.06-5.89-0.05-5.9q0-6.32 6.32-6.32z" fill="#e7e7ff" pointer-events="all" stroke="#66f"/>
 </g>
 <text x="344.685" y="421.92999" fill="#3b57a6" text-anchor="middle">repo sync</text>
 <g stroke-linecap="round" stroke-linejoin="round" stroke-miterlimit="10" stroke-width="2">
  <path d="m274.11 416.43 0.07 0.22-1.65 0.39-1.58 0.58-1.71 0.21-1.6 0.52-1.53 0.75h-0.22l0.09-1.07 0.03-1.06 0.13-1.07-0.22-1.07 0.19-1.06 0.02 0.05 1.64 0.68 1.51 0.25 1.6 0.54 1.68 0.77z" fill="#8db9ff" pointer-events="all" stroke="#8db9ff"/>
  <path d="m508.38 349.24v0.74l9.62-1.49 9.61 0.71 9.62 0.71 9.62-0.02 9.62-0.16 9.62-0.62 9.61 0.58 9.62 0.26 9.62-0.12 9.62-0.47 9.62-0.8 9.62 0.39 9.61 0.29q6.32 0 6.32 6.31h0.21l-0.18 5.9-0.22 5.9 0.01 5.89 0.04 5.9 0.14 5.9q0 6.31-6.32 6.31v0.15l-9.61 0.2-9.62 0.08-9.62-0.88-9.62-0.23-9.62 1.04-9.62-0.27-9.61 0.07-9.62-0.15-9.62 0.53-9.62 0.07-9.62-0.07-9.61-1.18-9.62 0.64q-6.32 0-6.32-6.31h-0.04l0.26-5.9-0.19-5.9 0.11-5.89 0.07-5.9-0.21-5.9q0-6.31 6.32-6.31z" opacity=".25" stroke="#000"/>
  <path d="m506.38 346.24v0.74l9.62-1.49 9.61 0.71 9.62 0.71 9.62-0.02 9.62-0.16 9.62-0.62 9.61 0.58 9.62 0.26 9.62-0.12 9.62-0.47 9.62-0.8 9.62 0.39 9.61 0.29q6.32 0 6.32 6.31h0.21l-0.18 5.9-0.22 5.9 0.01 5.89 0.04 5.9 0.14 5.9q0 6.31-6.32 6.31v0.15l-9.61 0.2-9.62 0.08-9.62-0.88-9.62-0.23-9.62 1.04-9.62-0.27-9.61 0.07-9.62-0.15-9.62 0.53-9.62 0.07-9.62-0.07-9.61-1.18-9.62 0.64q-6.32 0-6.32-6.31h-0.04l0.26-5.9-0.19-5.9 0.11-5.89 0.07-5.9-0.21-5.9q0-6.31 6.32-6.31z" fill="#deedff" pointer-events="all" stroke="#7ea6e0"/>
 </g>
 <text x="568.40497" y="372.78998" fill="#3b57a6" text-anchor="middle">github</text>
 <g fill="none" stroke-linecap="round" stroke-linejoin="round" stroke-miterlimit="10" stroke-width="2">
  <path d="m425.43 419.43v0.02l4.69 0.17 4.7-0.39 4.69 0.18 4.69 0.05 4.69-0.03q10 0 10-10h-0.19v-5.83l0.26-5.82-0.16-5.83 0.14-5.83-0.05-5.83q0-10 10-10v0.05h4.59l4.59-0.25 4.58 0.1 4.59-0.13 4.58 0.23" opacity=".25" stroke="#000"/>
  <path d="m423.43 416.43v0.02l4.69 0.17 4.7-0.39 4.69 0.18 4.69 0.05 4.69-0.03q10 0 10-10h-0.19v-5.83l0.26-5.82-0.16-5.83 0.14-5.83-0.05-5.83q0-10 10-10v0.05h4.59l4.59-0.25 4.58 0.1 4.59-0.13 4.58 0.23" pointer-events="stroke" stroke="#8db9ff"/>
  <path d="m415.43 416.43 0.11 0.11 0.55-1.04 1.01-0.59 0.64-0.97 0.82-0.78 0.87-0.73 0.08 0.08 0.67 0.68 0.77 0.76 2.48 2.48-0.08-0.08-0.57 1.03-1.01 0.59-0.83 0.77-0.72 0.88-0.79 0.81-0.13-0.13-0.65-0.64-0.97-0.98z" pointer-events="all" stroke="#8db9ff"/>
 </g>
 <g stroke-linecap="round" stroke-linejoin="round" stroke-miterlimit="10" stroke-width="2">
  <path d="m497.82 367.29 0.05 0.14-1.63 0.46-1.55 0.66-1.71 0.21-1.62 0.46-1.54 0.74h0.07l-0.22-1.07 0.37-1.06-0.17-1.07 0.07-1.07-0.12-1.06-0.01-0.04 1.61 0.56 1.54 0.34 1.68 0.79 1.64 0.66z" fill="#8db9ff" pointer-events="all" stroke="#8db9ff"/>
  <path d="m508.38 447.51v-0.73l9.62 0.43 9.61 0.86 9.62-0.54 9.62-0.73 9.62 1.33 9.62-1.26 9.61 1.23 9.62-0.59 9.62 0.42 9.62-0.08 9.62 0.16 9.62-0.15 9.61-0.35q6.32 0 6.32 6.32h0.16l-0.09 5.9-0.28 5.89 0.31 5.9 0.11 5.89-0.21 5.9q0 6.32-6.32 6.32v0.29l-9.61-1.01-9.62 0.34-9.62 0.37-9.62 0.67-9.62-0.44-9.62 0.2-9.61 0.04-9.62-1.15-9.62 1.09-9.62-0.96-19.23 0.16-9.62 0.4q-6.32 0-6.32-6.32h0.02l-0.15-5.9 0.07-5.89 0.27-5.9-0.1-5.89-0.11-5.9q0-6.32 6.32-6.32z" opacity=".25" stroke="#000"/>
  <path d="m506.38 444.51v-0.73l9.62 0.43 9.61 0.86 9.62-0.54 9.62-0.73 9.62 1.33 9.62-1.26 9.61 1.23 9.62-0.59 9.62 0.42 9.62-0.08 9.62 0.16 9.62-0.15 9.61-0.35q6.32 0 6.32 6.32h0.16l-0.09 5.9-0.28 5.89 0.31 5.9 0.11 5.89-0.21 5.9q0 6.32-6.32 6.32v0.29l-9.61-1.01-9.62 0.34-9.62 0.37-9.62 0.67-9.62-0.44-9.62 0.2-9.61 0.04-9.62-1.15-9.62 1.09-9.62-0.96-19.23 0.16-9.62 0.4q-6.32 0-6.32-6.32h0.02l-0.15-5.9 0.07-5.89 0.27-5.9-0.1-5.89-0.11-5.9q0-6.32 6.32-6.32z" fill="#f0fff5" pointer-events="all" stroke="#3ce4bb"/>
 </g>
 <text x="568.40497" y="471.06998" fill="#3b57a6" text-anchor="middle">gitea</text>
 <g fill="none" stroke-linecap="round" stroke-linejoin="round" stroke-miterlimit="10" stroke-width="2">
  <path d="m451.75 419.67c4.7658 0.87088 7.1487 4.1246 7.1487 9.7613h0.12l-0.2 5.83-0.15 5.83 0.43 5.82-0.28 5.83 0.08 5.83c0 6.6667 3.3333 10 10 10v-0.03l4.59-0.11 4.59 0.02 4.58 0.27 4.59-0.33 4.58 0.18" opacity=".25" stroke="#000"/>
  <path d="m423.43 416.43v-0.15l4.69-0.01 4.7 0.03 4.69-0.03 4.69 0.39 4.69-0.23q10 0 10 10h0.12l-0.2 5.83-0.15 5.83 0.43 5.82-0.28 5.83 0.08 5.83q0 10 10 10v-0.03l4.59-0.11 4.59 0.02 4.58 0.27 4.59-0.33 4.58 0.18" pointer-events="stroke" stroke="#8db9ff"/>
  <path d="m415.43 416.43v0.01l0.74-0.87 0.82-0.78 0.79-0.81 0.69-0.9 0.96-0.65 0.64 0.64 0.84 0.85 0.8 0.79 1.87 1.87-0.79 0.81-0.91 0.69-0.93 0.68-0.7 0.89-0.82 0.78-0.68-0.68-0.85-0.84-0.94-0.94-0.9-0.91z" pointer-events="all" stroke="#8db9ff"/>
 </g>
 <g stroke-linecap="round" stroke-linejoin="round" stroke-miterlimit="10" stroke-width="2">
  <path d="m497.82 465.57-0.07-0.23-1.58 0.61-1.5 0.83-1.61 0.51-1.71 0.18-1.53 0.77h0.22l-0.18-1.07-0.13-1.07 0.26-1.06-0.36-1.07 0.19-1.07 0.07 0.2 1.49 0.21 1.6 0.52 1.67 0.75 1.62 0.59z" fill="#8db9ff" pointer-events="all" stroke="#8db9ff"/>
  <path d="m508.38 250.96v-0.22l9.62 0.23 9.61 0.39 9.62-0.87 9.62 0.26 9.62 0.19 9.62-0.08 9.61 0.65 9.62-0.52 9.62-0.21 9.62 0.37 9.62 0.14 9.62 0.09 9.61-0.42q6.32 0 6.32 6.32h0.07l0.02 5.9 0.1 5.89-0.14 5.9-0.16 5.89 0.11 5.9q0 6.32-6.32 6.32v-0.26l-9.61 0.07-9.62 0.17-9.62-0.27h-9.62l-9.62 0.19-9.62 0.39-9.61 0.1-9.62-1.06-9.62 1.01-9.62-0.43-9.62-0.24-9.61-0.2-9.62 0.53q-6.32 0-6.32-6.32h-0.01l-0.06-5.9 0.12-5.89-0.27-5.9 0.21-5.89 0.01-5.9q0-6.32 6.32-6.32z" opacity=".25" stroke="#000"/>
  <path d="m506.38 247.96v-0.22l9.62 0.23 9.61 0.39 9.62-0.87 9.62 0.26 9.62 0.19 9.62-0.08 9.61 0.65 9.62-0.52 9.62-0.21 9.62 0.37 9.62 0.14 9.62 0.09 9.61-0.42q6.32 0 6.32 6.32h0.07l0.02 5.9 0.1 5.89-0.14 5.9-0.16 5.89 0.11 5.9q0 6.32-6.32 6.32v-0.26l-9.61 0.07-9.62 0.17-9.62-0.27h-9.62l-9.62 0.19-9.62 0.39-9.61 0.1-9.62-1.06-9.62 1.01-9.62-0.43-9.62-0.24-9.61-0.2-9.62 0.53q-6.32 0-6.32-6.32h-0.01l-0.06-5.9 0.12-5.89-0.27-5.9 0.21-5.89 0.01-5.9q0-6.32 6.32-6.32z" fill="#f0f0f0" pointer-events="all" stroke="#9e9e9e"/>
 </g>
 <text x="568.40497" y="274.51999" fill="#3b57a6" text-anchor="middle">vercel site</text>
 <g fill="none" stroke-linecap="round" stroke-linejoin="round" stroke-miterlimit="10" stroke-width="2">
  <path d="m425.43 272.02v-0.05l4.69 0.27 4.7-0.11 4.69 0.12 4.69 0.01 4.69-0.24q10 0 20 0v-0.21l4.59 0.1 4.59 0.06 4.58 0.05 4.59-0.04 4.58 0.04" opacity=".25" stroke="#000"/>
  <path d="m423.43 269.02v-0.05l4.69 0.27 4.7-0.11 4.69 0.12 4.69 0.01 4.69-0.24q10 0 20 0v-0.21l4.59 0.1 4.59 0.06 4.58 0.05 4.59-0.04 4.58 0.04" pointer-events="stroke" stroke="#8db9ff"/>
  <path d="m415.43 269.02 0.06 0.06 0.62-0.98 0.76-0.84 1.05-0.55 0.88-0.72 0.63-0.97 4 4-0.05-0.05-0.63 0.97-1.08 0.52-0.6 1-0.83 0.77-0.81 0.79 0.04 0.04z" pointer-events="all" stroke="#8db9ff"/>
 </g>
 <g stroke-linecap="round" stroke-linejoin="round" stroke-miterlimit="10" stroke-width="2">
  <path d="m497.82 269.02-0.04-0.12-1.53 0.74-1.64 0.41-1.52 0.77-1.6 0.53-1.67 0.34h-0.2l0.21-1.07-0.12-1.07 0.26-1.06-0.39-1.07 0.24-1.07-0.01-0.04 1.54 0.36 1.71 0.85 1.51 0.27 1.73 0.92z" fill="#8db9ff" pointer-events="all" stroke="#8db9ff"/>
  <path d="m508.38 54.41v0.73l9.62-1.33 9.61 0.42 9.62 0.78 9.62-1.24 9.62 0.77 9.62 0.45 9.61-0.98 9.62 0.7 9.62-1 9.62 1.07 9.62-0.28 9.62-0.78 9.61 0.69q6.32 0 6.32 6.32h-0.21l0.06 5.9-0.01 5.89 0.22 5.9 0.09 5.89-0.15 5.9q0 6.32-6.32 6.32v0.44l-9.61-1.15-9.62 1.13-9.62-0.96-9.62 0.52-9.62 0.37-9.62-0.21-9.61-0.38-9.62 0.69-9.62-0.49-9.62 0.55-9.62-1.21-9.61 1.23-9.62-0.53q-6.32 0-6.32-6.32h-0.18l0.05-5.9 0.02-5.89 0.08-5.9-0.12-5.89 0.15-5.9q0-6.32 6.32-6.32z" opacity=".25" stroke="#000"/>
  <path d="m506.38 51.41v0.73l9.62-1.33 9.61 0.42 9.62 0.78 9.62-1.24 9.62 0.77 9.62 0.45 9.61-0.98 9.62 0.7 9.62-1 9.62 1.07 9.62-0.28 9.62-0.78 9.61 0.69q6.32 0 6.32 6.32h-0.21l0.06 5.9-0.01 5.89 0.22 5.9 0.09 5.89-0.15 5.9q0 6.32-6.32 6.32v0.44l-9.61-1.15-9.62 1.13-9.62-0.96-9.62 0.52-9.62 0.37-9.62-0.21-9.61-0.38-9.62 0.69-9.62-0.49-9.62 0.55-9.62-1.21-9.61 1.23-9.62-0.53q-6.32 0-6.32-6.32h-0.18l0.05-5.9 0.02-5.89 0.08-5.9-0.12-5.89 0.15-5.9q0-6.32 6.32-6.32z" fill="#fff9e7" pointer-events="all" stroke="#ffcd5a"/>
 </g>
 <text x="568.40497" y="77.970001" fill="#3b57a6" text-anchor="middle">gitlab page</text>
 <g fill="none" stroke-linecap="round" stroke-linejoin="round" stroke-miterlimit="10" stroke-width="2">
  <path d="m425.43 124.61v0.08l4.69-0.17 4.7 0.03 4.69 0.06 4.69 0.08 4.69-0.08q10 0 10-10h0.05l-0.17-5.83 0.27-5.83-0.39-5.82 0.08-5.83 0.16-5.83q0-10 10-10v0.18l4.59-0.16 4.59 0.09 4.58-0.01 4.59 0.09 4.58-0.19" opacity=".25" stroke="#000"/>
  <path d="m423.43 121.61v0.08l4.69-0.17 4.7 0.03 4.69 0.06 4.69 0.08 4.69-0.08q10 0 10-10h0.05l-0.17-5.83 0.27-5.83-0.39-5.82 0.08-5.83 0.16-5.83q0-10 10-10v0.18l4.59-0.16 4.59 0.09 4.58-0.01 4.59 0.09 4.58-0.19" pointer-events="stroke" stroke="#8db9ff"/>
  <path d="m415.43 121.61-0.06-0.06 0.88-0.73 0.81-0.78 0.71-0.89 0.79-0.81 0.87-0.73 0.13 0.12 0.67 0.68 0.92 0.92 0.63 0.62 0.89 0.9 0.93 0.93-1.02 0.58-0.77 0.83-0.76 0.84-0.84 0.75-0.78 0.83-2.32-2.32-0.76-0.77z" pointer-events="all" stroke="#8db9ff"/>
 </g>
 <g stroke-linecap="round" stroke-linejoin="round" stroke-miterlimit="10" stroke-width="2">
  <path d="m497.82 72.47 0.01 0.03-1.68 0.27-1.46 0.96-1.66 0.36-1.64 0.41-1.57 0.64h0.11l-0.26-1.07 0.33-1.07 0.02-1.06-0.11-1.07-0.09-1.07 0.07 0.21 1.52 0.3 1.57 0.42 1.61 0.57 1.63 0.62z" fill="#8db9ff" pointer-events="all" stroke="#8db9ff"/>
  <path d="m508.38 152.69v-0.51l9.62-0.18 9.61 0.29 9.62 0.11 9.62 0.91 9.62-0.79 9.62 0.02 9.61 0.58 9.62-0.6 9.62 0.25 9.62-0.61 9.62 0.41 9.62 0.42 9.61-0.3q6.32 0 6.32 6.31h-0.24l0.4 5.9-0.01 5.9-0.11 5.89-0.08 5.9 0.04 5.9q0 6.31-6.32 6.31v0.57l-9.61-0.66-9.62-0.03-9.62 0.22-9.62-0.04-9.62-0.03-9.62 0.51-9.61-0.79-9.62 0.84-9.62-0.33-9.62 0.42-9.62-0.47-9.61 0.03-9.62-0.24q-6.32 0-6.32-6.31h0.04l-0.26-5.9 0.04-5.9 0.09-5.89 0.26-5.9-0.17-5.9q0-6.31 6.32-6.31z" opacity=".25" stroke="#000"/>
  <path d="m506.38 149.69v-0.51l9.62-0.18 9.61 0.29 9.62 0.11 9.62 0.91 9.62-0.79 9.62 0.02 9.61 0.58 9.62-0.6 9.62 0.25 9.62-0.61 9.62 0.41 9.62 0.42 9.61-0.3q6.32 0 6.32 6.31h-0.24l0.4 5.9-0.01 5.9-0.11 5.89-0.08 5.9 0.04 5.9q0 6.31-6.32 6.31v0.57l-9.61-0.66-9.62-0.03-9.62 0.22-9.62-0.04-9.62-0.03-9.62 0.51-9.61-0.79-9.62 0.84-9.62-0.33-9.62 0.42-9.62-0.47-9.61 0.03-9.62-0.24q-6.32 0-6.32-6.31h0.04l-0.26-5.9 0.04-5.9 0.09-5.89 0.26-5.9-0.17-5.9q0-6.31 6.32-6.31z" fill="#ffecf1" pointer-events="all" stroke="#ff8987"/>
 </g>
 <text x="568.40497" y="176.25" fill="#3b57a6" text-anchor="middle">upload to qcloud</text>
 <g fill="none" stroke-linecap="round" stroke-linejoin="round" stroke-miterlimit="10" stroke-width="2">
  <path d="m451.08 124.74c5.2124 0.68244 7.8186 3.9711 7.8186 9.866h0.21l-0.06 5.83-0.32 5.82 0.4 5.83-0.26 5.83 0.03 5.83c0 6.6667 3.3333 10 10 10v0.19l4.59 0.02 4.59-0.05 4.58-0.19 4.59 0.12 4.58-0.09" opacity=".25" stroke="#000"/>
  <path d="m423.43 121.61v-0.03l4.69-0.22 4.7 0.03 4.69 0.11 4.69-0.09 4.69 0.2q10 0 10 10h0.21l-0.06 5.83-0.32 5.82 0.4 5.83-0.26 5.83 0.03 5.83q0 10 10 10v0.19l4.59 0.02 4.59-0.05 4.58-0.19 4.59 0.12 4.58-0.09" pointer-events="stroke" stroke="#8db9ff"/>
  <path d="m415.43 121.61 0.1 0.1 0.79-0.81 0.7-0.91 0.85-0.74 0.64-0.97 0.92-0.67 4 4v-0.01l-0.94 0.66-0.68 0.93-0.71 0.89-0.87 0.73-0.8 0.8 0.16 0.16z" pointer-events="all" stroke="#8db9ff"/>
 </g>
 <g stroke-linecap="round" stroke-linejoin="round" stroke-miterlimit="10" stroke-width="2">
  <path d="m497.82 170.75 0.04 0.11-1.6 0.52-1.56 0.65-1.74 0.12-1.52 0.78-1.62 0.48h-0.05l0.08-1.06-0.11-1.07 0.28-1.07-0.38-1.06 0.18-1.07 0.07 0.21 1.51 0.25 1.6 0.53 1.61 0.57 1.65 0.66z" fill="#8db9ff" pointer-events="all" stroke="#8db9ff"/>
  <path d="m66.665 251.42v0.17l10.07-0.39 10.06 0.29 10.07-0.13 10.06 0.59 10.07-1.27 10.06 0.82 10.07 0.46 10.06-0.76 10.07 0.73 10.06-0.99 10.07 0.48q13.48 0 13.48 13.48h-0.23l0.26 3.03 0.08 3.03-0.24 3.04 0.02 3.03 0.11 3.03q0 13.48-13.48 13.48v0.7l-10.07-1.29-10.06 0.56-10.07 0.01-10.06 0.24-10.07-0.92-10.06 1.17-10.07 0.05-10.06 0.23-10.07-0.6-10.06 0.39-10.07-0.54q-13.48 0-13.48-13.48h-0.13l0.36-3.03-0.15-3.03-0.14-3.04 0.02-3.03 0.04-3.03q0-13.48 13.48-13.48z" opacity=".25" stroke="#000"/>
  <path d="m64.665 248.42v0.17l10.07-0.39 10.06 0.29 10.07-0.13 10.06 0.59 10.07-1.27 10.06 0.82 10.07 0.46 10.06-0.76 10.07 0.73 10.06-0.99 10.07 0.48q13.48 0 13.48 13.48h-0.23l0.26 3.03 0.08 3.03-0.24 3.04 0.02 3.03 0.11 3.03q0 13.48-13.48 13.48v0.7l-10.07-1.29-10.06 0.56-10.07 0.01-10.06 0.24-10.07-0.92-10.06 1.17-10.07 0.05-10.06 0.23-10.07-0.6-10.06 0.39-10.07-0.54q-13.48 0-13.48-13.48h-0.13l0.36-3.03-0.15-3.03-0.14-3.04 0.02-3.03 0.04-3.03q0-13.48 13.48-13.48z" fill="#fff9e7" pointer-events="all" stroke="#ffcd5a"/>
 </g>
 <text x="119.52499" y="274.98001" fill="#3b57a6" text-anchor="middle">gitLab</text>
 <g fill="none" stroke-linecap="round" stroke-linejoin="round" stroke-miterlimit="10" stroke-width="2">
  <path d="m229.49 272.53c3.9867 1.1687 5.98 4.3307 5.98 9.4861h-0.09l0.3 9.8-0.6 9.8 0.87 9.8-0.07 9.8 0.32 9.8-0.14 9.81-0.84 9.8 0.44 9.8-0.31 9.8-0.01 9.8 0.41 9.8-0.28 19.6c0 6.6667 3.3333 10 10 10v0.14l4.52-0.01 4.53-0.19 4.53 0.29 4.53-0.18 4.53-0.05" opacity=".25" stroke="#000"/>
  <path d="m199.71 269.02v0.13l4.75-0.36 4.75 0.22 4.76 0.13 4.75-0.37 4.75 0.25q10 0 10 10h-0.09l0.3 9.8-0.6 9.8 0.87 9.8-0.07 9.8 0.32 9.8-0.14 9.81-0.84 9.8 0.44 9.8-0.31 9.8-0.01 9.8 0.41 9.8-0.28 19.6q0 10 10 10v0.14l4.52-0.01 4.53-0.19 4.53 0.29 4.53-0.18 4.53-0.05" pointer-events="stroke" stroke="#8db9ff"/>
  <path d="m191.71 269.02-0.16-0.16 0.96-0.64 0.81-0.8 0.93-0.66 0.79-0.82 0.67-0.92-0.16-0.16 1.03 1.02 0.65 0.66 0.84 0.84 0.74 0.73 0.9 0.91-0.13-0.13-0.56 1.04-1.05 0.54-0.58 1.03-0.77 0.83-0.91 0.69 0.07 0.07-0.91-0.92-0.88-0.87-0.84-0.85-0.6-0.59z" pointer-events="all" stroke="#8db9ff"/>
 </g>
</svg>
